<svg xmlns="http://www.w3.org/2000/svg" xmlns:xlink="http://www.w3.org/1999/xlink" width="500" zoomAndPan="magnify" viewBox="0 0 375 374.999991" height="500" preserveAspectRatio="xMidYMid meet" version="1.0"><defs><clipPath id="e88785f2a7"><path d="M 112.5 127 L 182 127 L 182 248 L 112.5 248 Z M 112.5 127 " clip-rule="nonzero"/></clipPath><clipPath id="ca1cf4f07c"><path d="M 193 127 L 262.5 127 L 262.5 248 L 193 248 Z M 193 127 " clip-rule="nonzero"/></clipPath></defs><rect x="-37.5" width="450" fill="#ffffff" y="-37.499999" height="449.999989" fill-opacity="1"/><rect x="-37.5" width="450" fill="#ffffff" y="-37.499999" height="449.999989" fill-opacity="1"/><g clip-path="url(#e88785f2a7)"><path fill="#00203a" d="M 180 127.492188 C 180.617188 127.492188 181.230469 127.535156 181.839844 127.621094 L 181.839844 247.363281 C 181.230469 247.445312 180.617188 247.488281 180 247.492188 L 125.628906 247.492188 C 124.765625 247.492188 123.914062 247.40625 123.066406 247.238281 C 122.222656 247.070312 121.402344 246.820312 120.605469 246.492188 C 119.808594 246.160156 119.050781 245.757812 118.335938 245.277344 C 117.617188 244.800781 116.953125 244.253906 116.34375 243.644531 C 115.734375 243.035156 115.191406 242.371094 114.710938 241.65625 C 114.234375 240.9375 113.828125 240.183594 113.5 239.386719 C 113.167969 238.589844 112.921875 237.769531 112.753906 236.921875 C 112.585938 236.078125 112.5 235.222656 112.5 234.363281 L 112.5 140.625 C 112.5 139.765625 112.582031 138.910156 112.75 138.0625 C 112.917969 137.21875 113.167969 136.398438 113.496094 135.601562 C 113.828125 134.804688 114.230469 134.046875 114.710938 133.328125 C 115.1875 132.613281 115.734375 131.949219 116.34375 131.339844 C 116.953125 130.730469 117.617188 130.183594 118.332031 129.703125 C 119.050781 129.226562 119.804688 128.820312 120.601562 128.492188 C 121.398438 128.160156 122.21875 127.910156 123.066406 127.742188 C 123.914062 127.574219 124.765625 127.492188 125.628906 127.492188 Z M 180 127.492188 " fill-opacity="1" fill-rule="nonzero"/></g><g clip-path="url(#ca1cf4f07c)"><path fill="#108fba" d="M 249.363281 127.484375 C 250.226562 127.484375 251.082031 127.566406 251.929688 127.734375 C 252.773438 127.902344 253.597656 128.152344 254.394531 128.480469 C 255.191406 128.8125 255.949219 129.21875 256.664062 129.695312 C 257.382812 130.175781 258.046875 130.722656 258.65625 131.332031 C 259.265625 131.941406 259.8125 132.605469 260.289062 133.324219 C 260.769531 134.042969 261.175781 134.796875 261.503906 135.597656 C 261.832031 136.394531 262.082031 137.214844 262.25 138.0625 C 262.417969 138.910156 262.5 139.761719 262.5 140.625 L 262.5 234.371094 C 262.5 235.230469 262.414062 236.085938 262.246094 236.929688 C 262.074219 237.773438 261.828125 238.59375 261.496094 239.390625 C 261.164062 240.1875 260.761719 240.941406 260.28125 241.660156 C 259.800781 242.375 259.257812 243.035156 258.648438 243.644531 C 258.039062 244.253906 257.375 244.796875 256.65625 245.277344 C 255.941406 245.753906 255.183594 246.160156 254.386719 246.488281 C 253.589844 246.816406 252.769531 247.066406 251.925781 247.234375 C 251.078125 247.402344 250.226562 247.484375 249.363281 247.484375 L 195.007812 247.484375 C 194.363281 247.484375 193.722656 247.4375 193.085938 247.347656 L 193.085938 127.640625 C 193.722656 127.542969 194.363281 127.488281 195.007812 127.484375 Z M 215.292969 198 C 214.753906 197.585938 214.160156 197.28125 213.511719 197.082031 C 212.863281 196.882812 212.203125 196.800781 211.523438 196.84375 C 210.847656 196.882812 210.199219 197.039062 209.578125 197.316406 C 208.957031 197.589844 208.40625 197.964844 207.921875 198.441406 C 207.433594 198.917969 207.050781 199.460938 206.761719 200.078125 C 206.476562 200.691406 206.304688 201.339844 206.25 202.015625 C 206.199219 202.691406 206.265625 203.355469 206.453125 204.007812 C 206.640625 204.660156 206.933594 205.257812 207.339844 205.804688 L 207.886719 206.433594 L 224.785156 223.660156 L 225.414062 224.210938 C 225.902344 224.578125 226.4375 224.855469 227.015625 225.046875 C 227.59375 225.242188 228.1875 225.335938 228.796875 225.335938 C 229.40625 225.335938 230.003906 225.242188 230.582031 225.046875 C 231.160156 224.855469 231.695312 224.578125 232.183594 224.210938 L 232.820312 223.648438 L 249.699219 206.429688 L 250.230469 205.789062 C 250.632812 205.246094 250.925781 204.644531 251.109375 203.996094 C 251.296875 203.34375 251.359375 202.679688 251.304688 202.003906 C 251.25 201.332031 251.082031 200.6875 250.792969 200.074219 C 250.507812 199.460938 250.121094 198.917969 249.636719 198.441406 C 249.152344 197.96875 248.601562 197.59375 247.984375 197.320312 C 247.363281 197.042969 246.71875 196.886719 246.042969 196.84375 C 245.367188 196.804688 244.703125 196.882812 244.054688 197.078125 C 243.410156 197.277344 242.816406 197.582031 242.277344 197.996094 L 241.65625 198.546875 L 228.800781 211.675781 L 215.914062 198.554688 Z M 232.820312 151.667969 C 232.34375 151.183594 231.796875 150.796875 231.179688 150.507812 C 230.5625 150.222656 229.914062 150.050781 229.234375 150 C 228.554688 149.949219 227.890625 150.015625 227.234375 150.207031 C 226.582031 150.398438 225.980469 150.695312 225.4375 151.105469 L 224.808594 151.660156 L 207.90625 168.882812 C 207.660156 169.132812 207.4375 169.40625 207.242188 169.699219 C 207.042969 169.992188 206.878906 170.300781 206.738281 170.625 C 206.601562 170.949219 206.492188 171.28125 206.417969 171.625 C 206.34375 171.96875 206.300781 172.316406 206.289062 172.671875 C 206.277344 173.023438 206.300781 173.371094 206.355469 173.722656 C 206.414062 174.070312 206.5 174.410156 206.621094 174.738281 C 206.738281 175.070312 206.886719 175.390625 207.066406 175.691406 C 207.246094 175.996094 207.453125 176.28125 207.683594 176.546875 C 207.917969 176.808594 208.171875 177.050781 208.449219 177.269531 C 208.726562 177.484375 209.023438 177.671875 209.335938 177.835938 C 209.648438 177.996094 209.976562 178.128906 210.3125 178.226562 C 210.652344 178.328125 210.996094 178.394531 211.347656 178.429688 C 211.695312 178.464844 212.046875 178.46875 212.398438 178.4375 C 212.75 178.40625 213.09375 178.34375 213.433594 178.25 C 213.773438 178.152344 214.101562 178.027344 214.417969 177.871094 C 214.730469 177.714844 215.03125 177.527344 215.3125 177.316406 L 215.933594 176.769531 L 228.820312 163.640625 L 241.679688 176.769531 C 241.925781 177.023438 242.191406 177.25 242.480469 177.453125 C 242.769531 177.65625 243.074219 177.832031 243.398438 177.976562 C 243.71875 178.125 244.050781 178.238281 244.394531 178.320312 C 244.738281 178.40625 245.085938 178.457031 245.4375 178.472656 C 245.792969 178.488281 246.144531 178.476562 246.492188 178.425781 C 246.84375 178.378906 247.183594 178.296875 247.519531 178.183594 C 247.855469 178.070312 248.175781 177.925781 248.484375 177.753906 C 248.789062 177.578125 249.078125 177.378906 249.347656 177.148438 C 249.621094 176.921875 249.867188 176.671875 250.085938 176.394531 C 250.308594 176.121094 250.503906 175.828125 250.671875 175.519531 C 250.839844 175.207031 250.976562 174.882812 251.082031 174.546875 C 251.1875 174.207031 251.261719 173.863281 251.304688 173.515625 C 251.34375 173.164062 251.355469 172.8125 251.328125 172.460938 C 251.304688 172.105469 251.246094 171.761719 251.15625 171.417969 C 251.066406 171.078125 250.945312 170.746094 250.792969 170.429688 C 250.640625 170.109375 250.460938 169.808594 250.25 169.523438 L 249.71875 168.894531 Z M 232.820312 151.667969 " fill-opacity="1" fill-rule="nonzero"/></g></svg>