<svg xmlns="http://www.w3.org/2000/svg" xmlns:xlink="http://www.w3.org/1999/xlink" width="500" zoomAndPan="magnify" viewBox="0 0 375 374.999991" height="500" preserveAspectRatio="xMidYMid meet" version="1.0"><defs><clipPath id="6340d1f410"><path d="M 107 106.507812 L 262.507812 106.507812 L 262.507812 262.507812 L 107 262.507812 Z M 107 106.507812 " clip-rule="nonzero"/></clipPath></defs><rect x="-37.5" width="450" fill="#ffffff" y="-37.499999" height="449.999989" fill-opacity="1"/><rect x="-37.5" width="450" fill="#ffffff" y="-37.499999" height="449.999989" fill-opacity="1"/><path fill="#00203a" d="M 166.941406 186.734375 C 168.546875 186.835938 170.214844 186.890625 171.945312 186.890625 C 173.648438 186.890625 175.34375 186.761719 177.027344 186.5 C 178.65625 186.253906 180.238281 185.832031 181.773438 185.242188 C 183.265625 184.671875 184.617188 183.867188 185.832031 182.832031 C 187.082031 181.742188 188.0625 180.449219 188.78125 178.957031 C 189.613281 177.171875 190.101562 175.300781 190.246094 173.339844 L 164.730469 173.339844 C 164.984375 172.820312 165.265625 172.316406 165.574219 171.828125 L 167.039062 169.390625 C 167.65625 168.394531 168.339844 167.316406 169.09375 166.15625 L 188.964844 166.15625 C 188.898438 165.085938 188.472656 164.1875 187.683594 163.457031 C 186.757812 162.5 185.722656 161.6875 184.566406 161.019531 C 183.382812 160.3125 182.140625 159.71875 180.84375 159.242188 C 179.84375 158.832031 178.808594 158.601562 177.730469 158.546875 L 164.730469 158.546875 C 164.972656 157.90625 165.269531 157.289062 165.617188 156.699219 C 166.082031 155.878906 166.570312 155.066406 167.082031 154.261719 L 168.445312 152.128906 C 168.628906 151.800781 168.839844 151.492188 169.085938 151.207031 L 211.851562 151.207031 L 211.570312 151.769531 C 211.382812 152.148438 211.136719 152.601562 210.828125 153.132812 C 210.519531 153.664062 210.175781 154.242188 209.800781 154.875 L 208.746094 156.65625 C 208.417969 157.203125 208.144531 157.660156 207.921875 158.015625 L 207.589844 158.554688 L 196.355469 158.554688 C 197.058594 159.757812 197.683594 161 198.226562 162.28125 C 198.757812 163.519531 199.089844 164.8125 199.230469 166.15625 L 211.859375 166.15625 L 207.597656 173.339844 L 199.691406 173.339844 C 199.378906 176.253906 198.480469 178.976562 196.996094 181.503906 C 195.667969 183.710938 193.972656 185.585938 191.914062 187.132812 C 189.867188 188.640625 187.632812 189.785156 185.214844 190.558594 C 182.734375 191.367188 180.203125 191.921875 177.613281 192.226562 C 177.65625 192.347656 177.714844 192.460938 177.792969 192.5625 C 177.910156 192.75 178.058594 192.960938 178.238281 193.203125 C 178.425781 193.507812 178.628906 193.804688 178.851562 194.09375 L 201.644531 225.546875 L 201.644531 226.832031 L 191.890625 226.832031 L 166.941406 193.507812 Z M 166.941406 186.734375 " fill-opacity="1" fill-rule="nonzero"/><g clip-path="url(#6340d1f410)"><path stroke-linecap="round" transform="matrix(4.449308, 0, 0, 4.449308, 109.321361, 108.758467)" fill="none" stroke-linejoin="round" d="M 1.049787 19.118873 C 1.091929 19.437567 1.14285 19.753627 1.203428 20.06881 C 1.264006 20.383992 1.334242 20.696541 1.414135 21.007334 C 1.494028 21.318126 1.5827 21.626285 1.68103 21.93181 C 1.778482 22.237335 1.885591 22.540227 2.002358 22.838728 C 2.118247 23.138108 2.243793 23.433097 2.378119 23.724575 C 2.511567 24.016053 2.654672 24.303141 2.805678 24.586718 C 2.957563 24.869416 3.117349 25.147725 3.285037 25.420766 C 3.453602 25.693807 3.629191 25.962458 3.81356 26.224964 C 3.997928 26.48747 4.189321 26.744708 4.389492 26.9958 C 4.588786 27.246893 4.795981 27.491839 5.0102 27.730641 C 5.224418 27.969442 5.446539 28.201219 5.674804 28.426851 C 5.90307 28.652483 6.137482 28.870214 6.379795 29.081799 C 6.62123 29.293384 6.86881 29.497067 7.122537 29.692849 C 7.376263 29.889509 7.635257 30.078267 7.900396 30.259124 C 8.165536 30.439981 8.435943 30.612058 8.711618 30.777112 C 8.987293 30.941288 9.267358 31.097562 9.551812 31.245057 C 9.837144 31.392552 10.125988 31.531267 10.419222 31.662081 C 10.712456 31.792017 11.009202 31.913173 11.309459 32.02555 C 11.610594 32.137927 11.914363 32.241525 12.220766 32.335465 C 12.527169 32.429405 12.837084 32.514566 13.148755 32.590069 C 13.460425 32.665573 13.773852 32.731418 14.089912 32.788485 C 14.405973 32.844673 14.722911 32.892083 15.041605 32.929834 C 15.3603 32.966708 15.679872 32.994802 16.000322 33.013239 C 16.320772 33.031676 16.641222 33.040455 16.96255 33.039577 C 17.283 33.038699 17.60345 33.028164 17.923901 33.007971 C 18.244351 32.987779 18.563045 32.957928 18.881739 32.918421 C 19.200433 32.878913 19.517372 32.829748 19.832554 32.770926 C 20.147737 32.712982 20.461163 32.644502 20.772834 32.567243 C 21.084505 32.489983 21.392663 32.403067 21.699066 32.307371 C 22.005469 32.211675 22.308361 32.106321 22.608618 31.992188 C 22.907997 31.878055 23.204743 31.755143 23.497099 31.622573 C 23.789455 31.490881 24.077421 31.35041 24.361875 31.201159 C 24.645452 31.051031 24.924638 30.893878 25.199435 30.727069 C 25.473354 30.561137 25.742884 30.387304 26.007145 30.204691 C 26.271407 30.022079 26.529523 29.832442 26.781493 29.634027 C 27.034341 29.436489 27.281044 29.23105 27.520723 29.018587 C 27.76128 28.806124 27.994814 28.58576 28.222202 28.35925 C 28.448712 28.13274 28.669076 27.899206 28.881539 27.659527 C 29.09488 27.41897 29.300319 27.173145 29.498735 26.920297 C 29.696272 26.668327 29.886787 26.410211 30.069399 26.145949 C 30.252012 25.882565 30.426723 25.613914 30.593533 25.339117 C 30.759464 25.065198 30.917495 24.786011 31.067623 24.501557 C 31.216874 24.217981 31.358223 23.930014 31.490793 23.637659 C 31.622485 23.345303 31.746275 23.049435 31.860408 22.750056 C 31.975419 22.449798 32.080772 22.146907 32.176469 21.841382 C 32.273043 21.534979 32.359959 21.225942 32.438096 20.915149 C 32.515355 20.603479 32.583835 20.290052 32.642658 19.97487 C 32.70148 19.659687 32.750645 19.342749 32.79103 19.024055 C 32.830538 18.705361 32.860388 18.386666 32.881459 18.066216 C 32.901652 17.745766 32.913065 17.425316 32.913943 17.104866 C 32.915699 16.783538 32.906919 16.463088 32.88936 16.142637 C 32.870923 15.822187 32.843707 15.502615 32.805955 15.183921 C 32.769082 14.865227 32.722551 14.548288 32.666362 14.232228 C 32.610174 13.916168 32.544328 13.602741 32.468824 13.290192 C 32.393321 12.978522 32.309038 12.669485 32.215098 12.362204 C 32.122036 12.055801 32.018438 11.752032 31.906939 11.450897 C 31.794562 11.150639 31.673406 10.853894 31.54347 10.559782 C 31.413534 10.266548 31.274818 9.977704 31.127324 9.692372 C 30.980707 9.407039 30.824432 9.126975 30.660257 8.8513 C 30.496081 8.575625 30.324003 8.305218 30.143147 8.040078 C 29.963168 7.774939 29.77441 7.515067 29.578628 7.26134 C 29.382846 7.006736 29.179162 6.759156 28.967578 6.517721 C 28.756871 6.276286 28.53914 6.040996 28.313508 5.811852 C 28.088754 5.583586 27.856976 5.361466 27.618175 5.147248 C 27.379374 4.932151 27.135305 4.724956 26.884213 4.525662 C 26.63312 4.325491 26.375882 4.13322 26.113377 3.948852 C 25.850871 3.764483 25.583097 3.588016 25.310056 3.419451 C 25.037015 3.250885 24.759585 3.091099 24.476008 2.939215 C 24.19331 2.78733 23.906222 2.645103 23.615622 2.509899 C 23.324144 2.375573 23.028276 2.250027 22.729774 2.134138 C 22.431273 2.017372 22.128382 1.909384 21.823735 1.811054 C 21.51821 1.712725 21.210051 1.623174 20.899258 1.543281 C 20.588465 1.463388 20.275917 1.393152 19.960734 1.332574 C 19.645552 1.271118 19.328613 1.219319 19.010797 1.177178 C 18.692981 1.135036 18.373409 1.10343 18.053837 1.079726 C 17.733386 1.056899 17.412936 1.04373 17.092486 1.040218 C 16.771158 1.036707 16.450708 1.042852 16.130258 1.058655 C 15.809808 1.074458 15.490236 1.099919 15.171541 1.135036 C 14.851969 1.170154 14.534153 1.214052 14.218092 1.268484 C 13.902032 1.322039 13.587728 1.386129 13.275179 1.458998 C 12.96263 1.531868 12.652716 1.614395 12.345435 1.705701 C 12.038154 1.797007 11.733507 1.897971 11.431493 2.007714 C 11.130358 2.118335 10.832734 2.236858 10.538623 2.365038 C 10.243633 2.49234 9.953911 2.6293 9.667701 2.775039 C 9.38149 2.9199 9.100548 3.07354 8.823117 3.23596 C 8.546564 3.39838 8.275279 3.568701 8.008384 3.746924 C 7.741488 3.926025 7.480738 4.11215 7.225256 4.307054 C 6.969774 4.50108 6.720438 4.703007 6.477247 4.911958 C 6.234056 5.120909 5.997888 5.337762 5.767867 5.561638 C 5.536967 5.784636 5.313969 6.014658 5.097994 6.251703 C 4.881142 6.488748 4.672191 6.731939 4.471141 6.982154 C 4.269214 7.23149 4.075188 7.486972 3.889063 7.747722 C 3.702061 8.00935 3.523838 8.275368 3.353516 8.547531 C 3.183195 8.819694 3.021653 9.096247 2.868013 9.378067 C 2.714372 9.659888 2.569511 9.946098 2.432552 10.23582 C 2.29647 10.52642 2.169168 10.820532 2.049767 11.119033 M 1.049787 3.119193 L 1.049787 11.119033 L 9.049627 11.119033 " stroke="#85e6c4" stroke-width="3" stroke-opacity="1" stroke-miterlimit="4"/></g></svg>