<svg xmlns="http://www.w3.org/2000/svg" xmlns:xlink="http://www.w3.org/1999/xlink" width="500" zoomAndPan="magnify" viewBox="0 0 375 374.999991" height="500" preserveAspectRatio="xMidYMid meet" version="1.0"><defs><clipPath id="0132ce61d4"><path d="M 114.953125 113 L 232 113 L 232 233 L 114.953125 233 Z M 114.953125 113 " clip-rule="nonzero"/></clipPath><clipPath id="cbb9af065d"><path d="M 187 189 L 259.703125 189 L 259.703125 262 L 187 262 Z M 187 189 " clip-rule="nonzero"/></clipPath></defs><rect x="-37.5" width="450" fill="#ffffff" y="-37.499999" height="449.999989" fill-opacity="1"/><rect x="-37.5" width="450" fill="#ffffff" y="-37.499999" height="449.999989" fill-opacity="1"/><g clip-path="url(#0132ce61d4)"><path fill="#108fba" d="M 172.992188 113.140625 C 171.257812 113.140625 169.691406 113.660156 168.296875 114.695312 L 118.207031 151.960938 C 117.5625 152.441406 117.003906 153.003906 116.53125 153.652344 C 116.054688 154.300781 115.6875 155.003906 115.425781 155.761719 C 115.164062 156.523438 115.019531 157.304688 114.992188 158.105469 C 114.964844 158.910156 115.054688 159.699219 115.265625 160.472656 C 115.476562 161.25 115.796875 161.976562 116.226562 162.652344 C 116.65625 163.332031 117.175781 163.933594 117.785156 164.453125 C 118.398438 164.976562 119.070312 165.398438 119.808594 165.714844 C 120.546875 166.035156 121.3125 166.238281 122.113281 166.324219 L 223.890625 166.324219 C 224.691406 166.238281 225.457031 166.035156 226.195312 165.714844 C 226.933594 165.398438 227.605469 164.976562 228.214844 164.453125 C 228.828125 163.933594 229.347656 163.332031 229.777344 162.652344 C 230.207031 161.976562 230.527344 161.25 230.738281 160.472656 C 230.945312 159.699219 231.039062 158.910156 231.011719 158.105469 C 230.984375 157.304688 230.839844 156.523438 230.578125 155.761719 C 230.316406 155.003906 229.949219 154.300781 229.472656 153.652344 C 229 153.003906 228.441406 152.441406 227.796875 151.960938 L 177.695312 114.695312 C 176.300781 113.660156 174.730469 113.140625 172.992188 113.140625 Z M 178.570312 148.035156 C 178.203125 148.402344 177.804688 148.734375 177.375 149.023438 C 176.941406 149.316406 176.484375 149.5625 176.003906 149.761719 C 175.527344 149.964844 175.03125 150.113281 174.519531 150.214844 C 174.007812 150.320312 173.496094 150.371094 172.972656 150.371094 C 172.453125 150.371094 171.9375 150.320312 171.425781 150.214844 C 170.917969 150.113281 170.421875 149.964844 169.941406 149.761719 C 169.460938 149.5625 169.003906 149.316406 168.574219 149.023438 C 168.144531 148.734375 167.742188 148.402344 167.378906 148.035156 C 167.011719 147.660156 166.683594 147.257812 166.394531 146.820312 C 166.105469 146.386719 165.859375 145.925781 165.664062 145.441406 C 165.464844 144.957031 165.3125 144.457031 165.210938 143.945312 C 165.109375 143.433594 165.058594 142.914062 165.058594 142.390625 C 165.058594 141.867188 165.109375 141.351562 165.210938 140.835938 C 165.3125 140.324219 165.464844 139.824219 165.664062 139.339844 C 165.859375 138.859375 166.105469 138.398438 166.394531 137.960938 C 166.683594 137.527344 167.011719 137.121094 167.378906 136.75 C 167.742188 136.378906 168.144531 136.046875 168.574219 135.757812 C 169.003906 135.464844 169.460938 135.222656 169.941406 135.019531 C 170.421875 134.820312 170.917969 134.667969 171.425781 134.566406 C 171.9375 134.464844 172.453125 134.414062 172.972656 134.414062 C 173.496094 134.414062 174.007812 134.464844 174.519531 134.566406 C 175.03125 134.667969 175.527344 134.820312 176.003906 135.019531 C 176.484375 135.222656 176.941406 135.464844 177.375 135.757812 C 177.804688 136.046875 178.203125 136.378906 178.570312 136.75 C 178.9375 137.121094 179.265625 137.527344 179.554688 137.960938 C 179.84375 138.398438 180.085938 138.859375 180.285156 139.339844 C 180.484375 139.824219 180.632812 140.324219 180.734375 140.835938 C 180.835938 141.351562 180.886719 141.867188 180.886719 142.390625 C 180.886719 142.914062 180.835938 143.433594 180.734375 143.945312 C 180.632812 144.457031 180.484375 144.957031 180.285156 145.441406 C 180.085938 145.925781 179.84375 146.386719 179.554688 146.820312 C 179.265625 147.257812 178.9375 147.660156 178.570312 148.035156 Z M 215.175781 171.652344 L 202.007812 171.652344 L 202.007812 187.886719 C 206.128906 185.5 210.523438 183.839844 215.195312 182.902344 Z M 183.542969 208.902344 C 181.980469 212.6875 180.96875 216.613281 180.507812 220.679688 C 180.046875 224.75 180.15625 228.804688 180.832031 232.839844 L 118.914062 232.839844 C 117.824219 232.835938 116.894531 232.445312 116.125 231.667969 C 115.351562 230.894531 114.960938 229.957031 114.953125 228.863281 L 114.953125 226.203125 C 114.953125 223.914062 115.386719 221.710938 116.257812 219.59375 C 117.128906 217.476562 118.367188 215.605469 119.976562 213.976562 C 121.578125 212.351562 123.429688 211.097656 125.53125 210.214844 C 127.632812 209.328125 129.824219 208.882812 132.105469 208.878906 L 183.5625 208.878906 Z M 191.441406 196.429688 C 189.453125 198.628906 187.703125 201.011719 186.199219 203.570312 L 178.253906 203.570312 L 178.253906 171.652344 L 191.441406 171.652344 Z M 167.699219 171.660156 L 167.699219 203.582031 L 154.523438 203.582031 L 154.523438 171.65625 Z M 143.960938 171.660156 L 143.960938 203.582031 L 130.785156 203.582031 L 130.785156 171.65625 Z M 143.960938 171.660156 " fill-opacity="1" fill-rule="evenodd"/></g><g clip-path="url(#cbb9af065d)"><path fill="#00203a" d="M 223.753906 189.3125 C 222.566406 189.3125 221.378906 189.371094 220.199219 189.488281 C 219.015625 189.601562 217.84375 189.777344 216.679688 190.007812 C 215.515625 190.242188 214.367188 190.527344 213.230469 190.875 C 212.09375 191.21875 210.976562 191.617188 209.878906 192.070312 C 208.78125 192.527344 207.710938 193.035156 206.664062 193.59375 C 205.617188 194.152344 204.601562 194.761719 203.613281 195.421875 C 202.625 196.082031 201.671875 196.789062 200.753906 197.539062 C 199.835938 198.292969 198.957031 199.089844 198.121094 199.929688 C 197.28125 200.769531 196.484375 201.648438 195.730469 202.566406 C 194.976562 203.484375 194.269531 204.4375 193.609375 205.421875 C 192.953125 206.410156 192.34375 207.425781 191.78125 208.472656 C 191.222656 209.523438 190.714844 210.59375 190.261719 211.691406 C 189.808594 212.789062 189.40625 213.902344 189.0625 215.039062 C 188.71875 216.175781 188.429688 217.328125 188.199219 218.492188 C 187.964844 219.65625 187.792969 220.828125 187.675781 222.007812 C 187.558594 223.191406 187.5 224.375 187.5 225.5625 C 187.5 226.75 187.558594 227.933594 187.675781 229.117188 C 187.792969 230.296875 187.964844 231.46875 188.199219 232.636719 C 188.429688 233.800781 188.71875 234.949219 189.0625 236.085938 C 189.40625 237.222656 189.808594 238.339844 190.261719 239.433594 C 190.714844 240.53125 191.222656 241.605469 191.78125 242.652344 C 192.34375 243.699219 192.953125 244.714844 193.609375 245.703125 C 194.269531 246.691406 194.976562 247.640625 195.730469 248.558594 C 196.484375 249.476562 197.28125 250.355469 198.121094 251.195312 C 198.957031 252.035156 199.835938 252.832031 200.753906 253.585938 C 201.671875 254.339844 202.625 255.042969 203.613281 255.703125 C 204.601562 256.363281 205.617188 256.972656 206.664062 257.53125 C 207.710938 258.09375 208.78125 258.597656 209.878906 259.054688 C 210.976562 259.507812 212.09375 259.90625 213.230469 260.253906 C 214.367188 260.597656 215.515625 260.886719 216.679688 261.117188 C 217.84375 261.347656 219.015625 261.523438 220.199219 261.640625 C 221.378906 261.753906 222.566406 261.8125 223.753906 261.8125 C 224.9375 261.8125 226.125 261.753906 227.304688 261.640625 C 228.488281 261.523438 229.660156 261.347656 230.824219 261.117188 C 231.988281 260.886719 233.140625 260.597656 234.273438 260.253906 C 235.410156 259.90625 236.527344 259.507812 237.625 259.054688 C 238.722656 258.597656 239.792969 258.09375 240.839844 257.53125 C 241.886719 256.972656 242.90625 256.363281 243.890625 255.703125 C 244.878906 255.042969 245.832031 254.339844 246.75 253.585938 C 247.667969 252.832031 248.546875 252.035156 249.386719 251.195312 C 250.222656 250.355469 251.019531 249.476562 251.773438 248.558594 C 252.527344 247.640625 253.234375 246.691406 253.894531 245.703125 C 254.554688 244.714844 255.164062 243.699219 255.722656 242.652344 C 256.28125 241.605469 256.789062 240.53125 257.242188 239.433594 C 257.699219 238.339844 258.097656 237.222656 258.441406 236.085938 C 258.785156 234.949219 259.074219 233.800781 259.304688 232.636719 C 259.539062 231.46875 259.710938 230.296875 259.828125 229.117188 C 259.945312 227.933594 260.003906 226.75 260.003906 225.5625 C 260 224.375 259.941406 223.191406 259.824219 222.011719 C 259.707031 220.828125 259.535156 219.65625 259.300781 218.492188 C 259.070312 217.328125 258.78125 216.179688 258.4375 215.042969 C 258.089844 213.90625 257.691406 212.789062 257.238281 211.695312 C 256.78125 210.597656 256.273438 209.527344 255.714844 208.480469 C 255.15625 207.433594 254.546875 206.414062 253.886719 205.429688 C 253.226562 204.441406 252.519531 203.488281 251.765625 202.570312 C 251.015625 201.65625 250.21875 200.777344 249.378906 199.9375 C 248.539062 199.097656 247.660156 198.300781 246.742188 197.546875 C 245.824219 196.796875 244.875 196.089844 243.886719 195.429688 C 242.898438 194.769531 241.882812 194.160156 240.835938 193.601562 C 239.789062 193.039062 238.71875 192.53125 237.621094 192.078125 C 236.523438 191.625 235.410156 191.222656 234.273438 190.878906 C 233.136719 190.535156 231.988281 190.246094 230.824219 190.011719 C 229.660156 189.78125 228.484375 189.605469 227.304688 189.488281 C 226.125 189.371094 224.9375 189.3125 223.753906 189.3125 Z M 239.472656 219.453125 C 239.777344 219.117188 240.003906 218.738281 240.152344 218.316406 C 240.296875 217.890625 240.355469 217.453125 240.324219 217.003906 C 240.292969 216.554688 240.175781 216.128906 239.972656 215.730469 C 239.765625 215.328125 239.492188 214.984375 239.144531 214.695312 C 238.800781 214.40625 238.410156 214.199219 237.980469 214.070312 C 237.550781 213.941406 237.109375 213.902344 236.664062 213.953125 C 236.214844 214.003906 235.796875 214.140625 235.40625 214.359375 C 235.011719 214.582031 234.679688 214.875 234.410156 215.230469 L 220.230469 232.242188 L 212.890625 224.902344 C 212.574219 224.640625 212.222656 224.441406 211.832031 224.308594 C 211.441406 224.179688 211.039062 224.121094 210.628906 224.140625 C 210.21875 224.160156 209.824219 224.25 209.445312 224.417969 C 209.070312 224.582031 208.734375 224.8125 208.445312 225.105469 C 208.152344 225.394531 207.925781 225.730469 207.757812 226.105469 C 207.59375 226.484375 207.5 226.875 207.480469 227.289062 C 207.460938 227.699219 207.519531 228.101562 207.652344 228.492188 C 207.78125 228.882812 207.980469 229.234375 208.242188 229.550781 L 218.136719 239.445312 C 218.300781 239.605469 218.476562 239.75 218.667969 239.875 C 218.859375 240 219.0625 240.105469 219.277344 240.1875 C 219.492188 240.269531 219.710938 240.332031 219.9375 240.367188 C 220.164062 240.40625 220.390625 240.417969 220.621094 240.40625 C 220.847656 240.398438 221.074219 240.363281 221.296875 240.304688 C 221.519531 240.25 221.730469 240.167969 221.9375 240.066406 C 222.140625 239.964844 222.335938 239.84375 222.515625 239.699219 C 222.695312 239.558594 222.859375 239.398438 223.003906 239.222656 Z M 239.472656 219.453125 " fill-opacity="1" fill-rule="evenodd"/></g></svg>