<svg xmlns="http://www.w3.org/2000/svg" xmlns:xlink="http://www.w3.org/1999/xlink" width="500" zoomAndPan="magnify" viewBox="0 0 375 374.999991" height="500" preserveAspectRatio="xMidYMid meet" version="1.0"><defs><clipPath id="d9f376e1c0"><path d="M 118 161 L 217 161 L 217 262.5 L 118 262.5 Z M 118 161 " clip-rule="nonzero"/></clipPath><clipPath id="bee7d3fa40"><path d="M 188 112.5 L 256.703125 112.5 L 256.703125 183 L 188 183 Z M 188 112.5 " clip-rule="nonzero"/></clipPath></defs><rect x="-37.5" width="450" fill="#ffffff" y="-37.499999" height="449.999989" fill-opacity="1"/><rect x="-37.5" width="450" fill="#ffffff" y="-37.499999" height="449.999989" fill-opacity="1"/><g clip-path="url(#d9f376e1c0)"><path fill="#108fba" d="M 167.691406 229.726562 C 167.019531 229.726562 166.34375 229.6875 165.675781 229.609375 C 165.003906 229.535156 164.339844 229.417969 163.683594 229.265625 C 163.027344 229.113281 162.378906 228.921875 161.746094 228.695312 C 161.109375 228.46875 160.488281 228.207031 159.882812 227.90625 C 159.277344 227.609375 158.691406 227.277344 158.125 226.914062 C 157.558594 226.546875 157.015625 226.148438 156.492188 225.722656 C 155.972656 225.292969 155.476562 224.839844 155.007812 224.355469 C 154.535156 223.867188 154.097656 223.359375 153.6875 222.824219 C 153.273438 222.289062 152.894531 221.730469 152.550781 221.152344 C 152.203125 220.574219 151.890625 219.976562 151.609375 219.363281 C 151.332031 218.75 151.089844 218.121094 150.882812 217.480469 C 150.675781 216.835938 150.507812 216.183594 150.375 215.523438 C 150.242188 214.863281 150.148438 214.195312 150.09375 213.523438 C 150.039062 212.851562 150.023438 212.175781 150.042969 211.5 C 150.066406 210.828125 150.125 210.15625 150.226562 209.488281 C 150.324219 208.820312 150.460938 208.164062 150.636719 207.511719 C 150.808594 206.859375 151.019531 206.21875 151.269531 205.59375 C 151.515625 204.964844 151.800781 204.351562 152.117188 203.757812 C 152.433594 203.164062 152.785156 202.589844 153.171875 202.03125 C 153.554688 201.476562 153.96875 200.949219 154.414062 200.441406 C 154.859375 199.933594 155.328125 199.453125 155.828125 199 C 156.328125 198.546875 156.855469 198.121094 157.402344 197.730469 C 157.949219 197.335938 158.519531 196.976562 159.109375 196.648438 C 159.699219 196.320312 160.304688 196.027344 160.929688 195.769531 C 161.550781 195.511719 162.1875 195.289062 162.835938 195.105469 C 163.484375 194.917969 164.140625 194.769531 164.808594 194.660156 C 165.472656 194.550781 166.144531 194.480469 166.816406 194.445312 C 167.492188 194.414062 168.164062 194.417969 168.835938 194.460938 C 169.511719 194.507812 170.179688 194.589844 170.84375 194.710938 C 171.507812 194.832031 172.160156 194.988281 172.808594 195.183594 C 173.453125 195.378906 174.085938 195.613281 174.703125 195.878906 C 175.324219 196.148438 175.925781 196.453125 176.507812 196.789062 C 177.09375 197.125 177.65625 197.496094 178.199219 197.898438 C 178.742188 198.300781 179.257812 198.730469 179.75 199.191406 C 180.242188 199.652344 180.707031 200.140625 181.144531 200.65625 C 181.578125 201.171875 181.984375 201.707031 182.359375 202.269531 C 182.734375 202.832031 183.078125 203.410156 183.386719 204.011719 C 183.691406 204.609375 183.964844 205.226562 184.203125 205.859375 C 184.441406 206.488281 184.640625 207.132812 184.804688 207.785156 C 184.96875 208.441406 185.097656 209.101562 185.183594 209.773438 C 185.273438 210.441406 185.320312 211.113281 185.332031 211.789062 C 185.34375 212.460938 185.316406 213.132812 185.25 213.804688 C 185.183594 214.476562 185.078125 215.144531 184.9375 215.800781 C 184.792969 216.460938 184.613281 217.109375 184.398438 217.75 C 184.179688 218.390625 183.929688 219.011719 183.640625 219.621094 C 183.351562 220.234375 183.027344 220.824219 182.671875 221.398438 C 182.316406 221.96875 181.929688 222.519531 181.507812 223.050781 C 181.089844 223.578125 180.640625 224.082031 180.164062 224.558594 C 178.507812 226.210938 176.601562 227.484375 174.441406 228.378906 C 172.28125 229.277344 170.03125 229.722656 167.691406 229.726562 Z M 205.164062 216.96875 C 205.386719 215.34375 205.503906 213.714844 205.519531 212.074219 C 205.5 210.386719 205.382812 208.707031 205.164062 207.03125 L 215.804688 198.816406 C 216.035156 198.628906 216.226562 198.40625 216.378906 198.148438 C 216.53125 197.890625 216.636719 197.613281 216.691406 197.320312 C 216.746094 197.027344 216.75 196.730469 216.699219 196.4375 C 216.652344 196.140625 216.554688 195.863281 216.40625 195.605469 L 206.316406 178.140625 C 206.171875 177.875 205.984375 177.648438 205.757812 177.453125 C 205.527344 177.257812 205.273438 177.105469 204.988281 177.003906 C 204.707031 176.902344 204.414062 176.855469 204.113281 176.859375 C 203.8125 176.863281 203.523438 176.917969 203.242188 177.027344 L 190.683594 182.070312 C 188.070312 180.039062 185.226562 178.390625 182.164062 177.132812 L 180.300781 163.769531 C 180.25 163.472656 180.148438 163.191406 179.996094 162.929688 C 179.847656 162.667969 179.65625 162.441406 179.425781 162.246094 C 179.195312 162.054688 178.9375 161.90625 178.65625 161.800781 C 178.371094 161.699219 178.078125 161.648438 177.777344 161.648438 L 157.605469 161.648438 C 157.304688 161.648438 157.011719 161.699219 156.730469 161.800781 C 156.445312 161.90625 156.1875 162.054688 155.957031 162.246094 C 155.726562 162.441406 155.535156 162.667969 155.386719 162.929688 C 155.238281 163.191406 155.136719 163.472656 155.085938 163.769531 L 153.222656 177.132812 C 150.15625 178.390625 147.3125 180.039062 144.695312 182.070312 L 132.140625 177.027344 C 131.863281 176.917969 131.570312 176.863281 131.269531 176.859375 C 130.96875 176.855469 130.679688 176.902344 130.394531 177.003906 C 130.113281 177.105469 129.855469 177.257812 129.628906 177.453125 C 129.398438 177.648438 129.210938 177.875 129.066406 178.140625 L 118.980469 195.578125 C 118.832031 195.839844 118.730469 196.117188 118.679688 196.410156 C 118.628906 196.707031 118.628906 197.003906 118.683594 197.296875 C 118.742188 197.59375 118.84375 197.871094 119 198.125 C 119.15625 198.382812 119.351562 198.605469 119.585938 198.792969 L 130.222656 207.007812 C 130.007812 208.679688 129.886719 210.363281 129.867188 212.050781 C 129.882812 213.6875 130.003906 215.320312 130.222656 216.941406 L 119.585938 225.339844 C 119.351562 225.527344 119.15625 225.75 119 226.003906 C 118.84375 226.261719 118.742188 226.539062 118.683594 226.835938 C 118.628906 227.128906 118.628906 227.425781 118.679688 227.71875 C 118.730469 228.015625 118.832031 228.292969 118.980469 228.554688 L 129.066406 246 C 129.21875 246.257812 129.40625 246.484375 129.636719 246.675781 C 129.863281 246.867188 130.121094 247.015625 130.402344 247.117188 C 130.683594 247.21875 130.972656 247.269531 131.273438 247.269531 C 131.570312 247.265625 131.863281 247.214844 132.140625 247.109375 L 144.699219 242.019531 C 147.300781 244.089844 150.144531 245.757812 153.222656 247.019531 L 155.085938 260.382812 C 155.136719 260.679688 155.238281 260.957031 155.386719 261.21875 C 155.535156 261.480469 155.726562 261.707031 155.957031 261.902344 C 156.1875 262.097656 156.445312 262.246094 156.730469 262.347656 C 157.011719 262.449219 157.304688 262.5 157.605469 262.5 L 177.777344 262.5 C 178.078125 262.5 178.371094 262.449219 178.65625 262.347656 C 178.9375 262.246094 179.195312 262.097656 179.425781 261.902344 C 179.65625 261.707031 179.847656 261.480469 179.996094 261.21875 C 180.148438 260.957031 180.25 260.679688 180.300781 260.382812 L 182.164062 247.007812 C 185.230469 245.726562 188.070312 244.058594 190.683594 242.007812 L 203.242188 247.101562 C 203.523438 247.203125 203.8125 247.257812 204.113281 247.257812 C 204.410156 247.257812 204.703125 247.207031 204.984375 247.105469 C 205.265625 247.003906 205.519531 246.859375 205.75 246.664062 C 205.976562 246.472656 206.167969 246.25 206.316406 245.988281 L 216.402344 228.542969 C 216.550781 228.28125 216.648438 228.003906 216.695312 227.710938 C 216.746094 227.414062 216.742188 227.121094 216.6875 226.824219 C 216.632812 226.53125 216.527344 226.257812 216.375 226 C 216.222656 225.742188 216.03125 225.519531 215.800781 225.328125 Z M 205.164062 216.96875 " fill-opacity="1" fill-rule="nonzero"/></g><g clip-path="url(#bee7d3fa40)"><path fill="#00203a" d="M 222.417969 159.644531 C 221.949219 159.640625 221.484375 159.617188 221.019531 159.5625 C 220.558594 159.507812 220.097656 159.429688 219.644531 159.320312 C 219.1875 159.214844 218.742188 159.082031 218.300781 158.925781 C 217.863281 158.769531 217.433594 158.585938 217.015625 158.378906 C 216.59375 158.171875 216.191406 157.941406 215.796875 157.691406 C 215.40625 157.4375 215.027344 157.160156 214.667969 156.863281 C 214.308594 156.566406 213.964844 156.253906 213.640625 155.917969 C 213.316406 155.582031 213.011719 155.226562 212.726562 154.855469 C 212.441406 154.484375 212.179688 154.101562 211.941406 153.699219 C 211.699219 153.300781 211.484375 152.886719 211.292969 152.460938 C 211.101562 152.035156 210.933594 151.601562 210.789062 151.15625 C 210.648438 150.710938 210.53125 150.257812 210.441406 149.800781 C 210.347656 149.34375 210.285156 148.882812 210.246094 148.414062 C 210.207031 147.949219 210.199219 147.484375 210.214844 147.015625 C 210.230469 146.550781 210.269531 146.085938 210.339844 145.625 C 210.410156 145.164062 210.503906 144.707031 210.625 144.253906 C 210.746094 143.804688 210.894531 143.363281 211.066406 142.925781 C 211.238281 142.492188 211.433594 142.070312 211.652344 141.660156 C 211.875 141.246094 212.117188 140.847656 212.382812 140.464844 C 212.648438 140.082031 212.9375 139.714844 213.242188 139.363281 C 213.550781 139.011719 213.878906 138.679688 214.226562 138.367188 C 214.570312 138.054688 214.933594 137.761719 215.316406 137.488281 C 215.695312 137.21875 216.089844 136.96875 216.496094 136.742188 C 216.90625 136.515625 217.324219 136.3125 217.757812 136.132812 C 218.1875 135.957031 218.628906 135.800781 219.078125 135.675781 C 219.527344 135.546875 219.980469 135.445312 220.441406 135.367188 C 220.902344 135.292969 221.367188 135.242188 221.832031 135.222656 C 222.300781 135.199219 222.765625 135.203125 223.230469 135.234375 C 223.699219 135.265625 224.160156 135.320312 224.621094 135.40625 C 225.078125 135.488281 225.53125 135.601562 225.980469 135.734375 C 226.425781 135.871094 226.863281 136.03125 227.292969 136.21875 C 227.71875 136.40625 228.136719 136.613281 228.542969 136.847656 C 228.945312 137.082031 229.335938 137.339844 229.710938 137.617188 C 230.085938 137.894531 230.441406 138.195312 230.78125 138.515625 C 231.125 138.832031 231.445312 139.171875 231.746094 139.527344 C 232.046875 139.882812 232.328125 140.257812 232.589844 140.644531 C 232.847656 141.035156 233.082031 141.433594 233.296875 141.851562 C 233.507812 142.265625 233.699219 142.691406 233.863281 143.128906 C 234.027344 143.566406 234.164062 144.011719 234.277344 144.464844 C 234.390625 144.917969 234.476562 145.375 234.539062 145.839844 C 234.597656 146.304688 234.632812 146.769531 234.640625 147.234375 C 234.648438 147.703125 234.628906 148.167969 234.582031 148.632812 C 234.535156 149.097656 234.464844 149.558594 234.363281 150.015625 C 234.265625 150.46875 234.140625 150.917969 233.992188 151.363281 C 233.839844 151.804688 233.664062 152.234375 233.464844 152.65625 C 233.265625 153.078125 233.042969 153.488281 232.792969 153.886719 C 232.546875 154.28125 232.277344 154.664062 231.988281 155.027344 C 231.699219 155.394531 231.386719 155.742188 231.054688 156.070312 C 229.910156 157.214844 228.589844 158.097656 227.09375 158.714844 C 225.59375 159.335938 224.035156 159.644531 222.417969 159.644531 Z M 248.355469 150.8125 C 248.507812 149.6875 248.589844 148.558594 248.597656 147.425781 C 248.585938 146.257812 248.503906 145.09375 248.355469 143.9375 L 255.722656 138.214844 C 255.882812 138.082031 256.015625 137.925781 256.121094 137.75 C 256.230469 137.570312 256.300781 137.378906 256.339844 137.171875 C 256.378906 136.96875 256.378906 136.761719 256.34375 136.558594 C 256.308594 136.351562 256.242188 136.160156 256.140625 135.980469 L 249.160156 123.929688 C 249.058594 123.746094 248.929688 123.585938 248.769531 123.449219 C 248.609375 123.3125 248.433594 123.207031 248.234375 123.136719 C 248.039062 123.066406 247.832031 123.035156 247.625 123.039062 C 247.414062 123.042969 247.210938 123.082031 247.015625 123.160156 L 238.324219 126.648438 C 236.515625 125.238281 234.554688 124.09375 232.433594 123.214844 L 231.144531 113.96875 C 231.109375 113.761719 231.039062 113.570312 230.9375 113.386719 C 230.832031 113.207031 230.699219 113.050781 230.542969 112.914062 C 230.382812 112.78125 230.203125 112.675781 230.007812 112.605469 C 229.8125 112.535156 229.609375 112.5 229.398438 112.5 L 215.433594 112.5 C 215.226562 112.5 215.023438 112.535156 214.828125 112.605469 C 214.628906 112.675781 214.453125 112.777344 214.292969 112.914062 C 214.132812 113.046875 214 113.207031 213.898438 113.386719 C 213.792969 113.570312 213.722656 113.761719 213.6875 113.96875 L 212.398438 123.214844 C 210.277344 124.085938 208.3125 125.226562 206.5 126.636719 L 197.804688 123.144531 C 197.613281 123.066406 197.410156 123.027344 197.199219 123.023438 C 196.992188 123.019531 196.785156 123.050781 196.589844 123.125 C 196.390625 123.195312 196.214844 123.296875 196.054688 123.433594 C 195.894531 123.570312 195.765625 123.730469 195.664062 123.914062 L 188.695312 135.992188 C 188.589844 136.171875 188.519531 136.363281 188.484375 136.570312 C 188.449219 136.773438 188.449219 136.976562 188.488281 137.183594 C 188.527344 137.386719 188.601562 137.578125 188.707031 137.753906 C 188.816406 137.933594 188.949219 138.085938 189.113281 138.214844 L 196.476562 143.929688 C 196.328125 145.085938 196.246094 146.25 196.234375 147.417969 C 196.246094 148.550781 196.328125 149.679688 196.476562 150.804688 L 189.113281 156.59375 C 188.949219 156.722656 188.8125 156.875 188.703125 157.054688 C 188.59375 157.234375 188.519531 157.425781 188.484375 157.632812 C 188.445312 157.835938 188.445312 158.042969 188.480469 158.25 C 188.515625 158.457031 188.589844 158.648438 188.695312 158.828125 L 195.679688 170.90625 C 195.78125 171.089844 195.914062 171.246094 196.074219 171.378906 C 196.234375 171.511719 196.410156 171.617188 196.609375 171.6875 C 196.804688 171.757812 197.007812 171.789062 197.214844 171.789062 C 197.425781 171.785156 197.625 171.75 197.820312 171.675781 L 206.515625 168.148438 C 208.316406 169.582031 210.28125 170.734375 212.414062 171.605469 L 213.707031 180.855469 C 213.742188 181.0625 213.8125 181.257812 213.914062 181.4375 C 214.019531 181.617188 214.152344 181.777344 214.3125 181.910156 C 214.46875 182.046875 214.648438 182.148438 214.84375 182.21875 C 215.042969 182.289062 215.246094 182.324219 215.453125 182.324219 L 229.417969 182.324219 C 229.625 182.324219 229.828125 182.289062 230.023438 182.21875 C 230.222656 182.148438 230.398438 182.046875 230.558594 181.910156 C 230.71875 181.777344 230.851562 181.617188 230.957031 181.4375 C 231.058594 181.257812 231.128906 181.0625 231.164062 180.855469 L 232.457031 171.605469 C 234.578125 170.722656 236.546875 169.570312 238.355469 168.148438 L 247.050781 171.675781 C 247.246094 171.75 247.445312 171.785156 247.65625 171.789062 C 247.863281 171.789062 248.066406 171.757812 248.261719 171.6875 C 248.457031 171.617188 248.636719 171.511719 248.796875 171.378906 C 248.957031 171.246094 249.089844 171.089844 249.191406 170.90625 L 256.175781 158.828125 C 256.277344 158.648438 256.347656 158.453125 256.378906 158.25 C 256.414062 158.042969 256.414062 157.839844 256.375 157.632812 C 256.335938 157.429688 256.265625 157.238281 256.15625 157.058594 C 256.050781 156.878906 255.917969 156.722656 255.757812 156.59375 Z M 248.355469 150.8125 " fill-opacity="1" fill-rule="nonzero"/></g></svg>