<svg xmlns="http://www.w3.org/2000/svg" xmlns:xlink="http://www.w3.org/1999/xlink" width="500" zoomAndPan="magnify" viewBox="0 0 375 374.999991" height="500" preserveAspectRatio="xMidYMid meet" version="1.0"><defs><clipPath id="ee7522457a"><path d="M 112.5 112.5 L 262.5 112.5 L 262.5 262.5 L 112.5 262.5 Z M 112.5 112.5 " clip-rule="nonzero"/></clipPath><clipPath id="16c99db5e1"><path d="M 172 232 L 248 232 L 248 262.5 L 172 262.5 Z M 172 232 " clip-rule="nonzero"/></clipPath></defs><rect x="-37.5" width="450" fill="#ffffff" y="-37.499999" height="449.999989" fill-opacity="1"/><rect x="-37.5" width="450" fill="#ffffff" y="-37.499999" height="449.999989" fill-opacity="1"/><g clip-path="url(#ee7522457a)"><path fill="#108fba" d="M 187.5 112.5 C 186.273438 112.5 185.046875 112.53125 183.820312 112.59375 C 182.59375 112.65625 181.371094 112.746094 180.152344 112.867188 C 178.929688 112.992188 177.714844 113.140625 176.5 113.324219 C 175.285156 113.503906 174.078125 113.714844 172.875 113.957031 C 171.671875 114.195312 170.472656 114.464844 169.285156 114.765625 C 168.09375 115.0625 166.914062 115.390625 165.738281 115.75 C 164.5625 116.105469 163.398438 116.492188 162.246094 116.90625 C 161.089844 117.320312 159.945312 117.761719 158.8125 118.230469 C 157.679688 118.703125 156.558594 119.199219 155.449219 119.726562 C 154.339844 120.25 153.242188 120.800781 152.164062 121.382812 C 151.082031 121.960938 150.011719 122.566406 148.960938 123.195312 C 147.910156 123.828125 146.871094 124.484375 145.851562 125.167969 C 144.832031 125.847656 143.828125 126.554688 142.84375 127.285156 C 141.859375 128.015625 140.890625 128.773438 139.945312 129.550781 C 138.996094 130.328125 138.066406 131.128906 137.15625 131.953125 C 136.25 132.777344 135.359375 133.625 134.492188 134.492188 C 133.625 135.359375 132.777344 136.25 131.953125 137.15625 C 131.128906 138.066406 130.328125 138.996094 129.550781 139.945312 C 128.773438 140.890625 128.015625 141.859375 127.285156 142.84375 C 126.554688 143.828125 125.847656 144.832031 125.167969 145.851562 C 124.484375 146.871094 123.828125 147.910156 123.195312 148.960938 C 122.566406 150.011719 121.960938 151.082031 121.382812 152.164062 C 120.800781 153.242188 120.25 154.339844 119.726562 155.449219 C 119.199219 156.558594 118.703125 157.679688 118.230469 158.8125 C 117.761719 159.945312 117.320312 161.089844 116.90625 162.246094 C 116.492188 163.398438 116.105469 164.5625 115.75 165.738281 C 115.390625 166.914062 115.0625 168.09375 114.765625 169.285156 C 114.464844 170.472656 114.195312 171.671875 113.957031 172.875 C 113.714844 174.078125 113.503906 175.285156 113.324219 176.5 C 113.140625 177.714844 112.992188 178.929688 112.867188 180.152344 C 112.746094 181.371094 112.65625 182.59375 112.59375 183.820312 C 112.53125 185.046875 112.5 186.273438 112.5 187.5 L 112.5 218.570312 C 112.539062 219.519531 112.667969 220.457031 112.886719 221.378906 C 113.109375 222.304688 113.417969 223.199219 113.816406 224.058594 C 114.210938 224.921875 114.6875 225.738281 115.246094 226.507812 C 115.800781 227.277344 116.429688 227.984375 117.125 228.632812 C 117.820312 229.277344 118.574219 229.851562 119.382812 230.347656 C 120.191406 230.847656 121.039062 231.261719 121.929688 231.59375 C 122.820312 231.925781 123.734375 232.167969 124.671875 232.320312 C 125.609375 232.472656 126.550781 232.53125 127.5 232.5 L 135 232.5 C 135.492188 232.5 135.980469 232.453125 136.464844 232.355469 C 136.945312 232.261719 137.414062 232.117188 137.871094 231.929688 C 138.324219 231.742188 138.757812 231.507812 139.167969 231.234375 C 139.578125 230.960938 139.953125 230.652344 140.304688 230.304688 C 140.652344 229.953125 140.960938 229.578125 141.234375 229.167969 C 141.507812 228.757812 141.742188 228.324219 141.929688 227.871094 C 142.117188 227.414062 142.261719 226.945312 142.355469 226.464844 C 142.453125 225.980469 142.5 225.492188 142.5 225 L 142.5 186.429688 C 142.5 185.9375 142.453125 185.449219 142.355469 184.964844 C 142.261719 184.480469 142.117188 184.011719 141.929688 183.558594 C 141.742188 183.101562 141.507812 182.671875 141.234375 182.261719 C 140.960938 181.851562 140.652344 181.472656 140.304688 181.125 C 139.953125 180.777344 139.578125 180.464844 139.167969 180.191406 C 138.757812 179.917969 138.324219 179.6875 137.871094 179.5 C 137.414062 179.3125 136.945312 179.167969 136.464844 179.074219 C 135.980469 178.976562 135.492188 178.929688 135 178.929688 L 128.1875 178.929688 C 128.441406 177.160156 128.773438 175.410156 129.183594 173.671875 C 129.589844 171.9375 130.078125 170.222656 130.640625 168.527344 C 131.203125 166.832031 131.839844 165.167969 132.550781 163.53125 C 133.261719 161.894531 134.042969 160.292969 134.898438 158.726562 C 135.753906 157.160156 136.675781 155.632812 137.667969 154.148438 C 138.65625 152.664062 139.710938 151.230469 140.832031 149.839844 C 141.949219 148.449219 143.128906 147.109375 144.367188 145.828125 C 145.605469 144.542969 146.898438 143.316406 148.246094 142.144531 C 149.597656 140.976562 150.992188 139.871094 152.441406 138.824219 C 153.886719 137.78125 155.378906 136.804688 156.914062 135.894531 C 158.449219 134.980469 160.019531 134.140625 161.628906 133.371094 C 163.238281 132.601562 164.878906 131.902344 166.550781 131.277344 C 168.222656 130.65625 169.921875 130.105469 171.640625 129.632812 C 173.363281 129.160156 175.101562 128.765625 176.855469 128.449219 C 178.613281 128.132812 180.378906 127.894531 182.15625 127.734375 C 183.933594 127.578125 185.714844 127.496094 187.5 127.496094 C 189.285156 127.496094 191.066406 127.578125 192.84375 127.734375 C 194.621094 127.894531 196.386719 128.132812 198.144531 128.449219 C 199.898438 128.765625 201.636719 129.160156 203.359375 129.632812 C 205.078125 130.105469 206.777344 130.65625 208.449219 131.277344 C 210.121094 131.902344 211.761719 132.601562 213.371094 133.371094 C 214.980469 134.140625 216.550781 134.980469 218.085938 135.894531 C 219.621094 136.804688 221.113281 137.78125 222.558594 138.824219 C 224.007812 139.871094 225.402344 140.976562 226.753906 142.144531 C 228.101562 143.316406 229.394531 144.542969 230.632812 145.828125 C 231.871094 147.109375 233.050781 148.449219 234.167969 149.839844 C 235.289062 151.230469 236.34375 152.664062 237.332031 154.148438 C 238.324219 155.632812 239.246094 157.160156 240.101562 158.726562 C 240.957031 160.292969 241.738281 161.894531 242.449219 163.53125 C 243.160156 165.167969 243.796875 166.832031 244.359375 168.527344 C 244.921875 170.222656 245.410156 171.9375 245.816406 173.671875 C 246.226562 175.410156 246.558594 177.160156 246.8125 178.929688 L 240 178.929688 C 239.507812 178.929688 239.019531 178.976562 238.535156 179.074219 C 238.054688 179.167969 237.585938 179.3125 237.128906 179.5 C 236.675781 179.6875 236.242188 179.917969 235.832031 180.191406 C 235.421875 180.464844 235.042969 180.777344 234.695312 181.125 C 234.347656 181.472656 234.039062 181.851562 233.765625 182.261719 C 233.492188 182.671875 233.257812 183.101562 233.070312 183.558594 C 232.882812 184.011719 232.738281 184.480469 232.644531 184.964844 C 232.546875 185.449219 232.5 185.9375 232.5 186.429688 L 232.5 232.5 C 232.5 233.484375 232.402344 234.460938 232.210938 235.425781 C 232.019531 236.390625 231.734375 237.332031 231.359375 238.238281 C 230.980469 239.148438 230.519531 240.015625 229.972656 240.832031 C 229.425781 241.652344 228.804688 242.410156 228.105469 243.105469 C 227.410156 243.804688 226.652344 244.425781 225.832031 244.972656 C 225.015625 245.519531 224.148438 245.980469 223.238281 246.359375 C 222.332031 246.734375 221.390625 247.019531 220.425781 247.210938 C 219.460938 247.402344 218.484375 247.5 217.5 247.5 L 202.5 247.5 L 202.5 240 L 172.5 240 L 172.5 262.5 L 217.5 262.5 C 218.480469 262.5 219.460938 262.449219 220.441406 262.351562 C 221.417969 262.253906 222.386719 262.109375 223.351562 261.917969 C 224.3125 261.726562 225.265625 261.488281 226.207031 261.203125 C 227.144531 260.917969 228.070312 260.585938 228.976562 260.207031 C 229.882812 259.832031 230.769531 259.414062 231.636719 258.949219 C 232.503906 258.484375 233.34375 257.980469 234.160156 257.433594 C 234.976562 256.890625 235.765625 256.304688 236.523438 255.679688 C 237.285156 255.058594 238.011719 254.398438 238.703125 253.703125 C 239.398438 253.011719 240.058594 252.285156 240.679688 251.523438 C 241.304688 250.765625 241.890625 249.976562 242.433594 249.160156 C 242.980469 248.34375 243.484375 247.503906 243.949219 246.636719 C 244.414062 245.769531 244.832031 244.882812 245.207031 243.976562 C 245.585938 243.070312 245.917969 242.144531 246.203125 241.207031 C 246.488281 240.265625 246.726562 239.3125 246.917969 238.351562 C 247.109375 237.386719 247.253906 236.417969 247.351562 235.441406 C 247.449219 234.460938 247.5 233.480469 247.5 232.5 C 248.449219 232.53125 249.390625 232.472656 250.328125 232.320312 C 251.265625 232.167969 252.179688 231.925781 253.070312 231.59375 C 253.960938 231.261719 254.808594 230.847656 255.617188 230.347656 C 256.425781 229.851562 257.179688 229.277344 257.875 228.632812 C 258.570312 227.984375 259.199219 227.277344 259.753906 226.507812 C 260.3125 225.738281 260.789062 224.921875 261.183594 224.058594 C 261.582031 223.199219 261.890625 222.304688 262.113281 221.378906 C 262.332031 220.457031 262.460938 219.519531 262.5 218.570312 L 262.5 187.5 C 262.5 186.273438 262.46875 185.046875 262.40625 183.820312 C 262.34375 182.59375 262.253906 181.371094 262.132812 180.152344 C 262.007812 178.929688 261.859375 177.714844 261.675781 176.5 C 261.496094 175.285156 261.285156 174.078125 261.042969 172.875 C 260.804688 171.671875 260.535156 170.472656 260.234375 169.285156 C 259.9375 168.09375 259.609375 166.914062 259.25 165.738281 C 258.894531 164.5625 258.507812 163.398438 258.09375 162.246094 C 257.679688 161.089844 257.238281 159.945312 256.769531 158.8125 C 256.296875 157.679688 255.800781 156.558594 255.273438 155.449219 C 254.75 154.339844 254.199219 153.242188 253.617188 152.164062 C 253.039062 151.082031 252.433594 150.011719 251.804688 148.960938 C 251.171875 147.910156 250.515625 146.871094 249.832031 145.851562 C 249.152344 144.832031 248.445312 143.828125 247.714844 142.84375 C 246.984375 141.859375 246.226562 140.890625 245.449219 139.945312 C 244.671875 138.996094 243.871094 138.066406 243.046875 137.15625 C 242.222656 136.25 241.375 135.359375 240.507812 134.492188 C 239.640625 133.625 238.75 132.777344 237.84375 131.953125 C 236.933594 131.128906 236.003906 130.328125 235.054688 129.550781 C 234.109375 128.773438 233.140625 128.015625 232.15625 127.285156 C 231.171875 126.554688 230.167969 125.847656 229.148438 125.167969 C 228.128906 124.484375 227.089844 123.828125 226.039062 123.195312 C 224.988281 122.566406 223.917969 121.960938 222.835938 121.382812 C 221.757812 120.800781 220.660156 120.25 219.550781 119.726562 C 218.441406 119.199219 217.320312 118.703125 216.1875 118.230469 C 215.054688 117.761719 213.910156 117.320312 212.753906 116.90625 C 211.601562 116.492188 210.4375 116.105469 209.261719 115.75 C 208.085938 115.390625 206.90625 115.0625 205.714844 114.765625 C 204.527344 114.464844 203.328125 114.195312 202.125 113.957031 C 200.921875 113.714844 199.714844 113.503906 198.5 113.324219 C 197.285156 113.140625 196.070312 112.992188 194.847656 112.867188 C 193.628906 112.746094 192.40625 112.65625 191.179688 112.59375 C 189.953125 112.53125 188.726562 112.5 187.5 112.5 Z M 187.5 112.5 " fill-opacity="1" fill-rule="nonzero"/></g><g clip-path="url(#16c99db5e1)"><path fill="#00203a" d="M 232.5 232.5 C 232.5 233.484375 232.402344 234.460938 232.210938 235.425781 C 232.019531 236.390625 231.734375 237.332031 231.359375 238.238281 C 230.980469 239.148438 230.519531 240.015625 229.972656 240.832031 C 229.425781 241.652344 228.804688 242.410156 228.105469 243.105469 C 227.410156 243.804688 226.652344 244.425781 225.832031 244.972656 C 225.015625 245.519531 224.148438 245.980469 223.242188 246.359375 C 222.332031 246.734375 221.390625 247.019531 220.425781 247.210938 C 219.460938 247.402344 218.484375 247.5 217.5 247.5 L 202.5 247.5 L 202.5 240 L 172.5 240 L 172.5 262.5 L 217.5 262.5 C 218.480469 262.5 219.460938 262.449219 220.441406 262.351562 C 221.417969 262.253906 222.386719 262.109375 223.351562 261.917969 C 224.3125 261.726562 225.265625 261.488281 226.207031 261.203125 C 227.144531 260.917969 228.070312 260.585938 228.976562 260.207031 C 229.882812 259.832031 230.769531 259.414062 231.636719 258.949219 C 232.503906 258.484375 233.34375 257.980469 234.160156 257.433594 C 234.976562 256.890625 235.765625 256.304688 236.523438 255.679688 C 237.285156 255.058594 238.011719 254.398438 238.703125 253.703125 C 239.398438 253.011719 240.058594 252.285156 240.679688 251.523438 C 241.304688 250.765625 241.890625 249.976562 242.433594 249.160156 C 242.980469 248.34375 243.484375 247.503906 243.949219 246.636719 C 244.414062 245.769531 244.832031 244.882812 245.207031 243.976562 C 245.585938 243.070312 245.917969 242.144531 246.203125 241.207031 C 246.488281 240.265625 246.726562 239.3125 246.917969 238.351562 C 247.109375 237.386719 247.257812 236.417969 247.351562 235.441406 C 247.449219 234.460938 247.5 233.480469 247.5 232.5 Z M 232.5 232.5 " fill-opacity="1" fill-rule="nonzero"/></g></svg>