<svg xmlns="http://www.w3.org/2000/svg" xmlns:xlink="http://www.w3.org/1999/xlink" width="500" zoomAndPan="magnify" viewBox="0 0 375 374.999991" height="500" preserveAspectRatio="xMidYMid meet" version="1.0"><defs><clipPath id="e5a92be848"><path d="M 112.5 130 L 244 130 L 244 223 L 112.5 223 Z M 112.5 130 " clip-rule="nonzero"/></clipPath><clipPath id="f8f6cded3d"><path d="M 184 166 L 262.5 166 L 262.5 244.703125 L 184 244.703125 Z M 184 166 " clip-rule="nonzero"/></clipPath></defs><rect x="-37.5" width="450" fill="#ffffff" y="-37.499999" height="449.999989" fill-opacity="1"/><rect x="-37.5" width="450" fill="#ffffff" y="-37.499999" height="449.999989" fill-opacity="1"/><g clip-path="url(#e5a92be848)"><path fill="#108fba" d="M 182.867188 222.265625 L 128.90625 222.265625 C 128.367188 222.265625 127.832031 222.238281 127.296875 222.1875 C 126.765625 222.132812 126.234375 222.054688 125.707031 221.949219 C 125.179688 221.84375 124.660156 221.714844 124.144531 221.558594 C 123.628906 221.402344 123.125 221.222656 122.628906 221.015625 C 122.132812 220.808594 121.648438 220.582031 121.171875 220.328125 C 120.699219 220.074219 120.238281 219.796875 119.792969 219.5 C 119.347656 219.199219 118.914062 218.882812 118.5 218.539062 C 118.085938 218.199219 117.6875 217.839844 117.308594 217.457031 C 116.925781 217.078125 116.566406 216.679688 116.226562 216.265625 C 115.886719 215.851562 115.566406 215.417969 115.265625 214.972656 C 114.96875 214.527344 114.691406 214.066406 114.4375 213.59375 C 114.1875 213.117188 113.957031 212.632812 113.75 212.136719 C 113.546875 211.640625 113.363281 211.136719 113.207031 210.621094 C 113.050781 210.109375 112.921875 209.585938 112.816406 209.058594 C 112.710938 208.535156 112.632812 208.003906 112.578125 207.46875 C 112.527344 206.933594 112.5 206.398438 112.5 205.859375 L 112.5 197.65625 L 180.457031 197.65625 C 179.945312 200.367188 179.6875 203.101562 179.691406 205.859375 C 179.679688 211.535156 180.738281 217.003906 182.867188 222.261719 Z M 183.714844 187.492188 L 112.5 187.492188 L 112.5 146.484375 C 112.5 145.945312 112.527344 145.410156 112.578125 144.875 C 112.632812 144.339844 112.710938 143.808594 112.816406 143.285156 C 112.921875 142.757812 113.050781 142.234375 113.207031 141.722656 C 113.363281 141.207031 113.546875 140.703125 113.75 140.207031 C 113.957031 139.710938 114.1875 139.226562 114.4375 138.75 C 114.691406 138.277344 114.96875 137.816406 115.265625 137.371094 C 115.566406 136.925781 115.886719 136.492188 116.226562 136.078125 C 116.566406 135.664062 116.925781 135.265625 117.308594 134.886719 C 117.6875 134.503906 118.085938 134.144531 118.5 133.804688 C 118.914062 133.464844 119.347656 133.144531 119.792969 132.84375 C 120.238281 132.546875 120.699219 132.269531 121.171875 132.015625 C 121.648438 131.761719 122.132812 131.535156 122.628906 131.328125 C 123.125 131.121094 123.628906 130.941406 124.144531 130.785156 C 124.660156 130.628906 125.179688 130.5 125.707031 130.394531 C 126.234375 130.289062 126.765625 130.210938 127.296875 130.15625 C 127.832031 130.105469 128.367188 130.078125 128.90625 130.078125 L 227.347656 130.078125 C 227.882812 130.078125 228.421875 130.105469 228.957031 130.15625 C 229.488281 130.210938 230.019531 130.289062 230.546875 130.394531 C 231.074219 130.5 231.59375 130.628906 232.109375 130.785156 C 232.625 130.941406 233.128906 131.121094 233.625 131.328125 C 234.121094 131.53125 234.605469 131.761719 235.082031 132.015625 C 235.554688 132.269531 236.015625 132.546875 236.460938 132.84375 C 236.90625 133.140625 237.339844 133.460938 237.753906 133.800781 C 238.167969 134.144531 238.566406 134.503906 238.945312 134.882812 C 239.328125 135.265625 239.6875 135.660156 240.027344 136.078125 C 240.371094 136.492188 240.6875 136.921875 240.988281 137.371094 C 241.285156 137.816406 241.5625 138.277344 241.816406 138.75 C 242.070312 139.222656 242.296875 139.710938 242.503906 140.207031 C 242.710938 140.703125 242.890625 141.207031 243.046875 141.722656 C 243.203125 142.234375 243.332031 142.757812 243.4375 143.285156 C 243.542969 143.808594 243.621094 144.339844 243.675781 144.875 C 243.726562 145.410156 243.753906 145.945312 243.753906 146.484375 L 243.753906 167.101562 C 238.609375 164.390625 233.140625 162.785156 227.347656 162.277344 L 227.347656 158.800781 C 227.347656 158.53125 227.320312 158.265625 227.269531 158 C 227.214844 157.738281 227.136719 157.480469 227.035156 157.230469 C 226.929688 156.984375 226.804688 156.746094 226.65625 156.523438 C 226.503906 156.300781 226.335938 156.09375 226.144531 155.902344 C 225.953125 155.710938 225.746094 155.542969 225.523438 155.394531 C 225.300781 155.242188 225.0625 155.117188 224.816406 155.015625 C 224.566406 154.910156 224.3125 154.832031 224.046875 154.78125 C 223.78125 154.726562 223.515625 154.699219 223.246094 154.699219 L 206.835938 154.699219 C 206.566406 154.699219 206.296875 154.726562 206.035156 154.78125 C 205.769531 154.832031 205.515625 154.910156 205.265625 155.015625 C 205.015625 155.117188 204.78125 155.242188 204.558594 155.394531 C 204.332031 155.542969 204.125 155.710938 203.9375 155.902344 C 203.746094 156.09375 203.574219 156.300781 203.425781 156.523438 C 203.277344 156.746094 203.152344 156.984375 203.046875 157.230469 C 202.945312 157.480469 202.867188 157.738281 202.8125 158 C 202.761719 158.265625 202.734375 158.53125 202.734375 158.800781 L 202.734375 167.003906 C 202.734375 167.109375 202.734375 167.210938 202.734375 167.3125 C 198.558594 169.570312 194.84375 172.421875 191.59375 175.878906 C 188.339844 179.332031 185.710938 183.207031 183.707031 187.511719 Z M 183.714844 187.492188 " fill-opacity="1" fill-rule="nonzero"/></g><g clip-path="url(#f8f6cded3d)"><path fill="#00203a" d="M 223.4375 244.925781 C 221.515625 244.925781 219.605469 244.785156 217.707031 244.503906 C 215.804688 244.222656 213.9375 243.800781 212.097656 243.242188 C 210.261719 242.6875 208.472656 241.996094 206.734375 241.175781 C 205 240.355469 203.332031 239.410156 201.734375 238.34375 C 200.136719 237.277344 198.628906 236.097656 197.203125 234.808594 C 195.78125 233.515625 194.457031 232.128906 193.238281 230.644531 C 192.019531 229.160156 190.917969 227.59375 189.929688 225.945312 C 188.941406 224.296875 188.082031 222.585938 187.347656 220.8125 C 186.613281 219.035156 186.011719 217.21875 185.542969 215.355469 C 185.078125 213.488281 184.75 211.601562 184.5625 209.691406 C 184.375 207.777344 184.324219 205.863281 184.421875 203.945312 C 184.515625 202.027344 184.75 200.125 185.125 198.242188 C 185.5 196.355469 186.011719 194.507812 186.65625 192.699219 C 187.304688 190.890625 188.082031 189.140625 188.988281 187.445312 C 189.894531 185.753906 190.917969 184.132812 192.0625 182.589844 C 193.207031 181.046875 194.460938 179.597656 195.816406 178.238281 C 196.722656 177.335938 197.667969 176.476562 198.660156 175.667969 C 199.648438 174.855469 200.671875 174.09375 201.738281 173.382812 C 202.800781 172.675781 203.898438 172.019531 205.023438 171.414062 C 206.152344 170.8125 207.308594 170.265625 208.488281 169.777344 C 209.671875 169.289062 210.875 168.859375 212.097656 168.488281 C 213.324219 168.117188 214.5625 167.804688 215.816406 167.558594 C 217.070312 167.308594 218.335938 167.121094 219.609375 166.996094 C 220.882812 166.871094 222.15625 166.808594 223.4375 166.808594 C 224.714844 166.808594 225.992188 166.871094 227.265625 166.996094 C 228.535156 167.121094 229.800781 167.308594 231.054688 167.558594 C 232.308594 167.808594 233.546875 168.121094 234.773438 168.492188 C 235.996094 168.863281 237.199219 169.292969 238.378906 169.78125 C 239.5625 170.273438 240.71875 170.820312 241.84375 171.421875 C 242.972656 172.023438 244.070312 172.679688 245.132812 173.390625 C 246.195312 174.101562 247.222656 174.863281 248.210938 175.675781 C 249.199219 176.488281 250.144531 177.34375 251.050781 178.25 C 251.953125 179.152344 252.8125 180.101562 253.625 181.089844 C 254.433594 182.078125 255.195312 183.101562 255.90625 184.167969 C 256.617188 185.230469 257.273438 186.324219 257.878906 187.453125 C 258.480469 188.582031 259.027344 189.738281 259.515625 190.917969 C 260.003906 192.101562 260.4375 193.304688 260.808594 194.527344 C 261.179688 195.75 261.488281 196.988281 261.738281 198.246094 C 261.988281 199.5 262.175781 200.761719 262.300781 202.035156 C 262.425781 203.308594 262.492188 204.582031 262.492188 205.863281 C 262.492188 207.140625 262.429688 208.417969 262.304688 209.691406 C 262.179688 210.964844 261.992188 212.226562 261.742188 213.480469 C 261.492188 214.738281 261.183594 215.976562 260.8125 217.199219 C 260.441406 218.425781 260.011719 219.625 259.519531 220.808594 C 259.03125 221.992188 258.484375 223.144531 257.882812 224.273438 C 257.28125 225.402344 256.625 226.496094 255.914062 227.5625 C 255.203125 228.625 254.441406 229.652344 253.632812 230.640625 C 252.820312 231.628906 251.964844 232.578125 251.058594 233.480469 C 249.25 235.300781 247.28125 236.925781 245.148438 238.355469 C 243.015625 239.78125 240.765625 240.988281 238.394531 241.96875 C 236.023438 242.953125 233.582031 243.691406 231.0625 244.1875 C 228.546875 244.6875 226.003906 244.933594 223.4375 244.925781 Z M 229.003906 195.875 C 228.28125 195.84375 227.574219 195.917969 226.878906 196.105469 C 226.183594 196.289062 225.527344 196.574219 224.921875 196.960938 C 224.3125 197.34375 223.773438 197.8125 223.308594 198.363281 C 222.839844 198.910156 222.46875 199.519531 222.1875 200.183594 C 221.53125 201.6875 221.21875 203.265625 221.25 204.90625 C 221.21875 206.554688 221.53125 208.136719 222.1875 209.648438 C 222.480469 210.308594 222.859375 210.910156 223.324219 211.460938 C 223.792969 212.011719 224.328125 212.484375 224.933594 212.875 C 225.539062 213.269531 226.1875 213.570312 226.878906 213.773438 C 227.570312 213.980469 228.277344 214.082031 229 214.082031 C 229.71875 214.082031 230.425781 213.980469 231.117188 213.773438 C 231.8125 213.570312 232.457031 213.269531 233.0625 212.875 C 233.667969 212.484375 234.203125 212.011719 234.671875 211.460938 C 235.140625 210.910156 235.519531 210.308594 235.8125 209.648438 C 236.472656 208.136719 236.785156 206.554688 236.753906 204.90625 C 236.78125 203.261719 236.46875 201.6875 235.8125 200.183594 C 235.53125 199.515625 235.160156 198.910156 234.695312 198.359375 C 234.230469 197.808594 233.691406 197.339844 233.082031 196.953125 C 232.472656 196.566406 231.820312 196.28125 231.125 196.09375 C 230.429688 195.90625 229.71875 195.828125 229 195.859375 Z M 211.269531 195.875 C 210.546875 195.839844 209.835938 195.917969 209.140625 196.101562 C 208.441406 196.285156 207.789062 196.570312 207.175781 196.957031 C 206.566406 197.339844 206.027344 197.808594 205.558594 198.359375 C 205.09375 198.910156 204.71875 199.515625 204.4375 200.183594 C 203.785156 201.6875 203.46875 203.265625 203.5 204.90625 C 203.46875 206.554688 203.78125 208.136719 204.4375 209.648438 C 204.730469 210.308594 205.109375 210.910156 205.578125 211.460938 C 206.046875 212.011719 206.582031 212.484375 207.1875 212.875 C 207.789062 213.269531 208.4375 213.570312 209.128906 213.773438 C 209.820312 213.980469 210.527344 214.082031 211.25 214.082031 C 211.972656 214.082031 212.679688 213.980469 213.371094 213.773438 C 214.0625 213.570312 214.710938 213.269531 215.316406 212.875 C 215.917969 212.484375 216.457031 212.011719 216.921875 211.460938 C 217.390625 210.910156 217.769531 210.308594 218.0625 209.648438 C 218.722656 208.136719 219.035156 206.554688 219 204.90625 C 219.03125 203.265625 218.71875 201.6875 218.0625 200.183594 C 217.78125 199.519531 217.410156 198.910156 216.941406 198.363281 C 216.476562 197.8125 215.941406 197.347656 215.332031 196.960938 C 214.722656 196.574219 214.070312 196.289062 213.375 196.105469 C 212.679688 195.917969 211.96875 195.84375 211.25 195.875 Z M 197.359375 199.824219 L 197.359375 213.675781 L 200.6875 213.675781 L 200.6875 196.171875 L 198.699219 196.171875 L 194.457031 198.050781 L 194.457031 200.484375 L 197.34375 199.832031 Z M 239.285156 205.09375 L 239.285156 207.769531 L 243.976562 207.769531 L 243.976562 212.09375 L 246.699219 212.09375 L 246.699219 207.773438 L 251.371094 207.773438 L 251.371094 205.097656 L 246.699219 205.097656 L 246.699219 200.773438 L 243.976562 200.773438 L 243.976562 205.09375 Z M 229.007812 211.097656 C 228.367188 211.105469 227.761719 210.964844 227.1875 210.675781 C 226.617188 210.382812 226.144531 209.972656 225.777344 209.449219 C 224.859375 208.078125 224.449219 206.574219 224.539062 204.929688 C 224.445312 203.285156 224.859375 201.777344 225.777344 200.40625 C 225.960938 200.152344 226.171875 199.921875 226.410156 199.714844 C 226.652344 199.511719 226.910156 199.335938 227.191406 199.191406 C 227.472656 199.050781 227.765625 198.941406 228.074219 198.867188 C 228.378906 198.792969 228.691406 198.757812 229.007812 198.757812 C 229.320312 198.757812 229.632812 198.792969 229.9375 198.867188 C 230.246094 198.941406 230.539062 199.050781 230.820312 199.191406 C 231.101562 199.335938 231.359375 199.511719 231.601562 199.714844 C 231.839844 199.921875 232.050781 200.152344 232.238281 200.40625 C 233.160156 201.773438 233.574219 203.28125 233.484375 204.929688 C 233.574219 206.574219 233.15625 208.082031 232.238281 209.449219 C 231.867188 209.972656 231.394531 210.382812 230.820312 210.671875 C 230.25 210.964844 229.640625 211.105469 229 211.097656 Z M 211.273438 211.097656 C 210.632812 211.105469 210.023438 210.964844 209.449219 210.675781 C 208.875 210.382812 208.40625 209.972656 208.035156 209.449219 C 207.121094 208.078125 206.710938 206.570312 206.800781 204.929688 C 206.710938 203.285156 207.121094 201.777344 208.035156 200.40625 C 208.21875 200.152344 208.429688 199.921875 208.671875 199.714844 C 208.910156 199.511719 209.171875 199.335938 209.453125 199.191406 C 209.730469 199.050781 210.027344 198.941406 210.332031 198.867188 C 210.640625 198.792969 210.949219 198.757812 211.265625 198.757812 C 211.582031 198.757812 211.894531 198.792969 212.199219 198.867188 C 212.507812 198.941406 212.800781 199.050781 213.082031 199.191406 C 213.363281 199.335938 213.621094 199.511719 213.863281 199.714844 C 214.101562 199.921875 214.3125 200.152344 214.5 200.40625 C 215.421875 201.773438 215.835938 203.28125 215.746094 204.929688 C 215.835938 206.574219 215.417969 208.082031 214.5 209.449219 C 214.125 209.976562 213.652344 210.382812 213.078125 210.675781 C 212.503906 210.96875 211.894531 211.109375 211.25 211.097656 Z M 211.273438 211.097656 " fill-opacity="1" fill-rule="nonzero"/></g></svg>