<svg width="130" height="130" xmlns="http://www.w3.org/2000/svg">
    <defs>
        <linearGradient x1="0%" y1="0%" x2="101.687%" y2="100%" id="a">
            <stop stop-color="#24C0E7" offset="0%"/>
            <stop stop-color="#31E7C5" offset="100%"/>
        </linearGradient>
    </defs>
    <g fill="none" fill-rule="evenodd">
        <circle fill="url(#a)" fill-rule="nonzero" cx="65" cy="65" r="65"/>
        <path fill="#FFF" d="M52.796 76.747h19.903"/>
        <path stroke="#FFF" stroke-width="2.47" stroke-linecap="round" stroke-linejoin="round" d="M52.796 76.747h19.903"/>
        <path fill="#FFF" d="M47.123 34.17h29.942"/>
        <path stroke="#FFF" stroke-width="1.469" stroke-linecap="round" stroke-linejoin="round" d="M47.123 34.17h29.942"/>
        <path d="M65.882 108s-1.654-4.862-3.692-6.922c-2.656-2.686-8.342-10.005-8.51-17.498M70.935 93.38c-.76-10.422 7.382-20.735 7.382-20.735L74.6 56.596a3.664 3.664 0 0 1 6.932-2.283l7.388 17.06a15.983 15.983 0 0 1 1.169 8.515s-2.436 13.334-2.436 17.834c0 3.202 1.42 10.278 1.42 10.278m-41.95-53.321V30.927A2.927 2.927 0 0 1 50.051 28h24.087a2.927 2.927 0 0 1 2.927 2.927v18.397" stroke="#FFF" stroke-width="2.469" stroke-linecap="round" stroke-linejoin="round"/>
        <path fill="#FFF" d="M72.441 83.61H53.679"/>
        <path stroke="#FFF" stroke-width="2.469" stroke-linecap="round" stroke-linejoin="round" d="M72.441 83.61H53.679M47.12 50.836s-6.793-3.882-6.065-7.643c.728-3.76 6.065-1.334 6.065-1.334v8.977zM47.696 78.03s-1.951-.311-3.32.746c-1.368 1.057-2.386 3.103-.748 5.88.749 1.27 5.519 5.228 7.181 2.798 1.814-2.651-3.414-7.227-3.414-7.227l.3-2.197z"/>
        <path d="M47.13 67.168s-2.024-.322-3.444.774c-1.42 1.097-2.273 3.839-1.097 6.388.641 1.389 5.91 5.561 7.642 2.762 1.733-2.8-3.1-8.31-3.1-8.31v-1.614z" stroke="#FFF" stroke-width="2.469" stroke-linecap="round" stroke-linejoin="round"/>
        <path d="M47.13 56.105s-2.024-.323-3.444.774-1.939 4.172-1.097 6.387c.544 1.43 5.58 6.162 7.517 3.178 1.937-2.984-2.976-8.726-2.976-8.726v-1.613z" stroke="#FFF" stroke-width="2.469" stroke-linecap="round" stroke-linejoin="round"/>
        <g fill="#FFF" opacity=".6">
            <path d="M51.385 46.264h1.53v-7.65h-1.53zM51.385 50.854h1.53v-1.53h-1.53zM51.385 60.034h1.53v-7.65h-1.53zM52.915 40.144h1.53v-1.53h-1.53zM52.915 46.264h1.53v-1.53h-1.53zM52.915 50.854h1.53v-3.06h-1.53zM52.915 53.914h1.53v-1.53h-1.53zM52.915 60.034h1.53v-1.53h-1.53zM54.445 40.144h1.53v-1.53h-1.53zM54.445 43.204h1.53v-1.53h-1.53zM54.445 46.264h1.53v-1.53h-1.53zM54.445 49.324h1.53v-1.53h-1.53zM54.445 53.914h1.53v-1.53h-1.53zM54.445 56.974h1.53v-1.53h-1.53zM54.445 60.034h1.53v-1.53h-1.53zM55.975 40.144h1.53v-1.53h-1.53zM55.975 46.264h1.53v-1.53h-1.53zM55.975 50.854h1.53v-3.06h-1.53zM55.975 53.914h1.53v-1.53h-1.53zM55.975 60.034h1.53v-1.53h-1.53z"/>
            <path d="M57.504 47.794h1.53v-9.18h-1.53zM57.504 60.034h1.53v-7.65h-1.53zM59.034 50.854h1.53v-1.53h-1.53zM60.564 40.144h1.53v-1.53h-1.53zM60.564 44.734h1.53v-3.06h-1.53zM59.034 46.264h1.53v-1.53h-1.53zM60.564 52.384h1.53v-6.12h-1.53zM60.564 56.974h1.53v-3.06h-1.53zM60.564 60.034h1.53v-1.53h-1.53zM62.094 41.674h1.53v-1.53h-1.53zM63.624 40.144h1.53v-1.53h-1.53zM62.094 43.204h1.53v-1.53h-1.53zM62.094 46.264h1.53v-1.53h-1.53zM62.094 49.324h1.53v-1.53h-1.53zM62.094 53.914h1.53v-3.06h-1.53zM59.034 55.444h1.53v-1.53h-1.53zM71.274 55.444h1.53v-1.53h-1.53zM62.094 58.504h1.53v-3.06h-1.53z"/>
            <path d="M63.624 49.324h1.53v-3.06h-1.53zM63.624 53.914h1.53v-1.53h-1.53zM63.624 60.034h1.53v-1.53h-1.53zM65.154 46.264h1.53v-7.65h-1.53zM65.154 50.854h1.53v-1.53h-1.53zM65.154 56.974h1.53v-4.59h-1.53zM65.154 60.034h1.53v-1.53h-1.53zM66.684 40.144h1.53v-1.53h-1.53zM66.684 46.264h1.53v-1.53h-1.53zM66.684 49.324h1.53v-1.53h-1.53zM66.684 53.914h1.53v-1.53h-1.53zM66.684 58.504h1.53v-3.06h-1.53zM68.214 40.144h1.53v-1.53h-1.53zM68.214 43.204h1.53v-1.53h-1.53zM68.214 46.264h1.53v-1.53h-1.53zM68.214 56.974h1.53v-7.65h-1.53zM68.214 60.034h1.53v-1.53h-1.53zM69.744 40.144h1.53v-1.53h-1.53zM69.744 46.264h1.53v-1.53h-1.53z"/>
            <path d="M69.744 49.324h1.53v-3.06h-1.53zM69.744 60.034h1.53v-1.53h-1.53zM71.274 46.264h1.53v-7.65h-1.53zM71.274 49.324h1.53v-1.53h-1.53zM71.274 53.914h1.53v-3.06h-1.53zM71.274 58.504h1.53v-1.53h-1.53z"/>
        </g>
        <path d="M54.599 71.296h15.956c.93 0 1.684-.754 1.684-1.684v-2.474c0-.93-.754-1.684-1.684-1.684H54.6c-.93 0-1.684.754-1.684 1.684v2.474c0 .93.754 1.684 1.684 1.684z" stroke="#FFF" stroke-width="1.469" stroke-linecap="round" stroke-linejoin="round"/>
    </g>
</svg>
