<svg xmlns="http://www.w3.org/2000/svg" width="130" height="130" xmlns:v="https://vecta.io/nano"><defs><linearGradient id="A" x1="0%" x2="101.687%" y1="0%" y2="100%"><stop offset="0%" stop-color="#af6df9"/><stop offset="100%" stop-color="#7e3af3"/></linearGradient></defs><circle cx="65" cy="65" r="65" fill="url(#A)"/><path d="M83.23 76.144H58.47a4.73 4.73 0 0 0-4.718 4.718V94.17a4.73 4.73 0 0 0 4.718 4.72h24.76c2.599 0 4.72-2.122 4.72-4.72V80.862a4.73 4.73 0 0 0-4.72-4.718zm-24.76 1.643h24.761c1.59 0 2.916 1.22 3.075 2.81h-30.91c.158-1.59 1.43-2.81 3.074-2.81zm27.836 16.436c0 1.697-1.378 3.129-3.128 3.129H58.417c-1.696 0-3.128-1.379-3.128-3.129V84.84h30.964v9.384h.053zm-2.015-5.46H57.357v2.969h26.934v-2.97zM43.2 93.375c-1.43 0-2.597 1.167-2.597 2.598s1.166 2.598 2.598 2.598 2.598-1.166 2.598-2.598c0-1.484-1.167-2.598-2.598-2.598zm55.619-7.529h-8.06v2.863l10.87-.12V61.35c-.955.583-1.909.954-2.863 1.113v23.382h.053zM63.136 48.52H46.223v16.118l10.763.796h6.203V48.52h-.053zm37.167-13.043H40.921c-.795 0-1.432.636-1.432 1.432V64.16l2.863.212V44.968H98.82v19.935c1.06.425 2.068 1.114 2.757 2.068.053.053.053.106.106.106V36.91c.053-.743-.636-1.432-1.379-1.432zM43.89 41.734a1.54 1.54 0 0 1-1.538-1.538 1.54 1.54 0 0 1 1.538-1.538 1.54 1.54 0 0 1 1.538 1.538c0 .901-.69 1.538-1.538 1.538zm4.878 0a1.54 1.54 0 0 1-1.538-1.538 1.54 1.54 0 0 1 1.538-1.538 1.54 1.54 0 0 1 1.537 1.538c0 .901-.689 1.538-1.537 1.538zm4.878 0a1.54 1.54 0 0 1-1.538-1.538 1.54 1.54 0 0 1 1.538-1.538 1.54 1.54 0 0 1 1.537 1.538c0 .901-.689 1.538-1.537 1.538zm-2.81 51.482h-4.72c.531.583.902 1.273 1.008 2.068h3.818c-.053-.371-.106-.69-.106-1.06v-1.008zm17.496-37.803h23.965a.76.76 0 0 0 .743-.743.76.76 0 0 0-.743-.742H68.332a.76.76 0 0 0-.742.742c0 .425.318.743.742.743zm6.257 14.156L36.89 66.812l-1.325-3.817c-.106-.372-.424-.584-.796-.69l-10.072-1.908c-.584-.106-1.114.265-1.22.848s.265 1.113.849 1.22l9.49 1.802 3.234 9.226 4.136 11.876c-1.326 1.485-4.4 5.25-3.34 7.794.265.69.795 1.22 1.537 1.538.212-.69.583-1.326 1.114-1.803-.425-.16-.69-.318-.796-.583-.477-1.167 1.485-3.977 3.076-5.726l8.059-.319v-1.96l-2.81.106v-1.909h2.81v-1.06h-2.81v-3.288h3.34c.159-.37.318-.689.53-1.06h-3.87v-3.711h4.135v3.18c.318-.423.636-.848 1.06-1.219v-2.014h3.924c.424-.053.848-.16 1.325-.16h16.49l.583-2.438c.053-.319 0-.584-.16-.849-.211-.106-.476-.265-.794-.318zM41.822 81.021l-1.007-2.863h1.007v2.863zm0-3.87h-1.325l-1.273-3.711h2.651v3.711h-.053zm0-4.772H38.8l-1.166-3.446 4.188.318v3.128zm5.196 12.089l-3.923.159-.212-.583v-1.538h4.135v1.962zm0-3.022h-4.135v-3.288h4.135v3.288zm0-4.295h-4.135V73.44h4.135v3.711zm0-4.772h-4.135v-3.022l4.135.318v2.704zm5.143 0h-4.135v-2.65l4.135.317v2.333zm5.196 0h-4.136V70.1l4.136.318v1.962zm5.143 0h-4.136V70.47l4.136.319v1.59zm5.196 0H63.56v-1.537l4.136.318v1.22zm5.355 0h-4.295v-1.166l4.507.318-.212.848zm-4.719-21.473h23.965a.76.76 0 0 0 .743-.742.76.76 0 0 0-.743-.743H68.332a.76.76 0 0 0-.742.743c0 .424.318.742.742.742zm16.914 18.451a.76.76 0 0 0 .742-.742.76.76 0 0 0-.742-.743h-7.953c.106.107.265.266.37.425.213.318.372.689.531 1.007h7.052v.053zm-16.914-4.93h23.965a.76.76 0 0 0 .743-.743.76.76 0 0 0-.743-.742H68.332a.76.76 0 0 0-.742.742c0 .424.318.742.742.742zm0-4.508h23.965a.76.76 0 0 0 .743-.742.76.76 0 0 0-.743-.742H68.332a.76.76 0 0 0-.742.742c0 .424.318.742.742.742z" fill="#fff"/></svg>