<svg xmlns="http://www.w3.org/2000/svg" width="130" height="130" xmlns:v="https://vecta.io/nano"><defs><linearGradient id="A" x1="0%" x2="101.687%" y1="0%" y2="100%"><stop offset="0%" stop-color="#64c2ff"/><stop offset="100%" stop-color="#1f8eff"/></linearGradient></defs><circle cx="65" cy="65" r="65" fill="url(#A)"/><path d="M95.286 39.374L66.299 27.341a3.04 3.04 0 0 0-2.266 0L35.022 39.374c-1.096.463-1.827 1.536-1.827 2.729v14.64a49.6 49.6 0 0 0 30.838 45.916c.707.292 1.51.292 2.241 0a49.57 49.57 0 0 0 30.839-45.917v-14.64c0-1.169-.707-2.265-1.827-2.728zm-4.092 17.393c0 17.124-10.06 32.909-26.04 39.948-15.566-6.844-26.04-22.361-26.04-39.948V44.1l26.04-10.815L91.194 44.1v12.667zM61.89 66.729l12.715-12.715c1.145-1.145 3.02-1.145 4.19 0 1.145 1.145 1.145 3.02 0 4.19l-14.81 14.81c-1.145 1.145-3.02 1.145-4.19 0l-8.282-8.282c-1.145-1.145-1.145-3.02 0-4.19s3.02-1.145 4.19 0l6.187 6.187z" fill="#fff"/></svg>