<svg width="130" height="130" xmlns="http://www.w3.org/2000/svg">
    <defs>
        <linearGradient x1="0%" y1="0%" x2="101.687%" y2="100%" id="a">
            <stop stop-color="#949EFF" offset="0%"/>
            <stop stop-color="#504FFB" offset="100%"/>
        </linearGradient>
    </defs>
    <g fill-rule="nonzero" fill="none">
        <circle fill="url(#a)" cx="65" cy="65" r="65"/>
        <g fill="#FFF">
            <path d="M57.84 81.652c-.257 0-.514-.096-.722-.272l-7.268-6.193a1.104 1.104 0 0 1 0-1.7l7.268-6.193a1.123 1.123 0 0 1 1.588.128 1.123 1.123 0 0 1-.128 1.589l-6.257 5.326 6.257 5.326c.465.401.529 1.107.128 1.588-.24.273-.546.401-.866.401zM72.182 81.652c-.321 0-.626-.128-.85-.4a1.123 1.123 0 0 1 .128-1.589l6.257-5.326-6.257-5.326a1.136 1.136 0 0 1-.128-1.589 1.136 1.136 0 0 1 1.588-.128l7.267 6.193a1.104 1.104 0 0 1 0 1.7L72.92 81.38a1.2 1.2 0 0 1-.738.272zM62.444 86.289c-.08 0-.16-.016-.24-.032a1.12 1.12 0 0 1-.867-1.332l4.524-21.497a1.12 1.12 0 0 1 1.332-.867c.61.129.994.722.866 1.332L63.535 85.39a1.111 1.111 0 0 1-1.091.899z"/>
            <path d="M91.481 38h-52.94A7.542 7.542 0 0 0 31 45.54v44.92c0 4.155 3.385 7.54 7.54 7.54h52.941c4.155 0 7.54-3.385 7.54-7.54V45.54a7.542 7.542 0 0 0-7.54-7.54zm-52.94 2.246h52.94a5.3 5.3 0 0 1 5.294 5.294v8.182H33.246V45.54a5.3 5.3 0 0 1 5.294-5.294zm52.94 55.508h-52.94a5.3 5.3 0 0 1-5.295-5.294V55.968h63.53V90.46a5.3 5.3 0 0 1-5.295 5.294z"/>
            <path d="M50.187 50.61a3.564 3.564 0 0 1-3.561-3.562 3.564 3.564 0 0 1 3.561-3.561 3.564 3.564 0 0 1 3.562 3.561 3.574 3.574 0 0 1-3.562 3.562zm0-4.877c-.722 0-1.315.593-1.315 1.315s.593 1.316 1.315 1.316 1.316-.594 1.316-1.316c0-.722-.594-1.315-1.316-1.315zM39.262 50.561A3.564 3.564 0 0 1 35.701 47a3.55 3.55 0 0 1 3.561-3.545 3.564 3.564 0 0 1 3.562 3.561 3.54 3.54 0 0 1-3.562 3.545zm0-4.86c-.722 0-1.315.593-1.315 1.315s.593 1.316 1.315 1.316 1.316-.594 1.316-1.316c0-.722-.594-1.315-1.316-1.315zM61.112 50.642a3.55 3.55 0 0 1-3.545-3.562 3.547 3.547 0 0 1 3.545-3.545c1.958 0 3.562 1.588 3.562 3.545-.016 1.957-1.604 3.562-3.562 3.562zm0-4.861c-.722 0-1.3.593-1.3 1.315s.594 1.316 1.3 1.316c.722 0 1.316-.594 1.316-1.316 0-.722-.594-1.315-1.316-1.315z"/>
        </g>
    </g>
</svg>
