<svg width="130" height="130" xmlns="http://www.w3.org/2000/svg">
    <defs>
        <linearGradient x1="0%" y1="0%" x2="101.687%" y2="100%" id="a">
            <stop stop-color="#64C2FF" offset="0%"/>
            <stop stop-color="#1F8EFF" offset="100%"/>
        </linearGradient>
    </defs>
    <g fill="none" fill-rule="evenodd">
        <circle fill="url(#a)" fill-rule="nonzero" cx="65" cy="65" r="65"/>
        <g fill="#FFF">
            <path d="M33.201 57.04c0 .626-.194 1.122-.595 1.518-.4.396-.9.59-1.528.59h-2v-4.34h2c.624 0 1.122.204 1.523.623.404.422.6.948.6 1.609zm1.562-2.198a3.871 3.871 0 0 0-1.508-1.524c-.64-.361-1.372-.544-2.177-.544H28c-.3 0-.556.101-.763.301a1.04 1.04 0 0 0-.316.778v10.422c0 .301.105.56.313.767.207.207.465.312.766.312.313 0 .575-.106.778-.316.2-.207.301-.464.301-.763v-3.093h2c.803 0 1.535-.177 2.174-.527a3.819 3.819 0 0 0 1.509-1.476c.356-.625.537-1.345.537-2.14 0-.813-.18-1.552-.535-2.197zM42.042 60.825h-3.621l1.83-4.461 1.791 4.461zm-.806-7.336c-.176-.468-.527-.715-1.014-.715-.322 0-.76.123-1.01.71l-4.33 10.337a1.288 1.288 0 0 0-.095.454c0 .288.1.541.298.752.202.217.46.327.765.327.208 0 .405-.06.583-.176.177-.116.315-.276.408-.477l.813-1.995h5.15l.793 1.98c.084.21.222.376.41.494.183.116.38.174.588.174.3 0 .558-.105.766-.312.207-.208.313-.46.313-.751 0-.128-.032-.272-.1-.447L41.237 53.49zM53.939 52.774c-.402 0-.728.177-.943.514l-3.428 5.401-3.372-5.345a1.523 1.523 0 0 0-.38-.412.957.957 0 0 0-.56-.158c-.285 0-.537.097-.748.287a.98.98 0 0 0-.33.746c0 .208.072.425.213.643l4.066 6.32v3.505c0 .301.105.56.313.767.207.207.46.312.75.312.302 0 .56-.105.768-.312.207-.208.312-.466.312-.767V60.77l4.099-6.323c.13-.209.196-.43.196-.656 0-.274-.089-.513-.263-.709a.906.906 0 0 0-.693-.308M69.657 52.774c-.3 0-.556.101-.763.301a1.04 1.04 0 0 0-.316.778v7.587l-6.21-8.262-.014-.017a1.188 1.188 0 0 0-.363-.273 1.035 1.035 0 0 0-.463-.114c-.3 0-.556.102-.758.305a1.054 1.054 0 0 0-.305.774v10.422c0 .312.102.573.305.774.202.203.457.305.758.305.314 0 .575-.106.778-.316.2-.207.301-.464.301-.763v-7.571l6.207 8.256c.094.137.227.24.395.306.15.058.3.088.448.088.301 0 .556-.102.759-.305.202-.202.305-.462.305-.774V53.853c0-.311-.103-.572-.305-.775a1.035 1.035 0 0 0-.759-.304M83.372 59.056c0 .832-.185 1.595-.551 2.269a4.117 4.117 0 0 1-1.53 1.595c-.65.387-1.395.584-2.213.584-.817 0-1.561-.197-2.212-.584a4.114 4.114 0 0 1-1.53-1.595c-.366-.673-.552-1.437-.552-2.269 0-.831.186-1.595.552-2.268a4.08 4.08 0 0 1 1.521-1.587c.646-.383 1.394-.577 2.221-.577.828 0 1.575.194 2.221.577a4.079 4.079 0 0 1 1.522 1.587c.366.674.551 1.437.551 2.268zm-.993-5.615c-.967-.545-2.077-.821-3.3-.821-1.234 0-2.35.276-3.316.82a5.806 5.806 0 0 0-2.27 2.295c-.534.971-.805 2.089-.805 3.321 0 1.233.27 2.352.804 3.328a5.787 5.787 0 0 0 2.27 2.303c.967.545 2.083.821 3.316.821 1.234 0 2.347-.276 3.31-.821a5.858 5.858 0 0 0 2.268-2.302c.54-.976.813-2.096.813-3.329 0-1.232-.274-2.35-.813-3.322a5.858 5.858 0 0 0-2.277-2.293zM100.337 53.059c-.108-.13-.314-.285-.676-.285-.269 0-.492.056-.666.167a.93.93 0 0 0-.387.558l-2.279 7.95-2.094-7.787a.895.895 0 0 0-.397-.552 1.142 1.142 0 0 0-.627-.182c-.243 0-.463.069-.655.206a.957.957 0 0 0-.384.54l-2.066 7.713-2.249-7.818a1.133 1.133 0 0 0-.4-.587 1.069 1.069 0 0 0-.65-.208c-.284 0-.515.09-.686.27-.17.176-.255.412-.255.701 0 .171.025.339.074.496l3.095 10.287c.078.25.214.45.4.597.194.152.418.23.666.23a.999.999 0 0 0 .665-.244 1.38 1.38 0 0 0 .397-.586l2.061-7.844 2.026 7.833.006.019c.078.235.211.43.395.58.194.16.42.241.67.241a.999.999 0 0 0 .665-.243 1.38 1.38 0 0 0 .396-.586l3.1-10.283c.049-.16.073-.332.073-.512 0-.271-.073-.497-.218-.671"/>
            <path d="M25.27 43.02c-4.549 0-8.25 3.701-8.25 8.251v15.586c0 4.55 3.701 8.251 8.25 8.251h76.935c4.55 0 8.251-3.701 8.251-8.25V51.27c0-4.55-3.702-8.252-8.251-8.252H25.27zm76.935 34.094H25.27c-5.656 0-10.257-4.601-10.257-10.257V51.271c0-5.656 4.601-10.257 10.257-10.257h76.934c5.655 0 10.257 4.601 10.257 10.257v15.586c0 5.656-4.602 10.257-10.257 10.257z"/>
            <path d="m57.228 66.375-.014.005a.943.943 0 0 0-.557 1.21l.973 2.63a.942.942 0 0 0 1.21.557l.014-.005a.942.942 0 0 0 .557-1.21l-.974-2.63a.942.942 0 0 0-1.21-.557M68.925 72.83l-2.637.976a.942.942 0 0 0-.556 1.21l.005.013a.943.943 0 0 0 1.21.557l2.636-.975a.944.944 0 0 0 .557-1.21l-.005-.014a.942.942 0 0 0-1.21-.557M65.708 68.005a.934.934 0 0 0 .028-.72.935.935 0 0 0-.49-.529l-.013-.006a.935.935 0 0 0-.72-.028.936.936 0 0 0-.53.49l-1.302 2.833a.935.935 0 0 0-.028.72c.088.236.261.424.49.53l.013.005a.935.935 0 0 0 .72.028.937.937 0 0 0 .53-.49l1.302-2.833M55.17 77.918l-2.674.99a.942.942 0 0 0-.556 1.21l.005.013a.943.943 0 0 0 1.21.557l2.674-.989a.944.944 0 0 0 .557-1.21l-.005-.014a.943.943 0 0 0-1.21-.557M52.628 71.412a.937.937 0 0 0-.72-.027.938.938 0 0 0-.53.49l-.005.013a.934.934 0 0 0-.028.72.935.935 0 0 0 .49.529l2.834 1.303a.934.934 0 0 0 .72.028.936.936 0 0 0 .529-.49l.006-.013a.934.934 0 0 0 .027-.72.936.936 0 0 0-.49-.53l-2.833-1.303" opacity=".6"/>
            <path d="M86.631 102.493c-.597 1.547-1.834 2.74-3.675 3.548-4.453 1.953-7.052 2.52-9.27 2.02-2.163-.486-6.555-4.302-6.555-4.302-1.864-1.48-5.47-5.06-5.676-5.265l-2.78-2.949a1.27 1.27 0 0 1 .297-1.795l.019-.014a1.275 1.275 0 0 1 1.527.033l2.314 1.821-.009-.024 1.27.99c.978.764 2.342-.237 1.908-1.4l-6.02-16.114a1.695 1.695 0 0 1 1-2.174l.048-.018a1.695 1.695 0 0 1 2.176 1.002l1.693 4.537 3.18 8.596a.826.826 0 0 0 1.06.487l.016-.005a.826.826 0 0 0 .488-1.061l-1.14-3.08.008-.003a1.695 1.695 0 0 1 1-2.176l.048-.017a1.693 1.693 0 0 1 2.176 1l.474 1.283.007-.003 1.079 2.916a.826.826 0 0 0 1.06.488l.016-.006a.826.826 0 0 0 .488-1.061l-1.152-3.115a1.694 1.694 0 0 1 1.06-1.97l.048-.018c.85-.315 1.79.098 2.142.923l1.572 4.25a.826.826 0 0 0 1.061.488l.016-.006a.826.826 0 0 0 .488-1.06l-1.07-2.893a1.694 1.694 0 0 1 1.02-2.113l.048-.017a1.692 1.692 0 0 1 2.175 1l3.104 8.389.987 2.657s1.293 3.595.274 6.231zM83.824 84.64a3.354 3.354 0 0 0-4.31-1.982l-.047.018a3.334 3.334 0 0 0-1.614 1.267 3.358 3.358 0 0 0-3.615-.857l-.049.017a3.34 3.34 0 0 0-1.627 1.289 3.36 3.36 0 0 0-3.58-.82l-.048.018a3.334 3.334 0 0 0-1.434 1.025l-.054-.146-.984-2.66-.007.003-1.693-4.538a3.357 3.357 0 0 0-4.31-1.982l-.047.018a3.358 3.358 0 0 0-1.98 4.311l5.444 14.575c.014.036-.027.068-.06.048l-2.973-1.908c-.831-.533-1.906-.55-2.73-.007l-.084.058-.018.013a2.927 2.927 0 0 0-.62 4.192l2.871 3.05.018.02c.139.137 5.114 4.744 5.114 4.744s5.264 4.668 7.936 5.27c2.09.47 4.365.178 7.678-1.051.807-.3 1.677-.655 2.62-1.069 2.264-.993 3.798-2.5 4.558-4.48 1.257-3.271.018-6.638-.237-7.265-.05-.159-4.118-11.17-4.118-11.17z" stroke="#FFF" stroke-width="2"/>
        </g>
    </g>
</svg>
