<svg xmlns="http://www.w3.org/2000/svg" width="280" height="200" fill="none"><g clip-path="url(#a)"><path fill="url(#b)" d="M0 0h280v200H0z"/><path fill="url(#c)" fill-rule="evenodd" d="m288.656-47.366-8.779-7.019-5.45 6.817.164.131-62.609 9.635a13.893 13.893 0 0 0-11.78 13.732v204.898a13.894 13.894 0 0 0 9.716 13.251l62.734 19.775 2.727 6.437 9.307-3.942c6.675-.819 12.204-6.491 12.204-13.801V-34.674c0-5.723-3.429-10.542-8.234-12.692Z" clip-rule="evenodd"/><path fill="url(#d)" fill-rule="evenodd" d="m288.656-47.366-8.779-7.019-5.45 6.817.164.131-62.609 9.635a13.893 13.893 0 0 0-11.78 13.732v204.898a13.894 13.894 0 0 0 9.716 13.251l62.734 19.775 2.727 6.437 9.307-3.942c6.675-.819 12.204-6.491 12.204-13.801V-34.674c0-5.723-3.429-10.542-8.234-12.692Z" clip-rule="evenodd"/><path fill="#fff" d="M182.683-32.646a14.7 14.7 0 0 1 12.464-14.529l72.902-11.219c8.905-1.37 16.936 5.52 16.936 14.53v250.996c0 9.933-9.646 17.006-19.119 14.02l-72.903-22.981a14.7 14.7 0 0 1-10.28-14.02V-32.646Z"/><path stroke="#E8F1FF" stroke-width="1.01" d="m196.364 31.183 74.533-1.028a1.01 1.01 0 0 1 1.024 1.01v16.72a1.01 1.01 0 0 1-1.024 1.01l-74.533-1.028a1.01 1.01 0 0 1-.997-1.01V32.193c0-.552.444-1.002.997-1.01Zm.062 34.867 74.533 3.598c.539.026.962.47.962 1.01v16.194l-76.554-6.336V67.06a1.01 1.01 0 0 1 1.059-1.01Zm.117 46.215 74.533 12.336c.487.081.845.503.845.997v53.174l-76.554-17.95v-47.561c0-.623.56-1.098 1.176-.996Z"/><path stroke="#E8F1FF" stroke-width="1.01" d="m196.26 94.009 74.533 8.738a1.01 1.01 0 0 0 1.128-1.003v-14.95l-76.554-6.335v12.547c0 .512.384.943.893 1.003Zm-.151 82.543 74.533 20.561a1.01 1.01 0 0 0 1.279-.974v-17.402l-76.554-17.95v14.791c0 .455.304.853.742.974Z"/><path fill="#E8F1FF" d="M197.92 39.103c0-.925.75-1.675 1.676-1.675h57.548a1.937 1.937 0 1 1-.018 3.874l-57.546-.523a1.676 1.676 0 0 1-1.66-1.676Zm20.017 35.687c0-.964.81-1.729 1.772-1.672l43.671 2.569a1.93 1.93 0 1 1-.249 3.853l-43.638-3.08a1.674 1.674 0 0 1-1.556-1.67Zm-9.453 13.954a1.67 1.67 0 0 1 1.825-1.662l44.245 4.116a1.925 1.925 0 1 1-.378 3.832l-44.196-4.625a1.67 1.67 0 0 1-1.496-1.66Z"/><path fill="#E2E2FF" d="M213.488 125.658a2.192 2.192 0 0 1 2.567-2.159l8.406 1.462a2.192 2.192 0 0 1-.751 4.318l-8.406-1.462a2.192 2.192 0 0 1-1.816-2.159Z"/><path fill="#E8F1FF" d="M213.488 133.925a1.64 1.64 0 0 1 1.942-1.612l23.41 4.39a1.64 1.64 0 1 1-.605 3.222l-23.409-4.389a1.639 1.639 0 0 1-1.338-1.611Z"/><path stroke="#E8F1FF" stroke-linecap="round" stroke-width="1.05" d="m263.251 38.541 1.853 1.853a.524.524 0 0 0 .742 0l1.853-1.853"/><ellipse cx="263.17" cy="93.868" stroke="#E8F1FF" stroke-linecap="round" stroke-width="1.05" rx="3.346" ry="3.803" transform="rotate(-23.21 263.17 93.868)"/><ellipse cx="201.966" cy="87.746" fill="#D9D8FF" opacity=".75" rx="3.309" ry="3.803" transform="rotate(-22.665 201.966 87.746)"/><ellipse cx="205.857" cy="150.019" fill="#D9D8FF" opacity=".75" rx="3.309" ry="3.803" transform="rotate(-22.665 205.857 150.019)"/><ellipse cx="223.649" cy="153.355" fill="#D9D8FF" opacity=".75" rx="3.309" ry="3.803" transform="rotate(-22.665 223.649 153.355)"/><path fill="#BCDDFF" d="M196.251 59.29c.129.005.243-.008.34-.038a.649.649 0 0 0 .246-.13.553.553 0 0 0 .148-.217.784.784 0 0 0 .05-.286.764.764 0 0 0-.05-.282.549.549 0 0 0-.144-.215.656.656 0 0 0-.245-.14 1.139 1.139 0 0 0-.345-.059l-.53-.017v1.367l.53.017Zm0-1.82c.233.007.435.041.605.101.172.06.314.142.424.245a.939.939 0 0 1 .251.363c.054.14.082.292.082.46 0 .17-.029.325-.087.465a.95.95 0 0 1-.258.357 1.182 1.182 0 0 1-.427.224 1.84 1.84 0 0 1-.59.064l-.53-.018v1.293l-.58-.02v-3.572l1.11.037Zm2.953 1.81c.132.004.248-.008.347-.036a.686.686 0 0 0 .248-.128.527.527 0 0 0 .148-.201.674.674 0 0 0 .05-.267c0-.195-.064-.346-.193-.453-.129-.106-.324-.164-.585-.173l-.472-.015v1.257l.457.015Zm1.681 1.916-.519-.017a.25.25 0 0 1-.223-.127l-.833-1.23a.286.286 0 0 0-.091-.093.328.328 0 0 0-.149-.032l-.323-.011v1.439l-.58-.02v-3.572l1.052.035c.234.008.436.039.604.092a1.2 1.2 0 0 1 .42.22c.109.091.189.2.24.326.053.125.079.264.079.417 0 .124-.019.239-.057.345a.951.951 0 0 1-.419.507 1.268 1.268 0 0 1-.349.14.605.605 0 0 1 .183.187l.965 1.394Zm2.659-.38-.003.469-2.226-.075v-3.572l2.226.074v.47l-1.643-.056v1.077l1.314.044v.454l-1.314-.044v1.104l1.646.055Zm1.211-2.594v1.143l1.396.047v.469l-1.396-.047v1.491l-.583-.02v-3.572l2.227.075v.468l-1.644-.054Zm4.45 2.783-.003.468-2.226-.074v-3.572l2.226.074v.469l-1.643-.055v1.077l1.314.043v.454l-1.314-.043v1.104l1.646.054Zm1.664-1.337a1.13 1.13 0 0 0 .348-.035.682.682 0 0 0 .247-.128.52.52 0 0 0 .149-.201.692.692 0 0 0 .05-.267.555.555 0 0 0-.194-.453c-.128-.107-.324-.164-.585-.173l-.471-.016v1.258l.456.015Zm1.681 1.917-.518-.017c-.102-.004-.177-.046-.223-.127l-.833-1.23a.289.289 0 0 0-.092-.093.32.32 0 0 0-.148-.032l-.323-.011v1.439l-.58-.02v-3.572l1.051.035c.235.008.437.039.605.092.171.054.31.127.419.22.109.091.19.2.241.326.053.125.079.264.079.416 0 .125-.019.24-.057.346a.95.95 0 0 1-.419.507 1.265 1.265 0 0 1-.349.14.607.607 0 0 1 .183.187l.964 1.394Zm1.467-1.812c.132.005.248-.007.347-.035a.686.686 0 0 0 .248-.129.53.53 0 0 0 .149-.2.691.691 0 0 0 .05-.267.555.555 0 0 0-.194-.453c-.129-.107-.324-.164-.585-.173l-.471-.016v1.258l.456.015Zm1.681 1.917-.518-.017c-.103-.004-.177-.046-.223-.127l-.833-1.23a.289.289 0 0 0-.092-.093.326.326 0 0 0-.149-.032l-.322-.011v1.439l-.58-.02v-3.572l1.051.035c.235.008.436.038.605.092.17.054.31.127.419.22.109.091.189.2.24.325.053.126.08.265.08.418 0 .123-.019.239-.057.345a.913.913 0 0 1-.161.287.982.982 0 0 1-.258.22 1.274 1.274 0 0 1-.35.14.62.62 0 0 1 .184.187l.964 1.394Zm2.659-.38-.002.468-2.227-.074v-3.572l2.227.074v.469l-1.644-.055v1.077l1.314.044v.454l-1.314-.044v1.104l1.646.055Zm3.763-1.192c0 .264-.043.505-.129.722a1.554 1.554 0 0 1-.928.9 1.942 1.942 0 0 1-.729.104l-1.348-.045v-3.572l1.348.045c.268.009.511.06.729.156a1.67 1.67 0 0 1 .928.961c.086.221.129.464.129.729Zm-.593-.02c0-.205-.028-.39-.084-.556a1.18 1.18 0 0 0-.238-.422 1.07 1.07 0 0 0-.375-.27 1.305 1.305 0 0 0-.496-.11l-.766-.025v2.635l.766.026c.184.006.349-.019.496-.073a.974.974 0 0 0 .375-.246 1.11 1.11 0 0 0 .238-.406c.056-.162.084-.346.084-.553Zm3.577.154c.128.004.242-.009.339-.038a.646.646 0 0 0 .246-.131.553.553 0 0 0 .148-.216.764.764 0 0 0 .05-.286.744.744 0 0 0-.05-.282.557.557 0 0 0-.143-.216.67.67 0 0 0-.246-.14 1.14 1.14 0 0 0-.344-.058l-.531-.018v1.367l.531.018Zm0-1.821c.233.008.434.042.605.102.171.06.313.142.424.245a.948.948 0 0 1 .25.363c.054.14.082.292.082.46 0 .17-.029.325-.087.465a.951.951 0 0 1-.258.356 1.185 1.185 0 0 1-.426.224c-.169.05-.366.072-.59.065l-.531-.018v1.293l-.58-.02v-3.572l1.111.037Zm3.558 2.351-.491-1.32a3.787 3.787 0 0 1-.122-.39 2.744 2.744 0 0 1-.119.384l-.491 1.286 1.223.04Zm1.098 1.377-.449-.015a.202.202 0 0 1-.124-.042.284.284 0 0 1-.072-.099l-.297-.799-1.537-.05-.298.778a.224.224 0 0 1-.069.09.18.18 0 0 1-.124.038l-.449-.015 1.416-3.526.587.02 1.416 3.62Zm1.501-1.349v1.399l-.577-.02V60.79l-1.304-2.216.508.017a.187.187 0 0 1 .121.04c.03.027.055.059.075.097l.731 1.305a4.25 4.25 0 0 1 .164.36 1.21 1.21 0 0 1 .067-.169c.026-.057.056-.117.089-.18l.726-1.256a.28.28 0 0 1 .072-.087.172.172 0 0 1 .122-.038l.511.017-1.305 2.13Zm5.513-1.99v3.572l-.511-.017v-2.448a2.998 2.998 0 0 1 .015-.273l-1.148 2.083a.209.209 0 0 1-.205.125l-.082-.003a.224.224 0 0 1-.206-.138l-1.165-2.165c.005.048.008.096.01.144.003.048.005.093.005.134v2.449l-.511-.017v-3.573l.434.015a.377.377 0 0 1 .119.019c.028.009.053.037.077.084l1.145 2.115c.025.049.048.099.069.15.024.051.044.103.062.157l.062-.154c.024-.053.048-.102.072-.15l1.128-2.033c.024-.046.049-.072.077-.08a.369.369 0 0 1 .119-.01l.434.014Zm3.075 3.206-.003.469-2.226-.074v-3.573l2.226.075v.468l-1.644-.054v1.076l1.315.044v.454l-1.315-.044v1.104l1.647.055Zm3.583-2.984v3.572l-.295-.01a.275.275 0 0 1-.114-.026.299.299 0 0 1-.089-.082l-1.961-2.586c.005.048.008.096.01.144.003.047.005.09.005.13v2.349l-.511-.017v-3.572l.302.01c.025 0 .046.003.062.007a.145.145 0 0 1 .092.045c.013.014.027.03.042.05l1.964 2.59a3.47 3.47 0 0 1-.015-.29v-2.33l.508.016Zm3.308.594-1.113-.037v3.089l-.578-.02V59.58l-1.115-.038v-.483l2.806.093v.484Zm5.38-.304v3.572l-.51-.017v-2.449c0-.04 0-.082.002-.129.003-.047.008-.095.013-.143l-1.148 2.083a.21.21 0 0 1-.206.124l-.082-.002a.224.224 0 0 1-.206-.139l-1.165-2.164c.005.048.008.096.01.144.003.048.005.092.005.134v2.448l-.511-.017v-3.572l.434.014a.38.38 0 0 1 .119.02c.028.009.054.037.077.084l1.145 2.114a2.622 2.622 0 0 1 .132.307 2.698 2.698 0 0 1 .134-.303l1.128-2.034c.023-.045.048-.072.076-.079a.375.375 0 0 1 .12-.01l.433.014Zm3.075 3.206-.003.468-2.226-.074V59.36l2.226.074v.469l-1.643-.055v1.077l1.314.044v.453l-1.314-.043v1.104l1.646.055Zm3.085-2.518-1.113-.036v3.088l-.578-.02v-3.088l-1.115-.037v-.484l2.806.094v.484Zm3.453-.368v3.572l-.581-.019v-1.59l-1.792-.06v1.59l-.583-.02v-3.572l.583.02v1.563l1.792.06v-1.563l.581.019Zm4.205 1.926c0 .265-.043.508-.129.728-.086.22-.207.409-.364.566a1.585 1.585 0 0 1-.563.358 1.846 1.846 0 0 1-.729.112 1.928 1.928 0 0 1-.729-.16 1.767 1.767 0 0 1-.563-.396 1.772 1.772 0 0 1-.364-.59 2.054 2.054 0 0 1-.129-.737c0-.264.043-.507.129-.727.086-.22.207-.41.364-.566.157-.157.345-.277.563-.36a1.86 1.86 0 0 1 .729-.113c.268.009.511.063.729.16a1.718 1.718 0 0 1 .927.99c.086.225.129.47.129.735Zm-.593-.02c0-.205-.028-.39-.084-.555a1.19 1.19 0 0 0-.238-.425 1.068 1.068 0 0 0-.374-.276 1.307 1.307 0 0 0-.496-.108 1.259 1.259 0 0 0-.494.075.998.998 0 0 0-.376.25 1.12 1.12 0 0 0-.241.41 1.678 1.678 0 0 0-.084.55c0 .207.028.393.084.559.056.165.136.307.241.424.104.116.229.207.376.273.148.065.312.1.494.106.183.006.349-.018.496-.073a.987.987 0 0 0 .374-.248c.104-.11.184-.247.238-.409a1.68 1.68 0 0 0 .084-.552Zm4.363.146c0 .265-.043.505-.129.723a1.555 1.555 0 0 1-.928.9 1.942 1.942 0 0 1-.729.104l-1.348-.045v-3.573l1.348.045c.268.01.511.061.729.156a1.67 1.67 0 0 1 .928.961c.086.221.129.464.129.729Zm-.593-.02c0-.205-.028-.39-.084-.556a1.18 1.18 0 0 0-.238-.422 1.07 1.07 0 0 0-.375-.27 1.303 1.303 0 0 0-.496-.109l-.766-.025v2.634l.766.026a1.29 1.29 0 0 0 .496-.073.975.975 0 0 0 .375-.245 1.11 1.11 0 0 0 .238-.407c.056-.162.084-.346.084-.553Zm3.098-1.072a.22.22 0 0 1-.057.065.128.128 0 0 1-.074.017.206.206 0 0 1-.107-.043 1.627 1.627 0 0 0-.345-.188.826.826 0 0 0-.277-.051.838.838 0 0 0-.263.028.53.53 0 0 0-.189.098.417.417 0 0 0-.116.155.492.492 0 0 0-.037.195c0 .09.024.168.072.23.048.061.11.115.188.16.079.046.169.087.27.124.101.034.204.072.308.112.106.04.209.084.31.134s.19.111.267.185a.83.83 0 0 1 .191.267c.048.104.072.23.072.377 0 .159-.027.306-.082.444a.99.99 0 0 1-.238.356c-.102.1-.229.176-.381.23a1.378 1.378 0 0 1-.516.073 1.824 1.824 0 0 1-.645-.148 1.728 1.728 0 0 1-.275-.158 1.47 1.47 0 0 1-.231-.201l.169-.273a.15.15 0 0 1 .134-.07.22.22 0 0 1 .126.06 1.544 1.544 0 0 0 .405.247.96.96 0 0 0 .332.062c.21.007.372-.039.486-.137a.522.522 0 0 0 .173-.419c0-.1-.024-.184-.072-.248a.596.596 0 0 0-.191-.168 1.345 1.345 0 0 0-.267-.118 15.63 15.63 0 0 1-.308-.104 3.63 3.63 0 0 1-.307-.13.892.892 0 0 1-.459-.467 1.03 1.03 0 0 1-.072-.408.916.916 0 0 1 .295-.685c.098-.091.218-.163.36-.214.142-.051.304-.074.486-.068.205.007.392.045.563.115.171.07.319.167.443.29l-.141.274Zm-74.833 45.517-.474-1.339a4.178 4.178 0 0 1-.117-.392 2.986 2.986 0 0 1-.115.36l-.474 1.201 1.18.17Zm1.06 1.459-.433-.063a.215.215 0 0 1-.12-.053.315.315 0 0 1-.069-.104l-.287-.811-1.484-.214-.287.727a.18.18 0 0 1-.067.08.156.156 0 0 1-.119.024l-.433-.063 1.366-3.283.567.082 1.366 3.678Zm2.392-.128v.473l-1.99-.287v-3.481l.56.081v3.007l1.43.207Zm2.472.357v.474l-1.99-.288v-3.481l.56.081v3.007l1.43.207Zm2.6-.858a.97.97 0 0 0 .328-.001.467.467 0 0 0 .38-.295.725.725 0 0 0 .048-.274.795.795 0 0 0-.048-.28.611.611 0 0 0-.139-.225.716.716 0 0 0-.236-.162 1.136 1.136 0 0 0-.333-.094l-.512-.074v1.332l.512.073Zm0-1.774c.225.033.42.087.584.164.166.077.302.172.409.284.108.111.189.238.242.381.052.141.079.293.079.456 0 .166-.028.314-.084.445a.79.79 0 0 1-.249.319.998.998 0 0 1-.412.173 1.743 1.743 0 0 1-.569 0l-.512-.074v1.259l-.56-.081v-3.481l1.072.155Zm3.433 2.672-.473-1.34a3.651 3.651 0 0 1-.117-.392 2.374 2.374 0 0 1-.058.202l-.057.159-.474 1.2 1.179.171Zm1.06 1.458-.433-.062a.216.216 0 0 1-.119-.054.303.303 0 0 1-.07-.104l-.287-.81-1.483-.215-.287.728a.191.191 0 0 1-.067.079.159.159 0 0 1-.12.024l-.433-.062 1.366-3.284.567.082 1.366 3.678Zm1.449-1.154v1.363l-.557-.08v-1.364l-1.259-2.299.491.071a.205.205 0 0 1 .117.053.424.424 0 0 1 .072.102l.705 1.35a4.164 4.164 0 0 1 .158.368c.018-.054.039-.106.065-.157a3.38 3.38 0 0 1 .086-.167l.701-1.146a.229.229 0 0 1 .069-.077.153.153 0 0 1 .118-.024l.492.071-1.258 1.936Zm5.319-1.349v3.481l-.492-.071v-2.386c0-.039 0-.081.002-.126a3.21 3.21 0 0 1 .012-.138l-1.108 1.907a.178.178 0 0 1-.198.099l-.079-.011a.253.253 0 0 1-.199-.157l-1.124-2.234c.004.047.008.094.009.141.003.048.005.091.005.132v2.385l-.493-.071v-3.481l.419.061a.376.376 0 0 1 .115.031c.027.012.052.042.074.09l1.105 2.183c.024.051.046.102.067.155.022.052.042.104.06.159a1.944 1.944 0 0 1 .129-.281l1.089-1.862c.022-.042.047-.065.074-.069a.374.374 0 0 1 .115.002l.418.061Zm2.967 3.452-.002.457-2.149-.31v-3.481l2.149.31v.457l-1.586-.229v1.049l1.268.183v.442l-1.268-.183v1.076l1.588.229Zm3.458-2.524v3.481l-.285-.041a.298.298 0 0 1-.11-.038.355.355 0 0 1-.086-.09l-1.892-2.729c.005.047.008.094.009.141.003.046.005.088.005.127v2.289l-.493-.071v-3.481l.292.042a.334.334 0 0 1 .108.033c.014.008.028.02.04.034a.462.462 0 0 1 .041.055l1.895 2.732a4.249 4.249 0 0 1-.012-.149c-.002-.049-.002-.094-.002-.136v-2.27l.49.071Zm3.192.932-1.074-.155v3.01l-.558-.081v-3.009l-1.076-.156v-.471l2.708.391v.471Zm2.272.452a.19.19 0 0 1-.056.057.116.116 0 0 1-.071.009.21.21 0 0 1-.103-.054 1.728 1.728 0 0 0-.139-.104 1.197 1.197 0 0 0-.194-.115.863.863 0 0 0-.268-.08.764.764 0 0 0-.253 0 .422.422 0 0 0-.182.075.345.345 0 0 0-.113.138.478.478 0 0 0-.035.186c0 .089.023.166.069.232a.75.75 0 0 0 .182.177c.076.053.163.102.261.148.097.045.196.092.296.142.102.051.202.105.299.165a1.2 1.2 0 0 1 .259.208.963.963 0 0 1 .184.281.937.937 0 0 1 .069.375c0 .155-.026.296-.079.424a.847.847 0 0 1-.229.322.878.878 0 0 1-.369.183 1.27 1.27 0 0 1-.497.016 1.864 1.864 0 0 1-.622-.214 1.817 1.817 0 0 1-.489-.404l.163-.247a.131.131 0 0 1 .129-.054.242.242 0 0 1 .122.071 1.754 1.754 0 0 0 .39.284c.09.046.197.079.321.097.202.029.359.002.469-.082.112-.084.167-.214.167-.39a.434.434 0 0 0-.069-.249.7.7 0 0 0-.184-.184 1.537 1.537 0 0 0-.259-.143 14.733 14.733 0 0 1-.296-.135 3.536 3.536 0 0 1-.297-.159 1.016 1.016 0 0 1-.443-.504 1.074 1.074 0 0 1 .003-.761.764.764 0 0 1 .213-.281.868.868 0 0 1 .347-.17c.137-.035.293-.04.469-.014.197.028.378.086.543.172.166.087.308.197.428.331l-.136.251Z"/><path fill="#E8F1FF" d="M200.145 158.523c0-.516.472-.903.978-.802l9.484 1.897a.818.818 0 1 1-.32 1.604l-9.485-1.897a.818.818 0 0 1-.657-.802Zm17.792 3.845a.858.858 0 0 1 1.027-.842l9.958 1.992a.86.86 0 0 1-.336 1.684l-9.959-1.992a.858.858 0 0 1-.69-.842Z"/><path stroke="#E8F1FF" stroke-width="1.05" d="m200.82 143.421 10.195 2.124c.487.101.836.53.836 1.027v10.127a1.05 1.05 0 0 1-1.265 1.028l-10.194-2.124a1.05 1.05 0 0 1-.836-1.028v-10.126a1.05 1.05 0 0 1 1.264-1.028Zm.035 24.543 65.24 15.912c.47.114.801.536.801 1.02v10.102a1.05 1.05 0 0 1-1.299 1.02l-65.24-15.912a1.05 1.05 0 0 1-.801-1.02v-10.102a1.05 1.05 0 0 1 1.299-1.02Zm18.315-20.649 10.194 2.124c.487.102.836.531.836 1.028v10.127a1.05 1.05 0 0 1-1.264 1.028l-10.194-2.124a1.05 1.05 0 0 1-.836-1.028v-10.127a1.05 1.05 0 0 1 1.264-1.028Z"/><path fill="url(#e)" stroke="#8ECBFF" stroke-width="1.05" d="M184.823 181.286v-12.512l97.642 25.854v12.437c0 6.376-6.185 10.922-12.27 9.019l-77.637-24.275a11.025 11.025 0 0 1-7.735-10.523Z"/><path fill="#fff" d="M215.369 188.385c.252.073.474.103.664.09a.967.967 0 0 0 .482-.148.811.811 0 0 0 .294-.363c.066-.157.098-.34.098-.551a1.72 1.72 0 0 0-.383-1.114c-.253-.316-.638-.549-1.155-.699l-1.039-.3v2.785l1.039.3Zm0-3.598c.43.124.804.284 1.122.48.318.196.582.42.791.672.209.248.363.522.463.82.103.299.154.612.154.94 0 .328-.055.614-.164.858a1.28 1.28 0 0 1-.481.567c-.212.137-.478.215-.796.233-.315.016-.678-.035-1.089-.154l-1.039-.3v2.575l-.996-.287v-6.992l2.035.588Zm7.106 6.44-.996-3a7.626 7.626 0 0 1-.215-.763 6.053 6.053 0 0 1-.108.358c-.034.11-.069.208-.103.292l-.991 2.415 2.413.698Zm1.969 3.173-.767-.221a.46.46 0 0 1-.215-.131.555.555 0 0 1-.122-.21l-.594-1.793-2.96-.855-.594 1.449a.275.275 0 0 1-.122.136.284.284 0 0 1-.215.011l-.767-.222 2.675-6.219 1.006.291 2.675 7.764Zm3.161-1.852v2.765l-.992-.286v-2.766l-2.46-4.936.875.252a.441.441 0 0 1 .21.129.708.708 0 0 1 .131.209l1.459 3.036c.06.137.113.266.159.386.05.122.094.24.131.355a4.46 4.46 0 0 1 .117-.283c.047-.094.1-.192.159-.295l1.455-2.194a.393.393 0 0 1 .126-.124c.056-.036.127-.042.211-.017l.879.254-2.46 3.515Zm10.171-.416-1.59-.46a1.854 1.854 0 0 1 .552.958l1.038.3v.925l-1.043-.301a1.235 1.235 0 0 1-.43.679c-.216.172-.498.272-.847.301a1.873 1.873 0 0 1 .491.589l1.693 3.089-1.136-.328a.727.727 0 0 1-.468-.398l-1.422-2.665a.742.742 0 0 0-.178-.231.745.745 0 0 0-.28-.135l-.88-.254v-.886l.926.267c.356.103.64.115.852.037a.744.744 0 0 0 .453-.419l-2.235-.646v-.925l2.264.654a1.451 1.451 0 0 0-.44-.682c-.215-.199-.507-.351-.875-.457l-.945-.273v-.959l4.5 1.3v.92Zm1.315 1.422c.047-.324.138-.594.272-.808a1.37 1.37 0 0 1 .5-.493c.203-.114.434-.175.692-.185.262-.012.543.025.842.112.312.09.593.218.842.384.253.164.468.354.646.571.177.214.313.445.407.692.096.249.145.502.145.758 0 .224-.025.415-.075.572a1 1 0 0 1-.206.384.83.83 0 0 1-.337.224 1.591 1.591 0 0 1-.454.088c.406.25.708.54.908.871.199.33.299.701.299 1.113 0 .351-.062.643-.187.876a1.328 1.328 0 0 1-.505.536 1.619 1.619 0 0 1-.739.2 2.695 2.695 0 0 1-.884-.114 3.644 3.644 0 0 1-.889-.378 2.845 2.845 0 0 1-.659-.551 3.254 3.254 0 0 1-.477-.722 5.36 5.36 0 0 1-.337-.896l.51-.072a.587.587 0 0 1 .374.065c.118.06.204.149.257.269.056.129.117.259.183.388a1.825 1.825 0 0 0 .57.671c.128.089.279.159.454.209.196.057.368.074.514.052a.776.776 0 0 0 .365-.158.69.69 0 0 0 .22-.292.957.957 0 0 0 .075-.377c0-.169-.017-.327-.052-.473a.976.976 0 0 0-.215-.417 1.688 1.688 0 0 0-.472-.366 3.999 3.999 0 0 0-.819-.319v-.857c.284.079.52.119.707.121a.906.906 0 0 0 .444-.085.501.501 0 0 0 .234-.269c.044-.117.065-.254.065-.409 0-.331-.089-.609-.266-.832a1.366 1.366 0 0 0-.711-.463 1.087 1.087 0 0 0-.379-.047.778.778 0 0 0-.313.08.685.685 0 0 0-.23.187.824.824 0 0 0-.14.281c-.053.134-.123.213-.21.236-.085.025-.205.001-.361-.07l-.608-.287Zm10.488 4.587c0 .614-.064 1.129-.192 1.547-.125.415-.299.738-.524.968a1.44 1.44 0 0 1-.79.434 2.14 2.14 0 0 1-.983-.07 2.952 2.952 0 0 1-.982-.498 3.292 3.292 0 0 1-.781-.887 4.6 4.6 0 0 1-.519-1.27 6.724 6.724 0 0 1-.187-1.656c0-.617.062-1.133.187-1.548.125-.415.298-.738.519-.97.221-.231.482-.375.781-.431.303-.059.63-.037.982.065.353.101.68.269.983.502.305.231.569.527.79.886.225.36.399.784.524 1.271.128.488.192 1.041.192 1.657Zm-1.193-.344c0-.51-.036-.942-.108-1.297a3.315 3.315 0 0 0-.29-.882 1.563 1.563 0 0 0-.411-.533 1.374 1.374 0 0 0-.487-.262.94.94 0 0 0-.481-.018c-.153.034-.289.133-.407.296-.119.164-.214.403-.286.716-.068.315-.103.727-.103 1.237 0 .509.035.941.103 1.295.072.355.167.649.286.881.118.232.254.411.407.536.156.123.316.209.481.256a.99.99 0 0 0 .487.024c.156-.036.293-.136.411-.3.122-.163.219-.401.29-.714.072-.314.108-.726.108-1.235Zm6.993 2.02c0 .614-.063 1.129-.191 1.546-.125.416-.3.738-.524.969a1.449 1.449 0 0 1-.791.434c-.302.055-.63.032-.982-.07a2.98 2.98 0 0 1-.982-.498c-.3-.232-.56-.528-.781-.888a4.52 4.52 0 0 1-.519-1.269 6.722 6.722 0 0 1-.188-1.656c0-.617.063-1.133.188-1.548.124-.415.297-.738.519-.97.221-.231.481-.375.781-.431.302-.059.63-.038.982.064.352.102.68.27.982.503.306.231.569.526.791.886.224.36.399.784.524 1.271.128.488.191 1.04.191 1.657Zm-1.192-.344c0-.51-.036-.942-.108-1.297a3.359 3.359 0 0 0-.29-.883 1.58 1.58 0 0 0-.411-.532 1.386 1.386 0 0 0-.487-.263.954.954 0 0 0-.482-.017c-.152.034-.288.132-.407.296-.118.164-.213.403-.285.716-.069.315-.103.727-.103 1.236 0 .51.034.942.103 1.296.072.355.167.649.285.881.119.232.255.411.407.536.156.123.317.208.482.256a.99.99 0 0 0 .487.024c.155-.036.293-.136.411-.3.122-.163.218-.401.29-.715.072-.313.108-.725.108-1.234Z"/><path fill="#E2E2FF" stroke="#fff" stroke-linecap="round" stroke-width=".531" d="m205.08 124.939.56 1.694-1.732 3-.02.033-.009.037-.597 2.455c-.216.888.836 1.531 1.528.933l5.839-5.043a.94.94 0 0 0 .148-1.261l-3.451-4.778a.94.94 0 0 0-1.675.328l-.597 2.456-.018.073.024.073Zm.338 5.44 1.495-6.144 2.158 2.989-3.653 3.155Z" opacity=".5"/><path fill="#E2E2FF" stroke="#fff" stroke-linecap="round" stroke-width=".531" d="m205.496 126.533-3.653 3.155 1.494-6.144 2.159 2.989Zm-1.725-5.215a.94.94 0 0 0-1.675.328l-2.389 9.82c-.216.889.836 1.532 1.528.934l5.839-5.043a.94.94 0 0 0 .147-1.262l-3.45-4.777Z"/><path fill="#C8C7EE" d="m199.646 71.316 1.407 4.855 1.245.083 1.568-4.657-.961-.064-1.204 3.397-.484-1.77-.243-.886-.393-.638-.392-.284-.543-.036Zm7.001 5.294c.19.054.386.089.586.102.346.023.644-.018.896-.123a1.4 1.4 0 0 0 .376-.236l.042-.04.076-.08.05-.062.049-.069c.143-.22.224-.486.242-.799a1.722 1.722 0 0 0-.005-.28 1.277 1.277 0 0 0-.048-.242 1.07 1.07 0 0 0-.239-.416 1.365 1.365 0 0 0-.199-.187 1.837 1.837 0 0 0-.228-.151 3.572 3.572 0 0 0-.633-.274 5.045 5.045 0 0 1-.437-.18l-.054-.028a.686.686 0 0 1-.244-.22.47.47 0 0 1-.063-.279.567.567 0 0 1 .228-.447c.14-.108.324-.154.55-.14a1.435 1.435 0 0 1 .583.166c.188.097.367.237.535.422l.324-.765a1.386 1.386 0 0 0-.367-.334 2.122 2.122 0 0 0-.49-.229 2.178 2.178 0 0 0-.547-.107 1.636 1.636 0 0 0-.841.148c-.242.12-.437.294-.584.523a1.58 1.58 0 0 0-.241.777c-.012.206.003.389.046.551a1.134 1.134 0 0 0 .222.422c.108.124.251.236.427.338.177.1.392.192.644.274a3.3 3.3 0 0 1 .48.201.962.962 0 0 1 .136.087.445.445 0 0 1 .188.405.555.555 0 0 1-.015.104l-.019.066a.481.481 0 0 1-.197.243c-.139.093-.336.132-.588.115a1.807 1.807 0 0 1-.661-.17 2.152 2.152 0 0 1-.59-.426l-.33.765c.116.129.255.243.416.343.163.096.337.172.524.232Z"/><path fill="#C8C7EE" fill-rule="evenodd" d="m211.943 72.136-1.126-.075-1.667 4.65 1.069.07.299-.835 1.689.113.264.873 1.042.07-1.57-4.866Zm-1.126 2.974 1.126.075-.529-1.747-.597 1.672Z" clip-rule="evenodd"/><path fill="#C8C7EE" d="m205.61 71.713-.689 4.716-1.055-.07.717-4.714 1.027.068Z"/><path stroke="#C8C7EE" stroke-width=".21" d="M207.233 76.712a2.824 2.824 0 0 1-.586-.102 2.579 2.579 0 0 1-.524-.232c-.162-.1-.3-.214-.416-.343l.33-.765.061.059.059.055a1.992 1.992 0 0 0 .47.312c.207.098.427.154.661.17.108.007.206.004.294-.01a.715.715 0 0 0 .294-.105.481.481 0 0 0 .197-.243l.019-.066a.555.555 0 0 0 .002-.255.394.394 0 0 0-.055-.127.537.537 0 0 0-.12-.127l-.064-.046-.072-.041a3.257 3.257 0 0 0-.48-.2 3.526 3.526 0 0 1-.644-.275l-.096-.058-.092-.063a1.431 1.431 0 0 1-.239-.217 1.1 1.1 0 0 1-.222-.422l-.019-.085-.01-.054-.012-.095a1.76 1.76 0 0 1-.005-.317 1.58 1.58 0 0 1 .241-.777 1.43 1.43 0 0 1 .584-.523c.245-.12.526-.169.841-.148a2.178 2.178 0 0 1 .7.163l.095.042.105.052c.047.025.093.051.137.08.148.093.27.204.367.333l-.324.765a1.925 1.925 0 0 0-.535-.422 1.557 1.557 0 0 0-.468-.153 1.317 1.317 0 0 0-.115-.012c-.226-.015-.41.031-.55.139a.567.567 0 0 0-.228.447.577.577 0 0 0 .008.134.431.431 0 0 0 .132.241.91.91 0 0 0 .167.124l.054.029a5.045 5.045 0 0 0 .437.18c.245.08.456.172.633.273.047.026.092.055.135.083l.093.068.078.064c.029.025.055.051.08.077l.041.046c.037.039.07.08.1.124l.03.045.033.06c.031.058.056.121.076.187.023.075.039.155.048.241.009.088.011.182.005.281l-.011.133c-.007.057-.016.11-.027.163a1.46 1.46 0 0 1-.204.503l-.049.07-.05.061-.076.08-.042.04-.061.05a1.32 1.32 0 0 1-.206.133l-.109.053c-.252.105-.551.146-.896.123Zm-6.18-.541-1.407-4.855.543.036.426.396.359.526.243.885.484 1.771 1.204-3.397.961.064-1.568 4.657-1.245-.083Zm10.89-4.035-1.126-.075-1.667 4.65 1.069.07.299-.835 1.689.112.264.874 1.042.07-1.57-4.866Zm-1.126 2.974 1.126.075-.529-1.747-.597 1.672Zm-5.896 1.319.689-4.716-1.027-.068-.717 4.713 1.055.07Z" clip-rule="evenodd"/><path fill="#FFD08C" d="M199.446 70.798c.757.211 1.362.445 1.58 1.236l.344 1.249c-.182-.24-.344-.676-.944-1.028-.607-.356-1.088-.3-1.66-.688-.404-.274-.572-.923-.628-1.272-.006-.039.041-.059.071-.032.161.147.453.316 1.237.535Z"/><g style="mix-blend-mode:multiply"><path fill="url(#f)" d="M187.911 12.309h92.04v152.297h-92.04z"/><path fill="url(#g)" d="M187.911 12.309h92.04v152.297h-92.04z"/></g><path stroke="#fff" stroke-width="6.3" d="M195.626-44.061 269.299-55.4c6.785-1.044 12.978 4.025 13.295 10.883l5.753 124.52-5.662 127.91c-.336 7.584-7.771 12.788-15.011 10.505l-73.764-23.252a11.55 11.55 0 0 1-8.077-11.016V-32.646a11.55 11.55 0 0 1 9.793-11.415Z"/><path stroke="#0F46AD" stroke-width="3.15" d="m195.386-45.618 72.903-11.22c7.951-1.223 15.121 4.929 15.121 12.973v250.997c0 8.869-8.613 15.184-17.071 12.518l-72.902-22.981a13.124 13.124 0 0 1-9.179-12.518V-32.646a13.125 13.125 0 0 1 11.128-12.972Z"/><path stroke="url(#h)" stroke-width=".787" d="m195.207-46.785 72.902-11.22c8.667-1.333 16.483 5.372 16.483 14.14v250.997c0 9.667-9.389 16.551-18.608 13.645l-72.903-22.981a14.307 14.307 0 0 1-10.005-13.645V-32.646c0-7.06 5.152-13.066 12.131-14.14Z"/><path fill="url(#i)" fill-rule="evenodd" d="m187.231-2.94 23.728-1.458-50.696 22.416-22.649.982 49.617-21.94Z" clip-rule="evenodd"/><path fill="url(#j)" fill-rule="evenodd" d="m210.946-4.4 23.727-1.457-51.76 22.797-22.649.981L210.946-4.4Z" clip-rule="evenodd"/><path fill="url(#k)" fill-rule="evenodd" d="m234.581-5.857 23.725-1.454-52.745 23.181-22.649.981 51.669-22.708Z" clip-rule="evenodd"/><path fill="url(#l)" fill-rule="evenodd" d="m258.291-7.314 23.352-1.43.356-.015-53.7 23.452-22.738 1.077 52.73-23.084Z" clip-rule="evenodd"/><path fill="url(#m)" fill-rule="evenodd" d="m182.957 16.824 22.671-1.084v23.857c0 6.103-5.075 11.05-11.335 11.05-6.261 0-11.336-4.947-11.336-11.05V16.824Z" clip-rule="evenodd"/><path fill="url(#n)" fill-rule="evenodd" d="m228.5 14.5 54-2.5v17c0 2.972-15 2.5-27.5 0-14.351-2.87-21.5-9-25.5-13l-1-1.5Z" clip-rule="evenodd"/><path fill="url(#o)" fill-rule="evenodd" d="m137.614 18.992 22.672-1.084V39.6c0 6.103-5.076 11.05-11.336 11.05-6.261 0-11.336-4.947-11.336-11.05V18.992Z" clip-rule="evenodd"/><path fill="url(#p)" fill-rule="evenodd" d="m160.286 17.906 22.671-1.082v22.773c0 6.103-5.075 11.05-11.335 11.05-6.261 0-11.336-4.947-11.336-11.05V17.906Z" clip-rule="evenodd"/><path fill="url(#q)" fill-rule="evenodd" d="m205.629 15.744 22.671-1.082V39.6c0 6.103-5.075 11.05-11.335 11.05-6.261 0-11.336-4.947-11.336-11.05V15.744Z" clip-rule="evenodd"/><path fill="url(#r)" d="M228.3 14.695 282-8.781v23.476h-53.7Z"/><g filter="url(#s)"><path fill="#EE9393" d="M212.008 145.491c3.892 2.016 8.226-2.635 9.906-5.212l18.758-2.108c-2.922 3.951-10.126 12.837-15.574 16.772-5.447 3.934-11.58 1.639-13.966 0l-15.51-10.088c-1.104-.894-3.745-2.604-5.486-2.302-2.175.378-2.585-.567-4.445 0-1.86.568-3.783 2.238-4.697 2.837-.914.599-1.292-.378-.662-.851.631-.473 5.769-3.751 4.224-3.468-1.544.284-4.76 1.23-5.863 1.766-1.104.536-1.639-.315-.694-.851.757-.429 3.321-1.671 4.508-2.239-1.187.263-3.795.946-4.728 1.577-1.167.788-1.23-.347-.725-.788.504-.442.567-.536 1.639-1.167.857-.504 2.732-1.387 3.562-1.765-1.082.252-3.493.819-4.476 1.072-1.23.315-1.955-.41-.725-.883 1.229-.473 3.72-1.45 5.201-2.144 1.186-.555 3.058-.714 3.846-.725a49.257 49.257 0 0 0-2.553-2.363c-1.261-1.071-.694-2.87.662-1.766 1.355 1.103.252.221 2.207 1.766 1.954 1.545 3.53 1.545 5.485 2.081 1.564.429 3.512 1.734 4.291 2.334 3.649 1.998 11.922 6.499 15.815 8.515Z"/><path fill="url(#t)" d="M212.008 145.491c3.892 2.016 8.226-2.635 9.906-5.212l18.758-2.108c-2.922 3.951-10.126 12.837-15.574 16.772-5.447 3.934-11.58 1.639-13.966 0l-15.51-10.088c-1.104-.894-3.745-2.604-5.486-2.302-2.175.378-2.585-.567-4.445 0-1.86.568-3.783 2.238-4.697 2.837-.914.599-1.292-.378-.662-.851.631-.473 5.769-3.751 4.224-3.468-1.544.284-4.76 1.23-5.863 1.766-1.104.536-1.639-.315-.694-.851.757-.429 3.321-1.671 4.508-2.239-1.187.263-3.795.946-4.728 1.577-1.167.788-1.23-.347-.725-.788.504-.442.567-.536 1.639-1.167.857-.504 2.732-1.387 3.562-1.765-1.082.252-3.493.819-4.476 1.072-1.23.315-1.955-.41-.725-.883 1.229-.473 3.72-1.45 5.201-2.144 1.186-.555 3.058-.714 3.846-.725a49.257 49.257 0 0 0-2.553-2.363c-1.261-1.071-.694-2.87.662-1.766 1.355 1.103.252.221 2.207 1.766 1.954 1.545 3.53 1.545 5.485 2.081 1.564.429 3.512 1.734 4.291 2.334 3.649 1.998 11.922 6.499 15.815 8.515Z"/></g><path fill="#362F58" d="M232.287 93.823c.89-4.45 4.827-6.161 6.314-6.689 1.625-.577 5.452-.276 5.452-.276 13.661.41 20.898 18.263 21.249 24.82.281 5.245-2.498 6.946-3.922 7.141-1.834.215-6.474.632-10.361.586-4.859-.059-13.054-.586-17.21-1.581-3.325-.796-3.922-3.532-3.805-4.8.39-4.547 1.393-14.752 2.283-19.201Z"/><path fill="#A9BFFF" d="m232.432 155.882-17.871-13.868c3.599-3.723 11.797-12.424 16.381-16.849 6.847-6.608 12.969-6.298 16.661-6.608l1.583 8.75-16.754 28.575Z"/><path fill="url(#u)" d="m232.432 155.882-17.871-13.868c3.599-3.723 11.797-12.424 16.381-16.849 6.847-6.608 12.969-6.298 16.661-6.608l1.583 8.75-16.754 28.575Z"/><path fill="url(#v)" d="m232.432 155.882-17.871-13.868c3.599-3.723 11.797-12.424 16.381-16.849 6.847-6.608 12.969-6.298 16.661-6.608l1.583 8.75-16.754 28.575Z"/><path fill="#A9BFFF" d="M236.215 145.711c.297.832.274 7.184.373 10.358 9.272 6.222 27.592 15.885 25.093 7.973-3.124-9.891 6.125-16.113 6.125-25.021 0-10.914.845-15.667-10.072-19.305-5.607-1.869-12.967-1.519-15.57-.404-2.603 1.116-2.9 1.71-4.462 5.875-1.562 4.164-2.156 3.569-4.239 8.998-2.082 5.429 2.38 10.486 2.752 11.526Z"/><path fill="url(#w)" d="M236.215 145.711c.297.832.274 7.184.373 10.358 9.272 6.222 27.592 15.885 25.093 7.973-3.124-9.891 6.125-16.113 6.125-25.021 0-10.914.845-15.667-10.072-19.305-5.607-1.869-12.967-1.519-15.57-.404-2.603 1.116-2.9 1.71-4.462 5.875-1.562 4.164-2.156 3.569-4.239 8.998-2.082 5.429 2.38 10.486 2.752 11.526Z"/><path fill="url(#x)" d="M236.215 145.711c.297.832.274 7.184.373 10.358 9.272 6.222 27.592 15.885 25.093 7.973-3.124-9.891 6.125-16.113 6.125-25.021 0-10.914.845-15.667-10.072-19.305-5.607-1.869-12.967-1.519-15.57-.404-2.603 1.116-2.9 1.71-4.462 5.875-1.562 4.164-2.156 3.569-4.239 8.998-2.082 5.429 2.38 10.486 2.752 11.526Z"/><path fill="url(#y)" fill-opacity=".5" d="M236.215 145.711c.297.832.274 7.184.373 10.358 9.272 6.222 27.592 15.885 25.093 7.973-3.124-9.891 6.125-16.113 6.125-25.021 0-10.914.845-15.667-10.072-19.305-5.607-1.869-12.967-1.519-15.57-.404-2.603 1.116-2.9 1.71-4.462 5.875-1.562 4.164-2.156 3.569-4.239 8.998-2.082 5.429 2.38 10.486 2.752 11.526Z"/><path fill="#5677D8" d="m236.425 152.807-7.091 27.236 33.639 8.896c1.339-5.968.834-4.17 2.03-10.08 1.394-6.887-.81-14.868-4.693-21.118 0 0-2.413.636-8.85 0-8.59-.848-13.62-3.328-15.035-4.934Z"/><path fill="url(#z)" d="m236.425 152.807-7.091 27.236 33.639 8.896c1.339-5.968.834-4.17 2.03-10.08 1.394-6.887-.81-14.868-4.693-21.118 0 0-2.413.636-8.85 0-8.59-.848-13.62-3.328-15.035-4.934Z"/><g filter="url(#A)"><path fill="#EE9393" d="M241.756 163.543c4.541-2.477 5.234-7.175 5.013-9.214 4.573-1.491 13.489-2.682 12.566 4.488-1.153 8.963-3.533 9.856-6.768 11.455-3.236 1.599-18.1 5.221-20.793 5.966-2.065.571-2.614 1.138-3.779 1.844-.732.445-1.803 1.323-3.582.893-1.69-.408-2.776-.632-5.802-.632-3.397 0-5.403 2.166-5.868 2.669l-.008.008c-.807.871-1.913.343-1.265-.52 1.004-1.339 2.938-3.124 2.938-3.124-2.64-.372-3.719.781-5.43 2.045-1.711 1.265-2.678-.186-1.971-1.078.565-.714 1.946-2.703 2.566-3.608-.52-.087-1.904-.312-3.273-.521-1.71-.26-1.673-1.562 0-1.309 1.674.252 8.92.884 11.5.958 2.064.059 4.251-.614 5.086-.958 4.398-2.089 14.33-6.885 18.87-9.362Z"/><path fill="url(#B)" d="M241.756 163.543c4.541-2.477 5.234-7.175 5.013-9.214 4.573-1.491 13.489-2.682 12.566 4.488-1.153 8.963-3.533 9.856-6.768 11.455-3.236 1.599-18.1 5.221-20.793 5.966-2.065.571-2.614 1.138-3.779 1.844-.732.445-1.803 1.323-3.582.893-1.69-.408-2.776-.632-5.802-.632-3.397 0-5.403 2.166-5.868 2.669l-.008.008c-.807.871-1.913.343-1.265-.52 1.004-1.339 2.938-3.124 2.938-3.124-2.64-.372-3.719.781-5.43 2.045-1.711 1.265-2.678-.186-1.971-1.078.565-.714 1.946-2.703 2.566-3.608-.52-.087-1.904-.312-3.273-.521-1.71-.26-1.673-1.562 0-1.309 1.674.252 8.92.884 11.5.958 2.064.059 4.251-.614 5.086-.958 4.398-2.089 14.33-6.885 18.87-9.362Z"/></g><path fill="#A9BFFF" d="m266.941 165.234-24.026-6.275c1.789-5.972 5.599-18.812 7.1-24.604 1.734-6.688 5.285-15.11 11.807-12.798 6.522 2.311 6.522 10.155 6.77 15.027.198 3.897-1.018 20.724-1.651 28.65Z"/><path fill="url(#C)" d="m266.941 165.234-24.026-6.275c1.789-5.972 5.599-18.812 7.1-24.604 1.734-6.688 5.285-15.11 11.807-12.798 6.522 2.311 6.522 10.155 6.77 15.027.198 3.897-1.018 20.724-1.651 28.65Z"/><path fill="url(#D)" d="m266.941 165.234-24.026-6.275c1.789-5.972 5.599-18.812 7.1-24.604 1.734-6.688 5.285-15.11 11.807-12.798 6.522 2.311 6.522 10.155 6.77 15.027.198 3.897-1.018 20.724-1.651 28.65Z"/><g filter="url(#E)"><path fill="#EF9393" d="M237.867 90.541s.758 5.163 7.936 7.125c.461.126.8.53.816 1.008l.125 3.797c.009.282.407.358.522.1.51-1.144 1.316-2.847 1.881-3.527.884-1.064 2.868 1.089 2.17 3.352-.697 2.263-1.511 2.308-1.511 2.308l2.09 10.616a4.723 4.723 0 0 0 3.264 3.609l1.268.385-7.642 5.372a2.624 2.624 0 0 1-3.67-.657l-3.305-4.792.414-.123a2.625 2.625 0 0 0 1.827-3.014l-.675-3.484s-4.499 2.866-6.346.358c-1.297-1.761-2.62-5.152-3.324-5.742-.527-.442-1.034-1.529-1.257-2.049a.528.528 0 0 1 .076-.529c.417-.543 1.366-1.882 1.346-2.835-.042-1.951-1.539-8.901 3.995-11.278Z"/></g><mask id="G" width="10" height="15" x="242" y="105" maskUnits="userSpaceOnUse" style="mask-type:alpha"><path fill="#D9D9D9" fill-rule="evenodd" d="M242.537 119a2.624 2.624 0 0 0 1.516-2.9l-.674-3.484s-.388.247-.983.533c1.096-.591 2.397-1.428 3.234-2.293 1.424-1.471 2.338-3.41 2.522-4.574l1.837-.657 1.877 9.536-8.996 4.714-.333-.875Z" clip-rule="evenodd"/></mask><g filter="url(#F)" mask="url(#G)"><path fill="#BC6363" d="M238.257 112.208c3.006-.687 6.152-2.652 7.239-7.446 3.864 7.487-.173 8.203-1.078 10.575-.905 2.373-.435 3.983-2.325 4.779l-3.836-7.89v-.018Z"/></g><mask id="H" width="25" height="36" x="232" y="90" maskUnits="userSpaceOnUse" style="mask-type:alpha"><path fill="#EF9393" d="M237.867 90.541s.758 5.163 7.936 7.125c.461.126.8.53.816 1.008l.125 3.797c.009.282.407.358.522.1.51-1.144 1.316-2.847 1.881-3.527.884-1.064 2.868 1.089 2.17 3.352-.697 2.263-1.511 2.308-1.511 2.308l2.09 10.616a4.723 4.723 0 0 0 3.264 3.609l1.268.385-7.642 5.372a2.624 2.624 0 0 1-3.67-.657l-3.305-4.792.414-.123a2.625 2.625 0 0 0 1.827-3.014l-.675-3.484s-4.499 2.866-6.346.358c-1.297-1.761-2.62-5.152-3.324-5.742-.527-.442-1.034-1.529-1.257-2.049a.528.528 0 0 1 .076-.529c.417-.543 1.366-1.882 1.346-2.835-.042-1.951-1.539-8.901 3.995-11.278Z"/></mask><g mask="url(#H)"><g filter="url(#I)" opacity=".75"><path fill="#BD6464" d="m235.267 104.382-4.061.313 3.973 10.44.088-10.753Z"/></g><g filter="url(#J)"><path fill="url(#K)" d="m239.036 104.509-7.58.958 4.373-9.343 3.207 8.385Z"/></g></g><path stroke="#BC6363" stroke-linecap="round" stroke-linejoin="round" stroke-width=".575" d="M250.176 101.615s.354-1.217-.24-1.377c-.595-.159-1.411 2.632-1.411 2.632"/><path fill="url(#L)" fill-rule="evenodd" d="M142.661 120.034 95.694 55.088a1.424 1.424 0 0 0-1.779-.446L64.662 68.927l77.474 53.292a1.576 1.576 0 0 0 .525-2.184Z" clip-rule="evenodd"/><path fill="url(#M)" fill-rule="evenodd" d="M142.661 120.034 95.694 55.088a1.424 1.424 0 0 0-1.779-.446L64.662 68.927l77.474 53.292a1.576 1.576 0 0 0 .525-2.184Z" clip-rule="evenodd"/><path fill="#FFB800" d="M94.637 63.088h-2.184v.443c-6.898 1.881-12.07 9.589-12.07 18.814 0 9.226 5.172 16.95 12.07 18.815v.443h2.184c8.468 0 15.331-8.62 15.331-19.258 0-10.637-6.863-19.257-15.331-19.257Z"/><path fill="#FFC700" d="M95.518 65.914h7.115a14.09 14.09 0 0 0-1.235-.865h-5.88v.865Zm0 2.594h9.793c-.26-.3-.512-.588-.775-.865h-9.018v.865Zm11.564 2.595H95.518v-.865h11.038c.183.28.36.557.526.865Zm-11.564 2.594h12.816a22.203 22.203 0 0 0-.363-.865H95.518v.865Zm13.674 2.594H95.518v-.864h13.428c.09.283.17.556.246.864Zm-13.674 2.595h14.203c-.041-.29-.09-.581-.142-.865H95.518v.865Zm14.432 2.594H95.518v-.865h14.387c.02.287.038.575.045.865Zm-.038 2.488c.019-.252.038-.504.038-.758H95.518v.865h14.387l.007-.107Zm-.191 1.836c-.041.29-.09.581-.142.865H95.518v-.865h14.203Zm-.775 3.459c.09-.283.17-.57.246-.864H95.518v.864h13.428Zm-.612 1.73c-.114.294-.239.581-.367.865H95.514v-.865h12.82Zm-1.778 3.459c.18-.28.36-.57.526-.864H95.518v.864h11.038Zm-1.245 1.73c-.246.3-.498.588-.761.865h-9.032v-.865h9.793Zm-3.926 3.459a14.29 14.29 0 0 0 1.248-.865h-7.13v.865h5.882Z"/><path fill="url(#N)" d="M94.637 63.088h-2.184v.443c-6.898 1.881-12.07 9.589-12.07 18.814 0 9.226 5.172 16.95 12.07 18.815v.443h2.184c8.468 0 15.331-8.62 15.331-19.258 0-10.637-6.863-19.257-15.331-19.257Z" style="mix-blend-mode:multiply"/><path fill="url(#O)" d="M94.636 63.088h-2.184v.443c-6.898 1.881-12.07 9.589-12.07 18.814 0 9.226 5.172 16.95 12.07 18.815v.443h2.184c8.468 0 15.331-8.62 15.331-19.258 0-10.637-6.863-19.257-15.331-19.257Z" style="mix-blend-mode:multiply"/><path fill="#FF9700" d="M92.452 101.603c8.468 0 15.332-8.622 15.332-19.258 0-10.635-6.864-19.257-15.332-19.257-8.467 0-15.33 8.622-15.33 19.257 0 10.636 6.863 19.258 15.33 19.258Z"/><path fill="#E16C0F" d="M92.452 99.908c7.42 0 13.436-7.863 13.436-17.562 0-9.7-6.015-17.563-13.436-17.563-7.42 0-13.435 7.863-13.435 17.563s6.015 17.562 13.435 17.562Z"/><path fill="url(#P)" d="M92.452 99.908c7.42 0 13.436-7.863 13.436-17.562 0-9.7-6.015-17.563-13.436-17.563-7.42 0-13.435 7.863-13.435 17.563s6.015 17.562 13.435 17.562Z" style="mix-blend-mode:multiply"/><path fill="url(#Q)" d="M79.85 82.346c0-9.517 5.794-17.258 13.02-17.55h-.418c-7.42 0-13.435 7.864-13.435 17.563 0 9.7 6.015 17.563 13.435 17.563h.419c-7.233-.318-13.02-8.06-13.02-17.576Z" style="mix-blend-mode:multiply"/><path fill="#C55700" d="M93.306 75.85c0-1.622-.972-2.1-2.819-2.02l-3.085.135V71.3l11.54-.692v2.85l-2.816.125a5.01 5.01 0 0 1 .837 2.148l1.979-.058v2.847l-1.98.03c-.269 3.214-2.784 4.968-5.634 4.93l7.8 10.6-3.957-.28-7.783-10.379V80.76h3.085c1.848 0 2.82-.53 2.82-2.152l-5.905.094v-2.667l5.918-.184Z"/><g filter="url(#R)"><path fill="url(#S)" d="M92.902 75.85c0-1.622-.972-2.1-2.815-2.02L87 73.965V71.3l11.536-.692v2.85l-2.815.125c.444.64.73 1.377.837 2.148l1.978-.058v2.847l-1.978.03c-.266 3.214-2.768 4.968-5.635 4.93l7.818 10.6-3.961-.28L87 83.421V80.76h3.086c1.843 0 2.815-.53 2.815-2.152L87 78.702v-2.667l5.901-.184Z"/></g><path fill="url(#T)" d="M92.902 75.85c0-1.622-.972-2.1-2.815-2.02L87 73.965V71.3l11.536-.692v2.85l-2.815.125c.444.64.73 1.377.837 2.148l1.978-.058v2.847l-1.978.03c-.266 3.214-2.768 4.968-5.635 4.93l7.818 10.6-3.961-.28L87 83.421V80.76h3.086c1.843 0 2.815-.53 2.815-2.152L87 78.702v-2.667l5.901-.184Z"/><path fill="url(#U)" d="M140.963 122.39 64.662 68.928l-6.502 25.33a1.424 1.424 0 0 0 .942 1.709l81.861 26.423Z"/><path fill="url(#V)" fill-rule="evenodd" d="M142.135 122.218 64.663 68.927l-32.264-2.88c-1.414-.126-1.954 1.797-.682 2.425l108.914 53.815c.208.101.442.157.689.157.298 0 .577-.082.815-.226Z" clip-rule="evenodd"/><path fill="url(#W)" fill-rule="evenodd" d="M142.135 122.218 64.663 68.927l-32.264-2.88c-1.414-.126-1.954 1.797-.682 2.425l108.914 53.815c.208.101.442.157.689.157.298 0 .577-.082.815-.226Z" clip-rule="evenodd"/><path fill="url(#X)" fill-rule="evenodd" d="m157.023 142.27-45.524 1.333a1.836 1.836 0 0 0-1.739 2.235l2.962 13.333 44.756-16.114a.797.797 0 0 0-.455-.787Z" clip-rule="evenodd"/><path fill="url(#Y)" fill-rule="evenodd" d="m157.023 142.27-45.524 1.333a1.836 1.836 0 0 0-1.739 2.235l2.962 13.333 44.756-16.114a.797.797 0 0 0-.455-.787Z" clip-rule="evenodd"/><path fill="#FFB800" d="m119.167 145.131-.644.898.182.13c-1.262 3.39.379 7.789 4.17 10.511 3.791 2.722 8.491 2.875 11.292.591l.182.131.645-.898c2.498-3.48.981-8.843-3.391-11.981-4.371-3.139-9.938-2.862-12.436.618Z"/><path fill="#FFC700" d="m120.588 145.605 2.099-2.924a7.287 7.287 0 0 0-.719.252l-1.735 2.417.355.255Zm1.066.765 2.889-4.024c-.2.018-.392.037-.584.063l-2.66 3.706.355.255Zm4.478-3.986-3.412 4.752-.355-.255 3.256-4.536c.17.007.335.016.511.039Zm-2.346 5.517 3.781-5.266a9.89 9.89 0 0 0-.462-.106l-3.674 5.117.355.255Zm5.101-4.854-4.035 5.62-.355-.256 3.962-5.518c.143.047.279.095.428.154Zm-2.969 6.385 4.191-5.837a12.146 12.146 0 0 0-.397-.196l-4.149 5.778.355.255Zm5.324-5.165-4.257 5.93-.356-.255 4.245-5.912c.124.077.247.154.368.237Zm1.012.749a5.009 5.009 0 0 0-.301-.239l-4.258 5.931.356.255 4.244-5.912-.041-.035Zm.698.621c.107.102.212.208.313.313l-4.148 5.778-.356-.255 4.191-5.836Zm1.193 1.339a8.508 8.508 0 0 0-.283-.357l-4.034 5.62.355.255 3.962-5.518Zm.53.761c.087.134.168.27.247.406l-3.674 5.118-.355-.256 3.782-5.268Zm.897 1.752a9.662 9.662 0 0 0-.2-.472l-3.412 4.752.355.256 3.257-4.536Zm.343 1.022c.051.189.095.378.131.567l-2.665 3.712-.355-.255 2.889-4.024Zm.263 2.633c.018-.255.023-.512.013-.768l-2.103 2.93.355.255 1.735-2.417Z"/><path fill="url(#Z)" d="m119.167 145.131-.644.898.182.13c-1.262 3.39.379 7.789 4.17 10.511 3.791 2.722 8.491 2.875 11.292.591l.182.131.645-.898c2.498-3.48.981-8.843-3.391-11.981-4.371-3.139-9.938-2.862-12.436.618Z" style="mix-blend-mode:multiply"/><path fill="url(#aa)" d="m119.166 145.131-.644.898.182.13c-1.262 3.39.379 7.789 4.17 10.511 3.791 2.722 8.491 2.875 11.293.591l.181.131.645-.898c2.498-3.48.981-8.843-3.391-11.981-4.371-3.139-9.938-2.862-12.436.618Z" style="mix-blend-mode:multiply"/><path fill="#FF9700" d="M134.349 157.393c2.498-3.479.98-8.844-3.39-11.982-4.371-3.137-9.939-2.86-12.437.619-2.498 3.479-.98 8.844 3.39 11.982 4.371 3.137 9.939 2.86 12.437-.619Z"/><path fill="#E16C0F" d="M133.652 156.892c2.19-3.049.733-7.84-3.253-10.702-3.985-2.862-8.991-2.709-11.18.34s-.733 7.841 3.253 10.702c3.986 2.862 8.991 2.71 11.18-.34Z"/><path fill="url(#ab)" d="M133.652 156.892c2.19-3.049.733-7.84-3.253-10.702-3.985-2.862-8.991-2.709-11.18.34s-.733 7.841 3.253 10.702c3.986 2.862 8.991 2.71 11.18-.34Z" style="mix-blend-mode:multiply"/><path fill="url(#ac)" d="M122.718 156.889c-3.911-2.807-5.382-7.472-3.37-10.527a14.26 14.26 0 0 0-.123.172c-2.19 3.049-.733 7.84 3.253 10.702 3.985 2.862 8.991 2.709 11.18-.34l.124-.172c-2.265 2.879-7.154 2.973-11.064.165Z" style="mix-blend-mode:multiply"/><path fill="#C55700" d="M124.478 148.814c-.307-.605-.89-.669-1.81-.423l-1.536.411-.505-.993 5.71-1.608.54 1.062-1.401.376c.345.188.629.429.83.704l.991-.254.539 1.062-.995.243c.472 1.23-.469 2.178-1.918 2.497l5.956 3.04-2.056.358-5.906-2.958-.505-.994 1.562-.361c.935-.216 1.327-.527 1.019-1.132l-2.971.726-.505-.995 2.961-.761Z"/><g filter="url(#ad)"><path fill="url(#ae)" d="M124.274 148.857c-.307-.605-.89-.669-1.808-.423l-1.536.411-.505-.993 5.708-1.608.54 1.063-1.401.376c.346.186.63.427.83.703l.991-.254.539 1.062-.995.243c.474 1.229-.46 2.176-1.918 2.497l5.965 3.038-2.058.359-5.904-2.959-.505-.994 1.562-.361c.933-.216 1.325-.527 1.017-1.132l-2.969.726-.505-.995 2.952-.759Z"/></g><path fill="url(#af)" d="M124.274 148.857c-.307-.605-.89-.669-1.808-.423l-1.536.411-.505-.993 5.708-1.608.54 1.063-1.401.376c.346.186.63.427.83.703l.991-.254.539 1.062-.995.243c.474 1.229-.46 2.176-1.918 2.497l5.965 3.038-2.058.359-5.904-2.959-.505-.994 1.562-.361c.933-.216 1.325-.527 1.017-1.132l-2.969.726-.505-.995 2.952-.759Z"/><path fill="url(#ag)" d="m157.203 143.591-44.48 15.581 9.758 10.013a1.838 1.838 0 0 0 2.462.154l32.26-25.748Z"/><path fill="url(#ah)" fill-rule="evenodd" d="m157.479 143.059-44.756 16.113-6.849 11.189c-.709 1.159.594 2.5 1.773 1.824l49.442-28.384-.026-.104a.795.795 0 0 0 .416-.638Z" clip-rule="evenodd"/><path fill="url(#ai)" fill-rule="evenodd" d="m157.479 143.059-44.756 16.113-6.849 11.189c-.709 1.159.594 2.5 1.773 1.824l49.442-28.384-.026-.104a.795.795 0 0 0 .416-.638Z" clip-rule="evenodd"/><g filter="url(#aj)"><path fill="#fff" d="m146.73 64.957 1.441 7.072a9.831 9.831 0 0 0 6.084 7.207l3.4 1.316-3.4 1.317a9.831 9.831 0 0 0-6.084 7.207l-1.441 7.072-1.441-7.072a9.835 9.835 0 0 0-6.085-7.207l-3.4-1.317 3.4-1.316a9.835 9.835 0 0 0 6.085-7.207l1.441-7.072Z"/></g><g filter="url(#ak)"><path fill="#fff" d="m131.628 56.922.702 3.445a4.791 4.791 0 0 0 2.965 3.511l1.656.641-1.656.642a4.791 4.791 0 0 0-2.965 3.51l-.702 3.446-.702-3.445a4.788 4.788 0 0 0-2.964-3.511l-1.656-.642 1.656-.64a4.788 4.788 0 0 0 2.964-3.512l.702-3.445Z"/></g></g><defs><linearGradient id="b" x1="140" x2="140" y1="0" y2="200" gradientUnits="userSpaceOnUse"><stop stop-color="#CAE6FF"/><stop offset="1" stop-color="#CAD9F1"/></linearGradient><linearGradient id="c" x1="294.531" x2="272.221" y1="-42.905" y2="-14.77" gradientUnits="userSpaceOnUse"><stop stop-color="#B6DCFF"/><stop offset=".038" stop-color="#7AB0FF"/><stop offset=".087" stop-color="#7ABEFD"/><stop offset=".203" stop-color="#2D7DF4"/></linearGradient><linearGradient id="d" x1="283.495" x2="212.133" y1="217.009" y2="17.72" gradientUnits="userSpaceOnUse"><stop offset=".004" stop-color="#0F46AD"/><stop offset=".037" stop-color="#408BFF"/><stop offset=".067" stop-color="#2363CE"/><stop offset="1" stop-color="#2363CE" stop-opacity="0"/></linearGradient><linearGradient id="e" x1="232.949" x2="227.389" y1="182.27" y2="203.399" gradientUnits="userSpaceOnUse"><stop stop-color="#57B1FF"/><stop offset="1" stop-color="#3C90FF"/></linearGradient><linearGradient id="f" x1="216.465" x2="210.837" y1="75.352" y2="82.304" gradientUnits="userSpaceOnUse"><stop stop-color="#C3E5FF"/><stop offset="1" stop-color="#fff" stop-opacity="0"/></linearGradient><linearGradient id="g" x1="233.931" x2="233.931" y1="12.309" y2="164.606" gradientUnits="userSpaceOnUse"><stop stop-color="#fff" stop-opacity="0"/><stop offset=".901" stop-color="#fff"/></linearGradient><linearGradient id="h" x1="233.834" x2="233.834" y1="-61" y2="227.179" gradientUnits="userSpaceOnUse"><stop stop-color="#509BF8"/><stop offset="1" stop-color="#509BF8" stop-opacity="0"/></linearGradient><linearGradient id="i" x1="174.286" x2="175.161" y1="-2.81" y2="17.373" gradientUnits="userSpaceOnUse"><stop stop-color="#5B80EE"/><stop offset=".561" stop-color="#7D9EFF"/></linearGradient><linearGradient id="j" x1="197.469" x2="198.357" y1="-4.245" y2="16.271" gradientUnits="userSpaceOnUse"><stop stop-color="#D7EDFF"/><stop offset=".561" stop-color="#fff"/></linearGradient><linearGradient id="k" x1="220.609" x2="221.513" y1="-5.678" y2="15.179" gradientUnits="userSpaceOnUse"><stop stop-color="#5B80EE"/><stop offset=".561" stop-color="#7D9EFF"/></linearGradient><linearGradient id="l" x1="243.78" x2="244.697" y1="-7.103" y2="14.074" gradientUnits="userSpaceOnUse"><stop stop-color="#D7EDFF"/><stop offset=".561" stop-color="#fff"/></linearGradient><linearGradient id="m" x1="194.293" x2="194.293" y1="15.74" y2="50.647" gradientUnits="userSpaceOnUse"><stop stop-color="#5B80EE"/><stop offset=".561" stop-color="#7D9EFF"/></linearGradient><linearGradient id="n" x1="257.169" x2="257.169" y1="12.284" y2="29.284" gradientUnits="userSpaceOnUse"><stop stop-color="#6486EC"/><stop offset=".561" stop-color="#7D9EFF"/></linearGradient><linearGradient id="o" x1="148.95" x2="148.95" y1="17.908" y2="50.65" gradientUnits="userSpaceOnUse"><stop stop-color="#5B80EE"/><stop offset=".561" stop-color="#7D9EFF"/></linearGradient><linearGradient id="p" x1="171.622" x2="171.622" y1="16.824" y2="50.648" gradientUnits="userSpaceOnUse"><stop stop-color="#D7EDFF"/><stop offset=".561" stop-color="#fff"/></linearGradient><linearGradient id="q" x1="216.965" x2="216.965" y1="14.662" y2="50.651" gradientUnits="userSpaceOnUse"><stop stop-color="#D7EDFF"/><stop offset=".561" stop-color="#fff"/></linearGradient><linearGradient id="r" x1="255.15" x2="255.15" y1="-8.781" y2="14.695" gradientUnits="userSpaceOnUse"><stop stop-color="#5B80EE"/><stop offset=".561" stop-color="#7D9EFF"/></linearGradient><linearGradient id="t" x1="219.874" x2="216.292" y1="149.1" y2="151.276" gradientUnits="userSpaceOnUse"><stop stop-color="#BC6363"/><stop offset="1" stop-color="#EE9393" stop-opacity="0"/></linearGradient><linearGradient id="u" x1="237.664" x2="222.547" y1="145.503" y2="135.122" gradientUnits="userSpaceOnUse"><stop stop-color="#6B8CED"/><stop offset="1" stop-color="#6B8CED" stop-opacity="0"/></linearGradient><linearGradient id="v" x1="231.873" x2="233.293" y1="120.369" y2="138.4" gradientUnits="userSpaceOnUse"><stop stop-color="#A9BFFF"/><stop offset="1" stop-color="#A9BFFF" stop-opacity="0"/></linearGradient><linearGradient id="w" x1="240.956" x2="247.024" y1="155.829" y2="131.469" gradientUnits="userSpaceOnUse"><stop stop-color="#6B8CED"/><stop offset=".194" stop-color="#6B8CED" stop-opacity=".56"/><stop offset=".35" stop-color="#6B8CED"/><stop offset="1" stop-color="#6B8CED" stop-opacity="0"/></linearGradient><linearGradient id="x" x1="237.63" x2="243.641" y1="128.592" y2="140.586" gradientUnits="userSpaceOnUse"><stop stop-color="#A9BFFF"/><stop offset="1" stop-color="#A9BFFF" stop-opacity="0"/></linearGradient><linearGradient id="y" x1="250.367" x2="242.19" y1="137.544" y2="141.603" gradientUnits="userSpaceOnUse"><stop stop-color="#A9BFFF"/><stop offset="1" stop-color="#A9BFFF" stop-opacity="0"/></linearGradient><linearGradient id="z" x1="265.212" x2="229.464" y1="191.582" y2="185.699" gradientUnits="userSpaceOnUse"><stop stop-color="#5677D8" stop-opacity=".76"/><stop offset=".387" stop-color="#1D3E9F"/><stop offset=".73" stop-color="#1D3E9F"/><stop offset="1" stop-color="#5677D8" stop-opacity=".94"/></linearGradient><linearGradient id="B" x1="251.99" x2="249.086" y1="162.749" y2="166.97" gradientUnits="userSpaceOnUse"><stop stop-color="#BC6363"/><stop offset="1" stop-color="#EE9393" stop-opacity="0"/></linearGradient><linearGradient id="C" x1="268.614" x2="244.807" y1="155.79" y2="151.172" gradientUnits="userSpaceOnUse"><stop stop-color="#6B8CED" stop-opacity="0"/><stop offset=".344" stop-color="#6B8CED"/><stop offset="1" stop-color="#6B8CED" stop-opacity="0"/></linearGradient><linearGradient id="D" x1="255.764" x2="259.394" y1="123.946" y2="142.927" gradientUnits="userSpaceOnUse"><stop stop-color="#A9BFFF"/><stop offset="1" stop-color="#A9BFFF" stop-opacity="0"/></linearGradient><linearGradient id="K" x1="235.324" x2="235.579" y1="105.571" y2="96.117" gradientUnits="userSpaceOnUse"><stop offset=".135" stop-color="#EF9393"/><stop offset=".75" stop-color="#EF9393" stop-opacity="0"/></linearGradient><linearGradient id="L" x1="123.219" x2="111.85" y1="101.263" y2="113.087" gradientUnits="userSpaceOnUse"><stop stop-color="#fff"/><stop offset="1" stop-color="#96B7D6"/></linearGradient><linearGradient id="M" x1="87.975" x2="83.654" y1="66.701" y2="91.713" gradientUnits="userSpaceOnUse"><stop stop-color="#fff"/><stop offset="1" stop-color="#fff" stop-opacity="0"/></linearGradient><linearGradient id="N" x1="99.939" x2="99.939" y1="102.573" y2="77.14" gradientUnits="userSpaceOnUse"><stop offset=".339" stop-color="#F9A825"/><stop offset="1" stop-color="#fff" stop-opacity="0"/></linearGradient><linearGradient id="O" x1="99.938" x2="99.938" y1="102.573" y2="62.022" gradientUnits="userSpaceOnUse"><stop offset=".339" stop-color="#fff" stop-opacity="0"/><stop offset=".688" stop-color="#fff" stop-opacity=".9"/><stop offset=".964" stop-color="#fff" stop-opacity="0"/></linearGradient><linearGradient id="P" x1="92.452" x2="76.006" y1="70.698" y2="105.265" gradientUnits="userSpaceOnUse"><stop offset=".02" stop-color="#FCD842" stop-opacity="0"/><stop offset=".444" stop-color="#C9892C"/></linearGradient><linearGradient id="S" x1="92.871" x2="88.085" y1="70.609" y2="84.744" gradientUnits="userSpaceOnUse"><stop stop-color="#FFA800"/><stop offset="1" stop-color="#E16C0F"/></linearGradient><linearGradient id="T" x1="92.871" x2="88.085" y1="70.609" y2="84.744" gradientUnits="userSpaceOnUse"><stop stop-color="#FFA800" stop-opacity="0"/><stop offset="1" stop-color="#E16C0F"/></linearGradient><linearGradient id="U" x1="94.564" x2="87.445" y1="98.901" y2="113.995" gradientUnits="userSpaceOnUse"><stop stop-color="#8EB2D3"/><stop offset=".714" stop-color="#F0F7FF"/></linearGradient><linearGradient id="V" x1="81.153" x2="87.522" y1="97.852" y2="85.537" gradientUnits="userSpaceOnUse"><stop stop-color="#D2E0ED"/><stop offset="1" stop-color="#fff"/></linearGradient><linearGradient id="W" x1="121.627" x2="104.573" y1="104.446" y2="117.407" gradientUnits="userSpaceOnUse"><stop stop-color="#fff"/><stop offset="1" stop-color="#fff" stop-opacity="0"/></linearGradient><linearGradient id="X" x1="142.408" x2="143.569" y1="144.017" y2="152.646" gradientUnits="userSpaceOnUse"><stop stop-color="#fff"/><stop offset="1" stop-color="#96B7D6"/></linearGradient><linearGradient id="Y" x1="116.357" x2="126.076" y1="147.262" y2="157.487" gradientUnits="userSpaceOnUse"><stop stop-color="#fff"/><stop offset="1" stop-color="#fff" stop-opacity="0"/></linearGradient><linearGradient id="Z" x1="136.956" x2="126.506" y1="154.602" y2="147.099" gradientUnits="userSpaceOnUse"><stop offset=".339" stop-color="#F9A825"/><stop offset="1" stop-color="#fff" stop-opacity="0"/></linearGradient><linearGradient id="aa" x1="136.955" x2="120.292" y1="154.602" y2="142.638" gradientUnits="userSpaceOnUse"><stop offset=".339" stop-color="#fff" stop-opacity="0"/><stop offset=".688" stop-color="#fff" stop-opacity=".9"/><stop offset=".964" stop-color="#fff" stop-opacity="0"/></linearGradient><linearGradient id="ab" x1="121.649" x2="131.002" y1="148.275" y2="165.231" gradientUnits="userSpaceOnUse"><stop offset=".02" stop-color="#FCD842" stop-opacity="0"/><stop offset=".444" stop-color="#C9892C"/></linearGradient><linearGradient id="ae" x1="123.265" x2="123.171" y1="146.907" y2="152.732" gradientUnits="userSpaceOnUse"><stop stop-color="#FFA800"/><stop offset="1" stop-color="#E16C0F"/></linearGradient><linearGradient id="af" x1="123.265" x2="123.171" y1="146.907" y2="152.732" gradientUnits="userSpaceOnUse"><stop stop-color="#FFA800" stop-opacity="0"/><stop offset="1" stop-color="#E16C0F"/></linearGradient><linearGradient id="ag" x1="133.862" x2="137.964" y1="155.728" y2="163.106" gradientUnits="userSpaceOnUse"><stop stop-color="#8EB2D3"/><stop offset=".714" stop-color="#F0F7FF"/></linearGradient><linearGradient id="ah" x1="130.866" x2="127.838" y1="160.085" y2="154.154" gradientUnits="userSpaceOnUse"><stop stop-color="#D2E0ED"/><stop offset="1" stop-color="#fff"/></linearGradient><linearGradient id="ai" x1="144.798" x2="145.092" y1="146.106" y2="156.402" gradientUnits="userSpaceOnUse"><stop stop-color="#fff"/><stop offset="1" stop-color="#fff" stop-opacity="0"/></linearGradient><filter id="s" width="66.354" height="29.816" x="174.318" y="127.299" color-interpolation-filters="sRGB" filterUnits="userSpaceOnUse"><feFlood flood-opacity="0" result="BackgroundImageFix"/><feBlend in="SourceGraphic" in2="BackgroundImageFix" result="shape"/><feColorMatrix in="SourceAlpha" result="hardAlpha" values="0 0 0 0 0 0 0 0 0 0 0 0 0 0 0 0 0 0 127 0"/><feOffset dx="-2.1" dy="-4.2"/><feGaussianBlur stdDeviation="1.575"/><feComposite in2="hardAlpha" k2="-1" k3="1" operator="arithmetic"/><feColorMatrix values="0 0 0 0 0.737255 0 0 0 0 0.388235 0 0 0 0 0.388235 0 0 0 0.75 0"/><feBlend in2="shape" result="effect1_innerShadow_33_34"/><feColorMatrix in="SourceAlpha" result="hardAlpha" values="0 0 0 0 0 0 0 0 0 0 0 0 0 0 0 0 0 0 127 0"/><feOffset dx="-.525" dy="-.262"/><feGaussianBlur stdDeviation=".787"/><feComposite in2="hardAlpha" k2="-1" k3="1" operator="arithmetic"/><feColorMatrix values="0 0 0 0 0.905882 0 0 0 0 0.603922 0 0 0 0 0.603922 0 0 0 1 0"/><feBlend in2="effect1_innerShadow_33_34" result="effect2_innerShadow_33_34"/></filter><filter id="A" width="57.52" height="29.318" x="201.881" y="152.149" color-interpolation-filters="sRGB" filterUnits="userSpaceOnUse"><feFlood flood-opacity="0" result="BackgroundImageFix"/><feBlend in="SourceGraphic" in2="BackgroundImageFix" result="shape"/><feColorMatrix in="SourceAlpha" result="hardAlpha" values="0 0 0 0 0 0 0 0 0 0 0 0 0 0 0 0 0 0 127 0"/><feOffset dx="-6.3" dy="-1.05"/><feGaussianBlur stdDeviation="1.575"/><feComposite in2="hardAlpha" k2="-1" k3="1" operator="arithmetic"/><feColorMatrix values="0 0 0 0 0.737255 0 0 0 0 0.388235 0 0 0 0 0.388235 0 0 0 0.75 0"/><feBlend in2="shape" result="effect1_innerShadow_33_34"/><feColorMatrix in="SourceAlpha" result="hardAlpha" values="0 0 0 0 0 0 0 0 0 0 0 0 0 0 0 0 0 0 127 0"/><feOffset dx="-.525" dy="-.262"/><feGaussianBlur stdDeviation=".787"/><feComposite in2="hardAlpha" k2="-1" k3="1" operator="arithmetic"/><feColorMatrix values="0 0 0 0 0.905882 0 0 0 0 0.603922 0 0 0 0 0.603922 0 0 0 1 0"/><feBlend in2="effect1_innerShadow_33_34" result="effect2_innerShadow_33_34"/></filter><filter id="E" width="24.543" height="36.198" x="231.885" y="90.541" color-interpolation-filters="sRGB" filterUnits="userSpaceOnUse"><feFlood flood-opacity="0" result="BackgroundImageFix"/><feBlend in="SourceGraphic" in2="BackgroundImageFix" result="shape"/><feColorMatrix in="SourceAlpha" result="hardAlpha" values="0 0 0 0 0 0 0 0 0 0 0 0 0 0 0 0 0 0 127 0"/><feOffset dx="-.525" dy="1.575"/><feGaussianBlur stdDeviation="1.08"/><feComposite in2="hardAlpha" k2="-1" k3="1" operator="arithmetic"/><feColorMatrix values="0 0 0 0 0.737255 0 0 0 0 0.388235 0 0 0 0 0.388235 0 0 0 0.5 0"/><feBlend in2="shape" result="effect1_innerShadow_33_34"/></filter><filter id="F" width="13.896" height="20.366" x="235.751" y="102.256" color-interpolation-filters="sRGB" filterUnits="userSpaceOnUse"><feFlood flood-opacity="0" result="BackgroundImageFix"/><feBlend in="SourceGraphic" in2="BackgroundImageFix" result="shape"/><feGaussianBlur result="effect1_foregroundBlur_33_34" stdDeviation="1.253"/></filter><filter id="I" width="12.055" height="18.745" x="227.21" y="100.386" color-interpolation-filters="sRGB" filterUnits="userSpaceOnUse"><feFlood flood-opacity="0" result="BackgroundImageFix"/><feBlend in="SourceGraphic" in2="BackgroundImageFix" result="shape"/><feGaussianBlur result="effect1_foregroundBlur_33_34" stdDeviation="1.998"/></filter><filter id="J" width="8.579" height="10.341" x="230.956" y="95.625" color-interpolation-filters="sRGB" filterUnits="userSpaceOnUse"><feFlood flood-opacity="0" result="BackgroundImageFix"/><feBlend in="SourceGraphic" in2="BackgroundImageFix" result="shape"/><feGaussianBlur result="effect1_foregroundBlur_33_34" stdDeviation=".25"/></filter><filter id="R" width="11.895" height="23.625" x="86.847" y="70.609" color-interpolation-filters="sRGB" filterUnits="userSpaceOnUse"><feFlood flood-opacity="0" result="BackgroundImageFix"/><feBlend in="SourceGraphic" in2="BackgroundImageFix" result="shape"/><feColorMatrix in="SourceAlpha" result="hardAlpha" values="0 0 0 0 0 0 0 0 0 0 0 0 0 0 0 0 0 0 127 0"/><feOffset dx="-.155" dy=".309"/><feGaussianBlur stdDeviation=".077"/><feComposite in2="hardAlpha" k2="-1" k3="1" operator="arithmetic"/><feColorMatrix values="0 0 0 0 1 0 0 0 0 0.857667 0 0 0 0 0.491667 0 0 0 1 0"/><feBlend in2="shape" result="effect1_innerShadow_33_34"/></filter><filter id="ad" width="10.337" height="9.164" x="120.347" y="146.244" color-interpolation-filters="sRGB" filterUnits="userSpaceOnUse"><feFlood flood-opacity="0" result="BackgroundImageFix"/><feBlend in="SourceGraphic" in2="BackgroundImageFix" result="shape"/><feColorMatrix in="SourceAlpha" result="hardAlpha" values="0 0 0 0 0 0 0 0 0 0 0 0 0 0 0 0 0 0 127 0"/><feOffset dx="-.078" dy=".156"/><feGaussianBlur stdDeviation=".039"/><feComposite in2="hardAlpha" k2="-1" k3="1" operator="arithmetic"/><feColorMatrix values="0 0 0 0 1 0 0 0 0 0.857667 0 0 0 0 0.491667 0 0 0 1 0"/><feBlend in2="shape" result="effect1_innerShadow_33_34"/></filter><filter id="aj" width="39.333" height="48.673" x="127.063" y="56.216" color-interpolation-filters="sRGB" filterUnits="userSpaceOnUse"><feFlood flood-opacity="0" result="BackgroundImageFix"/><feColorMatrix in="SourceAlpha" result="hardAlpha" values="0 0 0 0 0 0 0 0 0 0 0 0 0 0 0 0 0 0 127 0"/><feOffset/><feGaussianBlur stdDeviation="4.37"/><feComposite in2="hardAlpha" operator="out"/><feColorMatrix values="0 0 0 0 1 0 0 0 0 1 0 0 0 0 1 0 0 0 1 0"/><feBlend in2="BackgroundImageFix" result="effect1_dropShadow_33_34"/><feBlend in="SourceGraphic" in2="effect1_dropShadow_33_34" result="shape"/></filter><filter id="ak" width="19.162" height="23.712" x="122.047" y="52.664" color-interpolation-filters="sRGB" filterUnits="userSpaceOnUse"><feFlood flood-opacity="0" result="BackgroundImageFix"/><feColorMatrix in="SourceAlpha" result="hardAlpha" values="0 0 0 0 0 0 0 0 0 0 0 0 0 0 0 0 0 0 127 0"/><feOffset/><feGaussianBlur stdDeviation="2.129"/><feComposite in2="hardAlpha" operator="out"/><feColorMatrix values="0 0 0 0 1 0 0 0 0 1 0 0 0 0 1 0 0 0 1 0"/><feBlend in2="BackgroundImageFix" result="effect1_dropShadow_33_34"/><feBlend in="SourceGraphic" in2="effect1_dropShadow_33_34" result="shape"/></filter><radialGradient id="Q" cx="0" cy="0" r="1" gradientTransform="matrix(13.3492 0 0 17.6209 85.942 82.285)" gradientUnits="userSpaceOnUse"><stop offset=".02" stop-color="#fff" stop-opacity="0"/><stop offset="1" stop-color="#E0A372"/></radialGradient><radialGradient id="ac" cx="0" cy="0" r="1" gradientTransform="matrix(3.93828 -5.48554 7.24091 5.19853 124.491 154.37)" gradientUnits="userSpaceOnUse"><stop offset=".02" stop-color="#fff" stop-opacity="0"/><stop offset="1" stop-color="#E0A372"/></radialGradient><clipPath id="a"><path fill="#fff" d="M0 0h280v200H0z"/></clipPath></defs></svg>