<svg width="130" height="130" xmlns="http://www.w3.org/2000/svg">
    <defs>
        <linearGradient x1="0%" y1="0%" x2="101.687%" y2="100%" id="a">
            <stop stop-color="#24C0E7" offset="0%"/>
            <stop stop-color="#31E7C5" offset="100%"/>
        </linearGradient>
    </defs>
    <g fill="none" fill-rule="evenodd">
        <circle fill="url(#a)" fill-rule="nonzero" cx="65" cy="65" r="65"/>
        <g transform="translate(17 40)" stroke="#FFF" stroke-linecap="round" stroke-linejoin="round" stroke-width="2.3">
            <path d="M11.216 25.957V5.486A5.486 5.486 0 0 1 16.7 0h62.784a5.486 5.486 0 0 1 5.485 5.486v35.498a5.486 5.486 0 0 1-5.485 5.486H50.682M11.216 8.63H84.97M50.7 28.995h25.941M11.216 19.682H84.97M50.7 36.374h13.938"/>
            <path d="m31.17 38.566-6.86 6.857-3.137-3.138a3.354 3.354 0 0 0-4.743 0l-.002.002a3.352 3.352 0 0 0-.002 4.739l5.504 5.51a3.353 3.353 0 0 0 4.746 0l9.236-9.233a3.352 3.352 0 0 0 0-4.74h0a3.353 3.353 0 0 0-4.743.003z"/>
            <circle transform="rotate(-45 26.167 44.86)" cx="26.167" cy="44.861" r="18.482"/>
        </g>
    </g>
</svg>
