<svg width="130" height="130" xmlns="http://www.w3.org/2000/svg">
    <defs>
        <linearGradient x1="0%" y1="0%" x2="101.687%" y2="100%" id="a">
            <stop stop-color="#949EFF" offset="0%"/>
            <stop stop-color="#504FFB" offset="100%"/>
        </linearGradient>
    </defs>
    <g fill="none" fill-rule="evenodd">
        <circle fill="url(#a)" fill-rule="nonzero" cx="65" cy="65" r="65"/>
        <path d="M93.065 74.935a3.97 3.97 0 0 0-1.162.194c-2.258.677-5.42 1.677-5.42 1.677a1.487 1.487 0 0 0-.548.29c-.838.678-.71 2.194-.677 2.517.161 1.193.677 2.161 1.194 2.484a.348.348 0 0 0 .225.097h.033a.356.356 0 0 0 .258 0l6.193-1.807c2-.58 2.516-2.129 2.355-3.29-.161-1.032-.87-2.162-2.451-2.162zM86 75.097s.355-.097.903-.29l5.742-1.71c2.194-.71 2.936-2.549 2.71-4.065-.194-1.193-1.065-2.548-2.968-2.548-.355 0-.742.064-1.129.161-1.29.323-5.968 1.774-5.968 1.774-1.355.387-1.58 2.226-1.355 3.646.259 1.806 1.162 3.096 1.807 3.096.064 0 .129 0 .193-.032l.065-.032v.032c-.032 0-.032-.032 0-.032zM54.871 36.032h31.064l-.064 21.645A47.39 47.39 0 0 1 88 57.032l5.806-1.838c2.42-.775 3.194-2.904 2.71-4.613-.387-1.387-1.71-2.678-4.161-2.065-2.484.613-4.29 1.097-4.29 1.097v-.839h-.033l.033-16.161a3.49 3.49 0 0 0-3.484-3.484H56.226a3.49 3.49 0 0 0-3.484 3.484V46.71c.774.225 1.484.774 2.129 1.451V36.032zm13.29-3.87h4.484c.484 0 .871.386.871.87a.867.867 0 0 1-.87.871H68.16a.867.867 0 0 1-.87-.87c0-.485.386-.872.87-.872z" fill="#FFF" fill-rule="nonzero"/>
        <g transform="translate(58 40)" fill="#FFF" fill-rule="nonzero">
            <rect x="1.428" y="1.764" width="1" height="1" rx=".5"/>
            <rect y="3.325" width="1" height="1" rx=".5"/>
            <path d="M.996 3.91a.111.111 0 0 1-.08-.032.112.112 0 0 1 .08-.193h.737l.04-.15H.582a.113.113 0 1 1 0-.225H1.83l.03-.114h.978a.113.113 0 0 0 0-.225h-.914l.65-.564h1.202a.113.113 0 1 0 0-.225h-.942l.24-.207H2.01a.113.113 0 0 1 0-.226h1.324l.194-.169h1.077a.113.113 0 0 0 0-.225h-.817l.369-.32H2.435L2.53.676h.947a.113.113 0 0 0 0-.225H2.59l.06-.226H1.523A.112.112 0 0 1 1.419.07.113.113 0 0 1 1.523 0h4.865L6.14.933 3.896 2.879h1.779L5.4 3.912M8.121 1.098h.967l-.575 2.594h-.967l.064-.274c-.225.247-.435.339-.703.339-.58 0-.967-.382-.967-1.078 0-.718.446-1.644 1.37-1.644.295 0 .585.108.752.339l.059-.276zm-.752 1.805a.542.542 0 0 0 .392-.18l.15-.658a.576.576 0 0 0-.43-.18c-.306 0-.542.253-.542.586a.419.419 0 0 0 .43.432zM11.322 1.098h.967l-.575 2.594h-.967l.065-.274c-.226.247-.435.339-.704.339-.58 0-.967-.382-.967-1.078 0-.718.446-1.644 1.37-1.644.295 0 .586.108.752.339l.06-.276zm-.752 1.805a.543.543 0 0 0 .392-.18l.15-.658a.576.576 0 0 0-.429-.18c-.306 0-.543.253-.543.586a.419.419 0 0 0 .43.432zM13.605 2.838l-.258.269-.129.585h-.967l.79-3.583h.967l-.414 1.856.763-.87h1.197l-1.155 1.18.639 1.414h-1.159zM15.99 4.68h-.967l.795-3.582h.966l-.064.274c.225-.248.435-.34.703-.34.58 0 .967.382.967 1.078 0 .718-.446 1.644-1.37 1.644-.295 0-.585-.108-.752-.339L15.99 4.68zm.974-2.793a.545.545 0 0 0-.392.18l-.151.658a.574.574 0 0 0 .43.18c.306 0 .542-.253.542-.587a.419.419 0 0 0-.43-.431zM20.71 1.098h.968l-.575 2.594h-.967l.064-.274c-.225.247-.435.339-.703.339-.58 0-.968-.382-.968-1.078 0-.718.446-1.644 1.37-1.644.296 0 .586.108.753.339l.059-.276zm-.75 1.805a.544.544 0 0 0 .391-.18l.15-.658a.575.575 0 0 0-.43-.18c-.305 0-.542.253-.542.586a.419.419 0 0 0 .43.432zM21.979 3.89c.134 0 .214-.032.263-.102l.054-.085-.43-2.605h.994l.16 1.482.833-1.482h1.048l-1.778 2.916c-.339.559-.677.73-1.197.73a1.802 1.802 0 0 1-.526-.07l.306-.821c.088.028.18.04.273.038z"/>
        </g>
        <path d="M92.806 57.484c-.387 0-.806.064-1.258.161-1.096.258-2.387.645-3.516 1-.032 0-.064.032-.097.032-.387.13-.741.226-1.064.323-.032 0-.032 0-.065.032-.322.097-.645.194-.87.29h-.033a9.716 9.716 0 0 1-.645.194c-1.484.452-1.742 2.355-1.516 3.839.258 1.839 1.161 3.032 1.839 3.032.064 0 .129 0 .225-.032l.13-.032.258-.065 6.903-1.903c2.29-.742 3.097-2.645 2.87-4.226-.193-1.194-1.128-2.645-3.16-2.645zM37.032 84.065l18.58 19.322-5.644 5.484L31.16 89.516zM58.161 89.226V87.16c.13-.484.258-1.032.355-1.613v-.096c.032-.323.097-.646.13-1 0-.065 0-.13.031-.194.033-.387.065-.806.065-1.226.064-4.903-1.58-9.87-4.097-12.42-2.129-2.128-1.129-4.709-.097-7.45.807-2.097 1.742-4.485 1.742-7.323 0-.258-.032-.516-.064-.807v-.097c-.032-.29-.13-.58-.194-.87 0-.033-.032-.097-.032-.13a11.34 11.34 0 0 0-.323-.967c0-.033-.032-.065-.032-.097-.774-2.13-2.161-4.29-3.484-4.58-1.064-.226-1.967 1.128-2.516 2.322-.322.645-.548 1.839-.839 3.226-.677 3.355-1.645 7.967-4.645 11.967-1.838 2.42-.774 7.904.807 10.775.967 1.774-2.29 4.935-5.387 7.419l15.935 16.355c1.161-1.161 3.645-3.387 6.13-3.484 8.483-.323 14.709-3.065 17.677-7.645H58.16z" fill="#FFF" fill-rule="nonzero"/>
        <path d="M87.452 83.839c-.226.064-.42.096-.646.096-1.258 0-2.225-1.032-2.774-2.322H60.42c.033.516.065 1 .033 1.516a18.866 18.866 0 0 1-.517 4.065v.419h24.613a3.49 3.49 0 0 0 3.484-3.484v-.42l-.58.13zm-14.678 1.677H68a.799.799 0 0 1-.806-.806c0-.452.354-.807.806-.807h4.774c.452 0 .807.355.807.807a.799.799 0 0 1-.807.806z" fill="#FFF" fill-rule="nonzero"/>
        <g transform="translate(60 54)">
            <circle fill="#FFF" opacity=".6" cx="10" cy="10" r="10"/>
            <path stroke="#7175FD" stroke-width="2" stroke-linecap="round" stroke-linejoin="round" d="m5 10.622 3.358 3.014L14.125 7"/>
        </g>
    </g>
</svg>
