<svg width="130" height="130" xmlns="http://www.w3.org/2000/svg">
    <defs>
        <linearGradient x1="0%" y1="0%" x2="101.687%" y2="100%" id="a">
            <stop stop-color="#64C2FF" offset="0%"/>
            <stop stop-color="#1F8EFF" offset="100%"/>
        </linearGradient>
    </defs>
    <g fill-rule="nonzero" fill="none">
        <circle fill="url(#a)" cx="65" cy="65" r="65"/>
        <g fill="#FFF">
            <path d="M63.28 36.03h21.768c1.12 0 1.474.507 1.443 1.643-.061 2.195-.03 4.39-.03 6.586 0 1.228 0 2.456-.016 3.669-.015.86-.384 1.228-1.274 1.243-1.228.015-2.456.015-3.669 0-.43 0-.645.108-.598.568.03.415.03.829 0 1.243-.016.384.138.507.506.507 1.182-.015 2.38-.015 3.561-.015 1.121 0 1.536.522 1.52 1.642-.046 2.18-.015 4.36-.015 6.54 0 1.212.015 2.41 0 3.623 0 .997-.384 1.381-1.366 1.381-1.228 0-2.456.015-3.67 0-.398 0-.552.108-.521.522.03.445.03.906 0 1.35-.015.385.138.492.506.492 1.26-.015 2.518-.015 3.777 0 .875 0 1.366.537 1.32 1.397-.03.43-.061.86-.061 1.29 0 .353-.154.537-.522.521h-.645c-.814 0-.798 0-.967-.798-.03-.138-.323-.307-.491-.307-.922-.03-1.843-.015-2.748-.015H57.632c-3.96 0-7.921.015-11.882.03-1.013 0-2.011 0-3.024-.015-.4-.015-.537.154-.537.537.015 2.64.015 5.297 0 7.937 0 .476.26.46.583.46h11.513c3.147 0 6.31 0 9.456-.015.43 0 .584.138.553.568-.03.338-.03.69 0 1.029.03.43-.154.552-.568.552-2.426-.015-4.866 0-7.292 0-2.702 0-5.403.016-8.105 0-.476 0-.645.169-.63.63.016.337.031.69 0 1.028-.045.522.185.676.691.676 3.976-.016 7.967-.016 11.943-.016.43 0 .86.03 1.29.016.353-.016.506.122.522.49.092 1.582.107 1.582-1.49 1.582-5.74 0-11.497.015-17.238.015-1.228 0-1.228 0-1.228 1.259 0 2.011 0 4.037-.016 6.048 0 .445.138.584.584.584 3.93-.016 7.86 0 11.774 0 2.256 0 4.498-.016 6.754-.031.844 0 .844-.015.844.829 0 1.243 0 1.274-1.258 1.274H45.044c-1.213 0-2.41.015-3.623.015-.998 0-1.382-.383-1.382-1.366v-9.41c0-.875.415-1.29 1.29-1.29 1.213 0 2.41 0 3.623.016.476 0 .706-.154.66-.66a7.016 7.016 0 0 1 0-1.136c.03-.415-.138-.537-.522-.522-1.228.015-2.456 0-3.669 0-.967 0-1.382-.415-1.382-1.382 0-3.454 0-6.923.016-10.377 0-1.06.368-1.412 1.427-1.412 1.213 0 2.41-.016 3.623 0 .4 0 .553-.138.522-.537-.03-.4-.03-.799 0-1.182.03-.461-.153-.645-.614-.63-1.182.03-2.38.015-3.561.015-.983 0-1.382-.383-1.382-1.35 0-3.454-.015-6.924-.015-10.378 0-1.074.384-1.443 1.474-1.458 1.182 0 2.379-.015 3.56 0 .385 0 .569-.107.538-.522a7.017 7.017 0 0 1 0-1.136c.046-.506-.169-.675-.645-.675-1.12.015-2.225.015-3.346.015-1.259 0-1.581-.307-1.581-1.55 0-3.408 0-6.816.015-10.209 0-1.059.369-1.412 1.443-1.412 5.465 0 10.915 0 16.38.015 1.796-.03 3.592-.03 5.388-.03zm-.06 11.084c0-.015 0-.015 0 0h3.346c5.71 0 11.42 0 17.131.015.522 0 .676-.168.676-.675-.03-2.502-.016-5.004-.016-7.507 0-.813 0-.829-.828-.829H68.346c-8.504 0-16.993 0-25.497-.015-.538 0-.676.169-.676.676.03 2.578.03 5.157.016 7.721 0 .522.2.614.66.614 6.8-.015 13.585 0 20.37 0zm.076 6.509H42.711c-.292 0-.522.015-.522.414.015 2.702 0 5.404 0 8.106 0 .291.122.43.414.43.2 0 .4.015.599.015 3.96 0 7.92-.016 11.881 0 5.527 0 11.053.015 16.58.015 4.037 0 8.058-.015 12.096 0 .491 0 .598-.184.598-.63-.015-2.563-.015-5.111.016-7.675.015-.583-.2-.675-.706-.66-6.785 0-13.586-.015-20.37-.015zm-.015 13.386c0 .015 0 .015 0 0 4.666.015 9.333 0 14 .015 1.535 0 1.535 0 1.535-1.535 0-.814 0-.814-.798-.814-9.58 0-19.158 0-28.737-.015-1.581 0-1.581 0-1.566 1.55 0 .783 0 .783.767.783 4.943.031 9.871.016 14.799.016zm-.031-15.52c4.651.015 9.287 0 13.939.015 1.627 0 1.611.031 1.611-1.596 0-.537-.153-.722-.706-.722-2.824.031-5.649.016-8.473.016-6.8 0-13.617-.016-20.417-.016-1.72 0-1.458-.23-1.49 1.49-.014.813 0 .813.8.813H63.25z"/>
            <path d="M80.75 105.954c-9.118.599-17.838-8.105-17.638-17.776.184-8.965 7.829-17.378 17.669-17.362 9.594.015 17.623 8.09 17.638 17.7.015 9.793-8.765 18.021-17.669 17.438zm15.55-17.5c.077-8.643-6.8-15.704-15.796-15.55-8.611.138-15.35 6.83-15.29 15.703.062 8.812 6.986 15.52 15.843 15.428 8.504-.107 15.305-7 15.243-15.581z"/>
            <path d="M69.406 90.112h1.857c0 .353 0 .568.016.66a.403.403 0 0 0 .107.23.361.361 0 0 0 .26.092c.093 0 .17-.03.231-.092a.403.403 0 0 0 .108-.23c0-.092.015-.276.015-.553v-1.182a.903.903 0 0 1-.414.445 1.531 1.531 0 0 1-.691.154c-.338 0-.645-.092-.906-.276-.26-.185-.43-.4-.491-.66-.077-.261-.108-.6-.108-1.044v-.599c0-.522.016-.906.062-1.167a1.56 1.56 0 0 1 .322-.706c.169-.215.415-.384.706-.506.307-.123.66-.185 1.06-.185.49 0 .905.062 1.212.2.323.138.568.338.737.599.169.26.276.537.307.813.03.292.046.83.046 1.658v1.029c0 .89-.015 1.473-.03 1.78-.031.292-.139.584-.323.845a1.77 1.77 0 0 1-.768.598c-.322.139-.69.2-1.12.2-.522 0-.952-.077-1.29-.246a1.534 1.534 0 0 1-.721-.706 3.475 3.475 0 0 1-.184-1.151zm1.857-2.318c0 .307.046.506.123.583a.352.352 0 0 0 .246.108.31.31 0 0 0 .276-.139c.061-.092.092-.276.092-.552v-1.351c0-.322-.03-.537-.092-.645-.062-.107-.154-.153-.276-.153-.077 0-.17.046-.246.123-.092.076-.123.291-.123.629v1.397zM74.502 90.112h1.858c0 .353 0 .568.015.66a.403.403 0 0 0 .107.23.361.361 0 0 0 .261.092c.093 0 .17-.03.23-.092a.403.403 0 0 0 .108-.23c.015-.092.015-.276.015-.553v-1.182a.903.903 0 0 1-.414.445 1.531 1.531 0 0 1-.69.154c-.338 0-.646-.092-.906-.276-.261-.185-.43-.4-.492-.66-.076-.261-.107-.6-.107-1.044v-.599c0-.522.015-.906.061-1.167a1.56 1.56 0 0 1 .323-.706c.168-.215.414-.384.706-.506.307-.123.66-.185 1.059-.185.491 0 .906.062 1.213.2.322.138.568.338.737.599.168.26.276.537.307.813.03.292.046.83.046 1.658v1.029c0 .89-.016 1.473-.031 1.78-.03.292-.138.584-.322.845a1.77 1.77 0 0 1-.768.598c-.322.139-.69.2-1.12.2-.523 0-.952-.077-1.29-.246a1.534 1.534 0 0 1-.722-.706c-.122-.307-.184-.69-.184-1.151zm1.842-2.318c0 .307.046.506.123.583a.352.352 0 0 0 .246.108.31.31 0 0 0 .276-.139c.061-.092.092-.276.092-.552v-1.351c0-.322-.03-.537-.092-.645-.061-.107-.153-.153-.276-.153-.077 0-.17.046-.246.123-.092.076-.123.291-.123.629v1.397zM80.811 90.572v1.52h-1.397v-1.52zM81.318 90.112h1.857c0 .353 0 .568.016.66a.403.403 0 0 0 .107.23.361.361 0 0 0 .261.092c.092 0 .17-.03.23-.092a.403.403 0 0 0 .108-.23c.015-.092.015-.276.015-.553v-1.182a.903.903 0 0 1-.414.445 1.531 1.531 0 0 1-.691.154c-.338 0-.645-.092-.906-.276-.26-.185-.43-.4-.49-.66-.078-.261-.108-.6-.108-1.044v-.599c0-.522.015-.906.061-1.167a1.56 1.56 0 0 1 .322-.706c.17-.215.415-.384.707-.506.307-.123.66-.185 1.059-.185.491 0 .905.062 1.212.2.323.138.568.338.737.599.17.26.277.537.307.813.031.292.046.83.046 1.658v1.029c0 .89-.015 1.473-.03 1.78-.031.292-.138.584-.323.845a1.77 1.77 0 0 1-.767.598c-.323.139-.691.2-1.12.2-.523 0-.953-.077-1.29-.246a1.534 1.534 0 0 1-.722-.706 3.475 3.475 0 0 1-.184-1.151zm1.857-2.318c0 .307.046.506.123.583a.352.352 0 0 0 .246.108.31.31 0 0 0 .276-.139c.062-.092.092-.276.092-.552v-1.351c0-.322-.03-.537-.092-.645-.061-.107-.153-.153-.276-.153-.077 0-.169.046-.246.123-.092.076-.123.291-.123.629v1.397zM88.978 85.921v1.274c0 .338-.03.584-.092.752-.061.17-.2.307-.4.43-.199.123-.475.184-.813.184-.384 0-.69-.061-.89-.184-.2-.123-.338-.26-.415-.43-.076-.168-.107-.399-.107-.706v-1.335c0-.369.03-.645.107-.814a.896.896 0 0 1 .43-.43c.215-.107.476-.169.798-.169.354 0 .63.062.845.185.215.122.368.26.43.445.061.184.107.445.107.798zm-1.182-.322c0-.2-.015-.323-.03-.369-.016-.046-.077-.061-.17-.061-.076 0-.138.03-.153.077-.03.046-.03.168-.03.353v1.872c0 .215.015.338.03.384.015.046.077.062.169.062.077 0 .138-.031.153-.077.031-.046.031-.169.031-.338V85.6zm3.347-1.09-2.902 7.706h-.706l2.917-7.706h.69zm1.274 5.004v1.274c0 .338-.031.584-.092.752-.062.17-.2.307-.4.446-.2.122-.475.184-.813.184-.384 0-.69-.062-.89-.184-.2-.123-.354-.261-.415-.43-.077-.169-.107-.4-.107-.706v-1.336c0-.368.03-.63.107-.813a.896.896 0 0 1 .43-.43c.215-.108.476-.17.798-.17.353 0 .63.062.86.185.215.123.368.276.43.445.061.17.092.43.092.783zm-1.167-.322c0-.2-.015-.323-.03-.369-.016-.046-.077-.076-.17-.076-.076 0-.138.03-.153.076-.03.046-.03.17-.03.369v1.873c0 .215.015.337.03.383.015.046.077.062.169.062.077 0 .138-.03.153-.077.016-.046.031-.169.031-.353V89.19z"/>
        </g>
    </g>
</svg>
